<svg width="846" height="897" viewBox="0 0 846 897" fill="none" xmlns="http://www.w3.org/2000/svg">
<path d="M0.506836 219.233C0.506836 126.449 75.723 51.2332 168.507 51.2332H677.507C770.291 51.2332 845.507 126.449 845.507 219.233V728.233C845.507 821.017 770.291 896.233 677.507 896.233H168.507C75.723 896.233 0.506836 821.017 0.506836 728.233V219.233Z" fill="url(#paint0_linear_230_336)"/>
<path d="M844.175 689.107H758.256V805.714H825.651C837.483 783.072 844.175 757.319 844.175 730.002V689.107ZM639.759 893.716H680.461C707.881 893.716 733.726 886.974 756.431 875.058V807.54H639.754L639.759 893.716ZM89.4951 875.019C112.217 886.959 138.089 893.716 165.539 893.716H206.053V807.54H89.4951V875.019ZM524.097 893.716H637.934L637.929 807.54H524.097V893.716ZM423.886 893.716H522.271V807.54H423.886V893.716ZM323.703 893.716H422.061V807.54H323.703V893.716ZM207.878 893.716H321.878V807.54H207.878V893.716ZM758.256 874.085C772.042 866.626 784.636 857.245 795.681 846.302L758.256 808.876V874.085ZM50.2891 846.274C61.3209 857.209 73.9001 866.586 87.6699 874.045V808.894L50.2891 846.274ZM796.97 845.01C807.891 833.948 817.248 821.339 824.683 807.54H759.499L796.97 845.01ZM21.3174 807.54C28.7452 821.327 38.0925 833.925 49.001 844.981L86.4434 807.54H21.3174ZM659.236 709.858C652.98 716.086 646.479 722.068 639.749 727.789L639.754 805.714H755.093L659.236 709.858ZM637.924 729.331C604.814 757.072 566.26 778.528 524.097 791.865V805.714H637.929L637.924 729.331ZM522.271 792.436C501.249 798.953 479.34 803.454 456.771 805.714H522.271V792.436ZM423.886 805.714H444.528C471.433 804.002 497.472 799.103 522.271 791.39V689.107H423.886V805.714ZM323.703 791.382C348.51 799.1 374.557 804.001 401.471 805.714H422.061V689.107H323.703V791.382ZM323.703 805.714H389.229C366.65 803.453 344.733 798.949 323.703 792.428V805.714ZM207.878 805.714H321.878V791.857C279.64 778.493 241.025 756.981 207.878 729.165V805.714ZM90.8496 805.714H206.053V727.622C199.382 721.943 192.937 716.007 186.733 709.83L90.8496 805.714ZM89.4951 804.488L185.443 708.539C179.244 702.299 173.29 695.817 167.595 689.107H89.4951V804.488ZM678.404 689.107C672.7 695.827 666.736 702.318 660.526 708.567L756.431 804.471V689.107H678.404ZM524.097 790.816C566.289 777.426 604.849 755.877 637.924 728.024L637.922 689.107H524.097V790.816ZM207.878 727.858C240.991 755.786 279.611 777.391 321.878 790.808V689.107H207.878V727.858ZM639.749 726.476C646.229 720.94 652.493 715.16 658.529 709.151L639.747 690.369L639.749 726.476ZM187.44 709.123C193.425 715.081 199.633 720.815 206.053 726.309V690.511L187.44 709.123ZM659.819 707.86C665.81 701.831 671.573 695.576 677.092 689.107H641.066L659.819 707.86ZM168.907 689.107C174.418 695.566 180.17 701.812 186.15 707.832L204.876 689.107H168.907ZM758.256 687.282H844.175V573.38H758.256V687.282ZM742.403 573.38C729.097 615.566 707.666 654.146 679.943 687.282H756.431V573.38H742.403ZM639.747 687.282H678.638C706.473 654.18 727.996 615.595 741.355 573.38H639.74L639.747 687.282ZM575.47 626.091C560.369 641.086 543.07 653.869 524.097 663.913V687.282H636.66L575.47 626.091ZM522.271 664.868C500.096 676.337 475.683 684.085 449.859 687.282H522.271V664.868ZM423.886 687.282H439.867C469.406 684.994 497.274 676.747 522.271 663.742V573.38H423.886V687.282ZM323.703 663.729C348.707 676.742 376.584 684.993 406.133 687.282H422.061V573.38H323.703V663.729ZM323.703 687.282H396.141C370.307 684.083 345.886 676.332 323.703 664.855V687.282ZM209.282 687.282H321.878V663.899C302.903 653.851 285.601 641.064 270.5 626.063L209.282 687.282ZM104.644 573.38C118.003 615.595 139.526 654.18 167.361 687.282H206.053V573.38H104.644ZM89.4951 687.282H166.056C138.333 654.146 116.902 615.566 103.596 573.38H89.4951V687.282ZM1.8252 687.282H87.6699V573.38H1.8252V687.282ZM207.878 686.105L269.211 624.772C254.251 609.66 241.503 592.354 231.491 573.38H207.878V686.105ZM614.509 573.38C604.491 592.366 591.732 609.681 576.76 624.8L637.921 685.962L637.915 573.38H614.509ZM524.097 662.781C542.798 652.822 559.857 640.186 574.763 625.384L524.097 574.718V662.781ZM271.207 625.356C286.113 640.163 303.174 652.804 321.878 662.767V574.686L271.207 625.356ZM576.053 624.093C590.832 609.169 603.443 592.094 613.376 573.38H525.34L576.053 624.093ZM232.624 573.38C242.551 592.082 255.151 609.147 269.918 624.065L320.603 573.38H232.624ZM758.256 571.555H844.175V473.183H758.256V571.555ZM756.431 503.623C754.274 527.049 749.705 549.777 742.974 571.555H756.431V503.623ZM639.74 571.555H741.927C750.027 545.436 755.007 517.945 756.431 489.516V473.183H639.735L639.74 571.555ZM637.91 497.976C634.837 524.226 627.066 549.04 615.459 571.555H637.915L637.91 497.976ZM524.097 571.555H614.334C627.609 545.955 635.896 517.352 637.91 487.033V473.183H524.097V571.555ZM493.659 544.281C479.636 558.095 461.583 567.828 441.422 571.555H520.934L493.659 544.281ZM423.886 571.555H434.724C457.303 568.91 477.574 558.72 492.952 543.574L423.886 474.507V571.555ZM353.018 543.545C368.399 558.707 388.682 568.909 411.275 571.555H422.061V474.503L353.018 543.545ZM325.009 571.555H404.577C384.402 567.825 366.337 558.082 352.31 544.253L325.009 571.555ZM207.878 483.399C209.45 515.067 217.862 544.934 231.666 571.555H321.878V473.183H207.878V483.399ZM207.878 571.555H230.54C218.66 548.509 210.797 523.054 207.878 496.116V571.555ZM89.4951 487.976C90.8137 516.952 95.8261 544.965 104.072 571.555H206.053V473.183H89.4951V487.976ZM89.4951 571.555H103.025C96.2174 549.529 91.6203 526.533 89.4951 502.824V571.555ZM1.8252 571.555H87.6699V473.183H1.8252V571.555ZM522.271 489.509C518.768 510.154 508.982 528.659 494.948 542.99L522.271 570.312V489.509ZM323.703 570.28L351.021 542.961C336.971 528.602 327.183 510.055 323.703 489.368V570.28ZM494.241 542.283C509.821 526.369 520.112 505.259 522.271 481.792V473.183H425.143L494.241 542.283ZM323.703 481.537C325.81 505.091 336.108 526.287 351.729 542.254L420.8 473.183H323.703V481.537ZM758.256 372.986V471.358H844.175V372.986H758.256ZM639.729 372.986L639.734 471.358H756.431V455.566C754.997 426.941 749.957 399.266 741.758 372.986H639.729ZM524.097 372.986V471.358H637.909L637.908 458.025C635.877 427.501 627.488 398.717 614.052 372.986H524.097ZM425.206 471.358H522.271V463.29C520.101 439.705 509.716 418.5 494.004 402.559L425.206 471.358ZM351.966 402.587C336.212 418.582 325.82 439.872 323.703 463.545V471.358H420.736L351.966 402.587ZM231.947 372.986C217.976 399.743 209.461 429.801 207.878 461.683V471.358H321.878V372.986H231.947ZM104.239 372.986C95.893 399.737 90.8227 427.934 89.4951 457.106V471.358H206.053V372.986H104.239ZM1.8252 372.986V471.358H87.6699V372.986H1.8252ZM417.653 372.986C392.628 374.308 370.049 384.859 353.258 401.298L422.061 470.101V372.986H417.653ZM423.886 372.986V470.097L492.712 401.27C475.923 384.846 453.356 374.307 428.344 372.986H423.886ZM323.703 455.714C327.203 434.911 337.082 416.273 351.259 401.88L323.703 374.325V455.714ZM494.711 401.852C508.871 416.216 518.748 434.812 522.271 455.573V374.292L494.711 401.852ZM207.878 372.986V448.966C210.819 421.817 218.782 396.174 230.818 372.986H207.878ZM615.18 372.986C626.938 395.637 634.808 420.63 637.908 447.082L637.903 372.986H615.18ZM89.4951 372.986V442.258C91.6378 418.355 96.2912 395.176 103.191 372.986H89.4951ZM742.807 372.986C749.63 394.929 754.257 417.839 756.431 441.459V372.986H742.807ZM324.944 372.986L352.551 400.591C367.286 386.161 386.436 376.221 407.787 372.986H324.944ZM438.21 372.986C459.547 376.219 478.687 386.148 493.419 400.563L520.997 372.986H438.21ZM1.8252 371.161H87.6699V257.324H1.8252V371.161ZM89.4951 371.161H103.765C117.147 328.983 138.659 290.425 166.457 257.324H89.4951V371.161ZM167.763 257.324C139.852 290.39 118.251 328.954 104.814 371.161H206.053V257.324H167.763ZM207.878 371.161H231.778C241.799 352.299 254.529 335.096 269.449 320.071L207.878 258.5V371.161ZM270.156 320.778C255.43 335.609 242.847 352.571 232.911 371.161H320.539L270.156 320.778ZM414.293 257.324C381.714 258.619 350.997 267.149 323.703 281.353V371.161H422.061V257.324H414.293ZM423.886 371.161H522.271V281.34C494.984 267.144 464.276 258.619 431.707 257.324H423.886V371.161ZM525.402 371.161H613.087C603.145 352.559 590.553 335.586 575.814 320.749L525.402 371.161ZM576.521 320.042C591.454 335.074 604.193 352.287 614.221 371.161H637.903L637.897 258.666L576.521 320.042ZM639.729 371.161H741.184C727.747 328.954 706.147 290.39 678.236 257.324H639.723L639.729 371.161ZM679.542 257.324C707.34 290.425 728.85 328.983 742.232 371.161H756.431V257.324H679.542ZM758.256 371.161H844.175V257.324H758.256V371.161ZM321.878 282.315C303.275 292.225 286.297 304.783 271.447 319.488L321.878 369.918V282.315ZM524.097 369.886L574.523 319.459C559.674 304.761 542.698 292.207 524.097 282.301V369.886ZM270.74 318.781C285.784 303.883 303.003 291.178 321.878 281.183V257.324H209.282L270.74 318.781ZM524.097 281.169C542.969 291.16 560.186 303.86 575.229 318.752L636.66 257.324H524.097V281.169ZM323.703 280.227C347.082 268.131 372.949 260.174 400.334 257.324H323.703V280.227ZM445.666 257.324C473.041 260.173 498.899 268.126 522.271 280.214V257.324H445.666ZM660.288 236.275C666.436 242.449 672.344 248.862 677.998 255.499H756.431V140.132L660.288 236.275ZM641.065 255.499H676.685C671.216 249.113 665.51 242.936 659.581 236.982L641.065 255.499ZM524.097 255.499H637.897L637.895 217.034C604.826 189.192 566.277 167.652 524.097 154.266V255.499ZM423.886 255.499H522.271V153.692C493.877 144.861 463.858 139.721 432.774 138.828H423.886V255.499ZM413.225 138.828C382.132 139.722 352.104 144.864 323.703 153.7V255.499H422.061V138.828H413.225ZM321.878 154.274C279.611 167.691 240.991 189.296 207.878 217.224V255.499H321.878V154.274ZM186.389 237.01C180.47 242.956 174.774 249.123 169.314 255.499H204.877L186.389 237.01ZM89.4951 255.499H168.001C173.646 248.873 179.544 242.469 185.682 236.303L89.4951 140.117V255.499ZM639.722 254.26L658.29 235.693C652.318 229.76 646.124 224.052 639.72 218.582L639.722 254.26ZM206.053 218.773C199.718 224.193 193.59 229.848 187.68 235.721L206.053 254.093V218.773ZM186.973 235.014C193.103 228.922 199.468 223.066 206.053 217.46V138.828H90.7861L186.973 235.014ZM639.72 217.269C646.374 222.924 652.805 228.835 658.997 234.986L755.156 138.828H639.716L639.72 217.269ZM207.878 215.917C241.025 188.102 279.64 166.589 321.878 153.225V138.828H207.878V215.917ZM524.097 153.217C566.248 166.55 604.791 187.998 637.895 215.727L637.891 138.828H524.097V153.217ZM323.703 152.654C346.567 145.565 370.478 140.859 395.148 138.828H323.703V152.654ZM450.851 138.828C475.512 140.858 499.415 145.561 522.271 152.646V138.828H450.851ZM759.562 137.002H824.392C816.95 123.314 807.613 110.807 796.732 99.8306L759.562 137.002ZM639.716 137.002H756.431V70.0239C733.726 58.1086 707.881 51.3667 680.461 51.3667H639.711L639.716 137.002ZM524.097 137.002H637.891L637.886 51.3667H524.097V137.002ZM423.886 137.002H522.271V51.3667H423.886V137.002ZM323.703 137.002H422.061V51.3667H323.703V137.002ZM207.878 137.002H321.878V51.3667H207.878V137.002ZM165.539 51.3667C138.089 51.3667 112.217 58.1234 89.4951 70.063V137.002H206.053V51.3667H165.539ZM49.2383 99.8599C38.3705 110.829 29.043 123.326 21.6084 137.002H86.3809L49.2383 99.8599ZM758.256 135.727L795.44 98.5425C784.454 87.7016 771.943 78.402 758.256 70.9966V135.727ZM87.6699 71.0366C73.9999 78.4421 61.5034 87.7371 50.5293 98.5708L87.6699 135.71V71.0366ZM1.8252 730.002C1.8252 757.319 8.51726 783.072 20.3486 805.714H87.6699V689.107H1.8252V730.002ZM844.175 215.081C844.175 187.547 837.378 161.6 825.37 138.828H758.256V255.499H844.175V215.081ZM1.8252 255.499H87.6699V138.828H20.6299C8.622 161.6 1.8252 187.547 1.8252 215.081V255.499ZM846 730.002C846 821.427 771.886 895.542 680.461 895.542H165.537L164.471 895.539H164.469C73.5366 894.963 0 821.07 0 730.002V215.081C0 187.033 6.97716 160.615 19.2881 137.465V137.002H19.5361C35.0044 108.138 58.7807 84.3934 87.6699 68.9653V68.5347H88.4775C111.494 56.4064 137.715 49.5415 165.539 49.5415H680.461C708.543 49.5415 734.99 56.536 758.159 68.8745H758.256V68.9253C787.179 84.3523 810.982 108.113 826.464 137.002H826.592V137.242C838.977 160.445 846 186.942 846 215.081V730.002Z" fill="white"/>
<path d="M630.465 339.107C630.465 277.452 615.086 241.547 594.195 220.656C573.304 199.764 537.399 184.386 475.744 184.386H180.369V409.434C180.369 440.507 155.179 465.696 124.107 465.696C93.0341 465.696 67.8447 440.507 67.8447 409.434V128.124C67.8447 97.0514 93.0341 71.8621 124.107 71.8621H475.744C554.744 71.8621 624.331 91.6476 673.767 141.084C723.203 190.52 742.989 260.107 742.989 339.107C742.989 404.995 720.717 463.16 679.248 507C659.954 527.395 637.242 543.918 612.031 556.586L763.524 723.222C784.425 746.214 782.731 781.803 759.74 802.705C736.748 823.606 701.159 821.912 680.257 798.921L469.275 566.84C455.2 551.358 450.88 529.339 458.059 509.685C465.238 490.033 482.732 475.989 503.47 473.223C545.722 467.59 577.057 451.284 597.506 429.667C617.571 408.454 630.465 378.707 630.465 339.107Z" fill="url(#paint1_linear_230_336)"/>
<g filter="url(#filter0_iiii_230_336)">
<path d="M480.983 29.9644C492.551 4.3455 522.697 -7.04579 548.316 4.52196C573.935 16.0904 585.327 46.2363 573.759 71.8554L255.129 777.479L218.212 859.235C206.643 884.854 176.498 896.245 150.878 884.677C125.26 873.109 113.868 842.963 125.436 817.344L131.668 803.543L480.983 29.9644Z" fill="white" fill-opacity="0.26"/>
</g>
<path opacity="0.54" d="M150.88 884.677C176.499 896.245 206.645 884.853 218.214 859.234L255.091 777.568C245.303 799.176 207 834.488 131.67 803.542L125.438 817.343C113.87 842.963 125.261 873.108 150.88 884.677Z" fill="url(#paint2_linear_230_336)"/>
<g filter="url(#filter1_iiii_230_336)">
<path d="M200.569 795.349C219.925 796.975 236.934 782.601 238.559 763.244C240.184 743.888 225.81 726.879 206.454 725.254C187.098 723.629 170.089 738.003 168.464 757.359C166.838 776.715 181.212 793.724 200.569 795.349Z" fill="#7FFF00" fill-opacity="0.26"/>
</g>
<g filter="url(#filter2_iiii_230_336)">
<path d="M252.213 700.846C271.409 702.457 288.277 688.203 289.888 669.007C291.5 649.812 277.245 632.944 258.05 631.332C238.854 629.72 221.986 643.975 220.375 663.171C218.763 682.366 233.018 699.234 252.213 700.846Z" fill="#489EFF" fill-opacity="0.26"/>
</g>
<g filter="url(#filter3_iiii_230_336)">
<path d="M288.049 571.544C306.229 573.071 322.205 559.57 323.732 541.389C325.258 523.208 311.757 507.232 293.577 505.706C275.396 504.179 259.42 517.68 257.893 535.861C256.367 554.042 269.868 570.018 288.049 571.544Z" fill="#3700FF" fill-opacity="0.26"/>
</g>
<defs>
<filter id="filter0_iiii_230_336" x="116.914" y="-4" width="465.366" height="897.199" filterUnits="userSpaceOnUse" color-interpolation-filters="sRGB">
<feFlood flood-opacity="0" result="BackgroundImageFix"/>
<feBlend mode="normal" in="SourceGraphic" in2="BackgroundImageFix" result="shape"/>
<feColorMatrix in="SourceAlpha" type="matrix" values="0 0 0 0 0 0 0 0 0 0 0 0 0 0 0 0 0 0 127 0" result="hardAlpha"/>
<feOffset dy="-4"/>
<feGaussianBlur stdDeviation="2"/>
<feComposite in2="hardAlpha" operator="arithmetic" k2="-1" k3="1"/>
<feColorMatrix type="matrix" values="0 0 0 0 1 0 0 0 0 1 0 0 0 0 1 0 0 0 0.25 0"/>
<feBlend mode="normal" in2="shape" result="effect1_innerShadow_230_336"/>
<feColorMatrix in="SourceAlpha" type="matrix" values="0 0 0 0 0 0 0 0 0 0 0 0 0 0 0 0 0 0 127 0" result="hardAlpha"/>
<feOffset dx="4"/>
<feGaussianBlur stdDeviation="2"/>
<feComposite in2="hardAlpha" operator="arithmetic" k2="-1" k3="1"/>
<feColorMatrix type="matrix" values="0 0 0 0 1 0 0 0 0 1 0 0 0 0 1 0 0 0 0.67 0"/>
<feBlend mode="normal" in2="effect1_innerShadow_230_336" result="effect2_innerShadow_230_336"/>
<feColorMatrix in="SourceAlpha" type="matrix" values="0 0 0 0 0 0 0 0 0 0 0 0 0 0 0 0 0 0 127 0" result="hardAlpha"/>
<feOffset dy="4"/>
<feGaussianBlur stdDeviation="2"/>
<feComposite in2="hardAlpha" operator="arithmetic" k2="-1" k3="1"/>
<feColorMatrix type="matrix" values="0 0 0 0 1 0 0 0 0 1 0 0 0 0 1 0 0 0 0.25 0"/>
<feBlend mode="normal" in2="effect2_innerShadow_230_336" result="effect3_innerShadow_230_336"/>
<feColorMatrix in="SourceAlpha" type="matrix" values="0 0 0 0 0 0 0 0 0 0 0 0 0 0 0 0 0 0 127 0" result="hardAlpha"/>
<feOffset dx="-4"/>
<feGaussianBlur stdDeviation="2"/>
<feComposite in2="hardAlpha" operator="arithmetic" k2="-1" k3="1"/>
<feColorMatrix type="matrix" values="0 0 0 0 1 0 0 0 0 1 0 0 0 0 1 0 0 0 0.83 0"/>
<feBlend mode="normal" in2="effect3_innerShadow_230_336" result="effect4_innerShadow_230_336"/>
</filter>
<filter id="filter1_iiii_230_336" x="164.338" y="721.129" width="78.3467" height="78.3461" filterUnits="userSpaceOnUse" color-interpolation-filters="sRGB">
<feFlood flood-opacity="0" result="BackgroundImageFix"/>
<feBlend mode="normal" in="SourceGraphic" in2="BackgroundImageFix" result="shape"/>
<feColorMatrix in="SourceAlpha" type="matrix" values="0 0 0 0 0 0 0 0 0 0 0 0 0 0 0 0 0 0 127 0" result="hardAlpha"/>
<feOffset dy="-4"/>
<feGaussianBlur stdDeviation="2"/>
<feComposite in2="hardAlpha" operator="arithmetic" k2="-1" k3="1"/>
<feColorMatrix type="matrix" values="0 0 0 0 1 0 0 0 0 1 0 0 0 0 1 0 0 0 0.25 0"/>
<feBlend mode="normal" in2="shape" result="effect1_innerShadow_230_336"/>
<feColorMatrix in="SourceAlpha" type="matrix" values="0 0 0 0 0 0 0 0 0 0 0 0 0 0 0 0 0 0 127 0" result="hardAlpha"/>
<feOffset dx="4"/>
<feGaussianBlur stdDeviation="2"/>
<feComposite in2="hardAlpha" operator="arithmetic" k2="-1" k3="1"/>
<feColorMatrix type="matrix" values="0 0 0 0 1 0 0 0 0 1 0 0 0 0 1 0 0 0 0.67 0"/>
<feBlend mode="normal" in2="effect1_innerShadow_230_336" result="effect2_innerShadow_230_336"/>
<feColorMatrix in="SourceAlpha" type="matrix" values="0 0 0 0 0 0 0 0 0 0 0 0 0 0 0 0 0 0 127 0" result="hardAlpha"/>
<feOffset dy="4"/>
<feGaussianBlur stdDeviation="2"/>
<feComposite in2="hardAlpha" operator="arithmetic" k2="-1" k3="1"/>
<feColorMatrix type="matrix" values="0 0 0 0 1 0 0 0 0 1 0 0 0 0 1 0 0 0 0.25 0"/>
<feBlend mode="normal" in2="effect2_innerShadow_230_336" result="effect3_innerShadow_230_336"/>
<feColorMatrix in="SourceAlpha" type="matrix" values="0 0 0 0 0 0 0 0 0 0 0 0 0 0 0 0 0 0 127 0" result="hardAlpha"/>
<feOffset dx="-4"/>
<feGaussianBlur stdDeviation="2"/>
<feComposite in2="hardAlpha" operator="arithmetic" k2="-1" k3="1"/>
<feColorMatrix type="matrix" values="0 0 0 0 1 0 0 0 0 1 0 0 0 0 1 0 0 0 0.83 0"/>
<feBlend mode="normal" in2="effect3_innerShadow_230_336" result="effect4_innerShadow_230_336"/>
</filter>
<filter id="filter2_iiii_230_336" x="216.25" y="627.208" width="77.7627" height="77.7621" filterUnits="userSpaceOnUse" color-interpolation-filters="sRGB">
<feFlood flood-opacity="0" result="BackgroundImageFix"/>
<feBlend mode="normal" in="SourceGraphic" in2="BackgroundImageFix" result="shape"/>
<feColorMatrix in="SourceAlpha" type="matrix" values="0 0 0 0 0 0 0 0 0 0 0 0 0 0 0 0 0 0 127 0" result="hardAlpha"/>
<feOffset dy="-4"/>
<feGaussianBlur stdDeviation="2"/>
<feComposite in2="hardAlpha" operator="arithmetic" k2="-1" k3="1"/>
<feColorMatrix type="matrix" values="0 0 0 0 1 0 0 0 0 1 0 0 0 0 1 0 0 0 0.25 0"/>
<feBlend mode="normal" in2="shape" result="effect1_innerShadow_230_336"/>
<feColorMatrix in="SourceAlpha" type="matrix" values="0 0 0 0 0 0 0 0 0 0 0 0 0 0 0 0 0 0 127 0" result="hardAlpha"/>
<feOffset dx="4"/>
<feGaussianBlur stdDeviation="2"/>
<feComposite in2="hardAlpha" operator="arithmetic" k2="-1" k3="1"/>
<feColorMatrix type="matrix" values="0 0 0 0 1 0 0 0 0 1 0 0 0 0 1 0 0 0 0.67 0"/>
<feBlend mode="normal" in2="effect1_innerShadow_230_336" result="effect2_innerShadow_230_336"/>
<feColorMatrix in="SourceAlpha" type="matrix" values="0 0 0 0 0 0 0 0 0 0 0 0 0 0 0 0 0 0 127 0" result="hardAlpha"/>
<feOffset dy="4"/>
<feGaussianBlur stdDeviation="2"/>
<feComposite in2="hardAlpha" operator="arithmetic" k2="-1" k3="1"/>
<feColorMatrix type="matrix" values="0 0 0 0 1 0 0 0 0 1 0 0 0 0 1 0 0 0 0.25 0"/>
<feBlend mode="normal" in2="effect2_innerShadow_230_336" result="effect3_innerShadow_230_336"/>
<feColorMatrix in="SourceAlpha" type="matrix" values="0 0 0 0 0 0 0 0 0 0 0 0 0 0 0 0 0 0 127 0" result="hardAlpha"/>
<feOffset dx="-4"/>
<feGaussianBlur stdDeviation="2"/>
<feComposite in2="hardAlpha" operator="arithmetic" k2="-1" k3="1"/>
<feColorMatrix type="matrix" values="0 0 0 0 1 0 0 0 0 1 0 0 0 0 1 0 0 0 0.83 0"/>
<feBlend mode="normal" in2="effect3_innerShadow_230_336" result="effect4_innerShadow_230_336"/>
</filter>
<filter id="filter3_iiii_230_336" x="253.776" y="501.588" width="74.0723" height="74.0739" filterUnits="userSpaceOnUse" color-interpolation-filters="sRGB">
<feFlood flood-opacity="0" result="BackgroundImageFix"/>
<feBlend mode="normal" in="SourceGraphic" in2="BackgroundImageFix" result="shape"/>
<feColorMatrix in="SourceAlpha" type="matrix" values="0 0 0 0 0 0 0 0 0 0 0 0 0 0 0 0 0 0 127 0" result="hardAlpha"/>
<feOffset dy="-4"/>
<feGaussianBlur stdDeviation="2"/>
<feComposite in2="hardAlpha" operator="arithmetic" k2="-1" k3="1"/>
<feColorMatrix type="matrix" values="0 0 0 0 1 0 0 0 0 1 0 0 0 0 1 0 0 0 0.25 0"/>
<feBlend mode="normal" in2="shape" result="effect1_innerShadow_230_336"/>
<feColorMatrix in="SourceAlpha" type="matrix" values="0 0 0 0 0 0 0 0 0 0 0 0 0 0 0 0 0 0 127 0" result="hardAlpha"/>
<feOffset dx="4"/>
<feGaussianBlur stdDeviation="2"/>
<feComposite in2="hardAlpha" operator="arithmetic" k2="-1" k3="1"/>
<feColorMatrix type="matrix" values="0 0 0 0 1 0 0 0 0 1 0 0 0 0 1 0 0 0 0.67 0"/>
<feBlend mode="normal" in2="effect1_innerShadow_230_336" result="effect2_innerShadow_230_336"/>
<feColorMatrix in="SourceAlpha" type="matrix" values="0 0 0 0 0 0 0 0 0 0 0 0 0 0 0 0 0 0 127 0" result="hardAlpha"/>
<feOffset dy="4"/>
<feGaussianBlur stdDeviation="2"/>
<feComposite in2="hardAlpha" operator="arithmetic" k2="-1" k3="1"/>
<feColorMatrix type="matrix" values="0 0 0 0 1 0 0 0 0 1 0 0 0 0 1 0 0 0 0.25 0"/>
<feBlend mode="normal" in2="effect2_innerShadow_230_336" result="effect3_innerShadow_230_336"/>
<feColorMatrix in="SourceAlpha" type="matrix" values="0 0 0 0 0 0 0 0 0 0 0 0 0 0 0 0 0 0 127 0" result="hardAlpha"/>
<feOffset dx="-4"/>
<feGaussianBlur stdDeviation="2"/>
<feComposite in2="hardAlpha" operator="arithmetic" k2="-1" k3="1"/>
<feColorMatrix type="matrix" values="0 0 0 0 1 0 0 0 0 1 0 0 0 0 1 0 0 0 0.83 0"/>
<feBlend mode="normal" in2="effect3_innerShadow_230_336" result="effect4_innerShadow_230_336"/>
</filter>
<linearGradient id="paint0_linear_230_336" x1="-401.607" y1="-49.9821" x2="-401.607" y2="795.018" gradientUnits="userSpaceOnUse">
<stop stop-color="#C097F9"/>
<stop offset="1" stop-color="#C6BBD7"/>
</linearGradient>
<linearGradient id="paint1_linear_230_336" x1="423" y1="71.8621" x2="423" y2="817.337" gradientUnits="userSpaceOnUse">
<stop stop-color="#F5D2D2"/>
<stop offset="1" stop-color="#6643FF"/>
</linearGradient>
<linearGradient id="paint2_linear_230_336" x1="190.939" y1="772.089" x2="141.555" y2="877.961" gradientUnits="userSpaceOnUse">
<stop stop-color="#D3A9FF"/>
<stop offset="1" stop-color="#8D48D8"/>
</linearGradient>
</defs>
</svg>
