<?xml version="1.0" encoding="UTF-8"?>
<!DOCTYPE svg PUBLIC "-//W3C//DTD SVG 1.1//EN" "http://www.w3.org/Graphics/SVG/1.1/DTD/svg11.dtd">
<!-- Creator: CorelDRAW -->
<svg xmlns="http://www.w3.org/2000/svg" xml:space="preserve" width="0.6in" height="0.5in" version="1.1" style="shape-rendering:geometricPrecision; text-rendering:geometricPrecision; image-rendering:optimizeQuality; fill-rule:evenodd; clip-rule:evenodd"
viewBox="0 0 600 500"
 xmlns:xlink="http://www.w3.org/1999/xlink"
 xmlns:xodm="http://www.corel.com/coreldraw/odm/2003">
 <defs>
  <style type="text/css">
   <![CDATA[
    .str3 {stroke:black;stroke-miterlimit:2.61313}
    .str0 {stroke:black;stroke-width:3;stroke-miterlimit:2.61313}
    .str2 {stroke:black;stroke-width:3;stroke-linecap:round;stroke-miterlimit:2.61313}
    .str1 {stroke:black;stroke-width:3;stroke-linecap:round;stroke-linejoin:round;stroke-miterlimit:2.61313}
    .fil0 {fill:none;fill-rule:nonzero}
    .fil2 {fill:black}
    .fil1 {fill:black;fill-rule:nonzero}
   ]]>
  </style>
 </defs>
<symbol id="data-protection" viewBox="299.99 249.99 0.02 0.02">
 <path class="fil0 str0" d="M300 250l0 0 0 0c0,0 0,0 0,0 0,0 0,0 0,0l0 0 0 0z"/>
 <polygon class="fil1 str1" points="300,250 300,250 "/>
</symbol>
<symbol id="session-management" viewBox="299.99 249.99 0.02 0.02">
 <path class="fil0 str0" d="M300 250c0,0 0,0 0,0 0,0 0,0 0,0 0,0 0,0 0,0 0,0 0,0 0,0z"/>
 <polyline class="fil0 str0" points="300,250 300,250 300,250 "/>
 <line class="fil1 str0" x1="300" y1="250" x2="300" y2= "250" />
</symbol>
<symbol id="two-factor" viewBox="299.99 249.99 0.02 0.02">
 <path class="fil0 str0" d="M300 250l0 0c0,0 0,0 0,0l0 0c0,0 0,0 0,0l0 0c0,0 0,0 0,0l0 0c0,0 0,0 0,0z"/>
 <polygon class="fil1 str0" points="300,250 300,250 "/>
</symbol>
<symbol id="threat-detection" viewBox="299.99 249.99 0.02 0.02">
 <path class="fil0 str0" d="M300 250l0 0 0 0c0,0 0,0 0,0 0,0 0,0 0,0l0 0 0 0z"/>
 <path class="fil1" d="M300 250l0 0 0 0zm0 0l0 0z"/>
 <path id="_1" class="fil0 str2" d="M300 250l0 0m0 0l0 0z"/>
</symbol>
<symbol id="account-recovery" viewBox="299.99 249.99 0.02 0.02">
 <path class="fil0 str0" d="M300 250c0,0 0,0 0,0 0,0 0,0 0,0 0,0 0,0 0,0 0,0 0,0 0,0z"/>
 <polyline class="fil0 str0" points="300,250 300,250 300,250 "/>
 <line class="fil1 str0" x1="300" y1="250" x2="300" y2= "250" />
</symbol>
<symbol id="device-management" viewBox="299.99 249.99 0.02 0.02">
 <path class="fil0 str0" d="M300 250l0 0c0,0 0,0 0,0l0 0c0,0 0,0 0,0l0 0c0,0 0,0 0,0l0 0c0,0 0,0 0,0z"/>
 <path class="fil1" d="M300 250l0 0 0 0zm0 0l0 0 0 0zm0 0l0 0z"/>
 <path id="_1_0" class="fil0 str0" d="M300 250l0 0m0 0l0 0m0 0l0 0z"/>
</symbol>
<symbol id="privacy-settings" viewBox="299.99 249.99 0.02 0.02">
 <path class="fil0 str0" d="M300 250l0 0 0 0c0,0 0,0 0,0 0,0 0,0 0,0l0 0 0 0z"/>
</symbol>
<symbol id="security-scan" viewBox="299.99 249.99 0.02 0.02">
 <path class="fil0 str0" d="M300 250l0 0 0 0c0,0 0,0 0,0 0,0 0,0 0,0l0 0 0 0z"/>
 <polygon class="fil1" points="300,250 300,250 300,250 300,250 "/>
</symbol>
<symbol id="activity-log" viewBox="299.99 249.99 0.02 0.02">
 <path class="fil1" d="M300 250c0,0 0,0 0,0 0,0 0,0 0,0 0,0 0,0 0,0 0,0 0,0 0,0zm0 0l0 0 0 0 0 0 0 0 0 0 0 0z"/>
</symbol>
<symbol id="login-history" viewBox="299.99 249.99 0.02 0.02">
 <path class="fil1" d="M300 250c0,0 0,0 0,0 0,0 0,0 0,0 0,0 0,0 0,0 0,0 0,0 0,0zm0 0l0 0 0 0 0 0 0 0 0 0 0 0z"/>
 <polyline class="fil0 str0" points="300,250 300,250 300,250 "/>
</symbol>
 <g id="Layer_x0020_1">
  <metadata id="CorelCorpID_0Corel-Layer"/>
  <g id="_2504851303248">
   <g>
    <path class="fil2" d="M66.79 466.6l0 -49.19c0,-9.06 6.11,-16.4 13.66,-16.4l54.65 0c7.55,0 13.67,7.34 13.67,16.4l0 49.19c0,9.06 -6.12,16.39 -13.67,16.39l-54.65 0c-7.55,0 -13.66,-7.34 -13.66,-16.39zm92.32 6.21l0 -61.61c0,-11.34 -7.66,-20.54 -17.11,-20.54l-68.45 0c-9.45,0 -17.11,9.19 -17.11,20.54l0 61.61c0,11.34 7.66,20.53 17.11,20.53l68.45 0c9.45,0 17.11,-9.19 17.11,-20.53z"/>
    <path class="fil2" d="M190.25 466.6l0 -49.19c0,-9.06 6.12,-16.4 13.67,-16.4l54.65 0c7.55,0 13.66,7.34 13.66,16.4l0 49.19c0,9.06 -6.11,16.39 -13.66,16.39l-54.65 0c-7.55,0 -13.67,-7.34 -13.67,-16.39zm92.32 6.21l0 -61.61c0,-11.34 -7.66,-20.54 -17.11,-20.54l-68.44 0c-9.45,0 -17.11,9.19 -17.11,20.54l0 61.61c0,11.34 7.66,20.53 17.11,20.53l68.44 0c9.46,0 17.11,-9.19 17.11,-20.53z"/>
    <path class="fil2" d="M66.79 343.13l0 -49.19c0,-9.06 6.11,-16.39 13.66,-16.39l54.65 0c7.55,0 13.67,7.34 13.67,16.39l0 49.19c0,9.06 -6.12,16.39 -13.67,16.39l-54.65 0c-7.55,0 -13.66,-7.34 -13.66,-16.39zm92.32 6.21l0 -61.61c0,-11.34 -7.66,-20.54 -17.11,-20.54l-68.45 0c-9.45,0 -17.11,9.19 -17.11,20.54l0 61.61c0,11.34 7.66,20.53 17.11,20.53l68.45 0c9.45,0 17.11,-9.19 17.11,-20.53z"/>
    <path class="fil2" d="M219.65 364.91l-34.78 -34.78c-6.41,-6.41 -7.27,-15.92 -1.93,-21.26l38.64 -38.64c5.34,-5.33 14.85,-4.47 21.26,1.93l34.78 34.78c6.4,6.4 7.26,15.91 1.93,21.25l-38.64 38.64c-5.33,5.33 -14.85,4.47 -21.25,-1.93zm69.67 -60.89l-43.56 -43.56c-8.02,-8.02 -19.94,-9.11 -26.62,-2.42l-48.4 48.4c-6.69,6.69 -5.6,18.6 2.42,26.62l43.56 43.56c8.02,8.02 19.94,9.1 26.62,2.42l48.4 -48.4c6.69,-6.69 5.6,-18.6 -2.42,-26.62z"/>
   </g>
   <g>
    <path class="fil2" d="M66.78 219.4l0 -49.18c0,-9.06 6.12,-16.4 13.66,-16.4l54.65 0c7.55,0 13.66,7.34 13.66,16.4l0 49.18c0,9.06 -6.11,16.39 -13.66,16.39l-54.65 0c-7.54,0 -13.66,-7.34 -13.66,-16.39zm92.32 6.21l0 -61.61c0,-11.34 -7.66,-20.54 -17.11,-20.54l-68.44 0c-9.45,0 -17.11,9.19 -17.11,20.54l0 61.61c0,11.34 7.66,20.53 17.11,20.53l68.44 0c9.45,0 17.11,-9.19 17.11,-20.53z"/>
    <path class="fil2" d="M190.25 219.4l0 -49.18c0,-9.06 6.11,-16.4 13.66,-16.4l54.65 0c7.55,0 13.67,7.34 13.67,16.4l0 49.18c0,9.06 -6.12,16.39 -13.67,16.39l-54.65 0c-7.55,0 -13.66,-7.34 -13.66,-16.39zm92.32 6.21l0 -61.61c0,-11.34 -7.66,-20.54 -17.11,-20.54l-68.44 0c-9.45,0 -17.11,9.19 -17.11,20.54l0 61.61c0,11.34 7.66,20.53 17.11,20.53l68.44 0c9.45,0 17.11,-9.19 17.11,-20.53z"/>
    <path class="fil2" d="M66.78 95.94l0 -49.18c0,-9.06 6.12,-16.4 13.66,-16.4l54.65 0c7.55,0 13.66,7.34 13.66,16.4l0 49.18c0,9.06 -6.11,16.39 -13.66,16.39l-54.65 0c-7.54,0 -13.66,-7.34 -13.66,-16.39zm92.32 6.21l0 -61.61c0,-11.34 -7.66,-20.54 -17.11,-20.54l-68.44 0c-9.45,0 -17.11,9.19 -17.11,20.54l0 61.61c0,11.34 7.66,20.53 17.11,20.53l68.44 0c9.45,0 17.11,-9.19 17.11,-20.53z"/>
    <path class="fil2" d="M219.65 117.72l-34.78 -34.78c-6.41,-6.41 -7.27,-15.92 -1.93,-21.26l38.64 -38.64c5.34,-5.33 14.85,-4.47 21.26,1.93l34.78 34.78c6.4,6.4 7.27,15.92 1.93,21.25l-38.64 38.64c-5.33,5.34 -14.85,4.47 -21.25,-1.93zm69.67 -60.89l-43.56 -43.56c-8.02,-8.02 -19.94,-9.11 -26.62,-2.42l-48.4 48.4c-6.68,6.68 -5.6,18.6 2.42,26.62l43.56 43.56c8.02,8.02 19.93,9.1 26.62,2.42l48.4 -48.4c6.69,-6.69 5.6,-18.6 -2.42,-26.62z"/>
   </g>
   <g>
    <path class="fil2" d="M314.23 466.8l0 -49.18c0,-9.06 6.11,-16.4 13.66,-16.4l54.65 0c7.55,0 13.66,7.34 13.66,16.4l0 49.18c0,9.06 -6.11,16.39 -13.66,16.39l-54.65 0c-7.55,0 -13.66,-7.34 -13.66,-16.39zm92.32 6.21l0 -61.61c0,-11.34 -7.66,-20.54 -17.11,-20.54l-68.44 0c-9.45,0 -17.11,9.19 -17.11,20.54l0 61.61c0,11.34 7.66,20.53 17.11,20.53l68.44 0c9.45,0 17.11,-9.19 17.11,-20.53z"/>
    <path class="fil2" d="M437.7 466.8l0 -49.18c0,-9.06 6.11,-16.4 13.66,-16.4l54.65 0c7.55,0 13.67,7.34 13.67,16.4l0 49.18c0,9.06 -6.12,16.39 -13.67,16.39l-54.65 0c-7.55,0 -13.66,-7.34 -13.66,-16.39zm92.32 6.21l0 -61.61c0,-11.34 -7.66,-20.54 -17.11,-20.54l-68.45 0c-9.45,0 -17.11,9.19 -17.11,20.54l0 61.61c0,11.34 7.66,20.53 17.11,20.53l68.45 0c9.45,0 17.11,-9.19 17.11,-20.53z"/>
    <path class="fil2" d="M314.23 343.33l0 -49.19c0,-9.06 6.11,-16.4 13.66,-16.4l54.65 0c7.55,0 13.66,7.34 13.66,16.4l0 49.19c0,9.05 -6.11,16.39 -13.66,16.39l-54.65 0c-7.55,0 -13.66,-7.34 -13.66,-16.39zm92.32 6.21l0 -61.6c0,-11.35 -7.66,-20.54 -17.11,-20.54l-68.44 0c-9.45,0 -17.11,9.19 -17.11,20.54l0 61.6c0,11.34 7.66,20.53 17.11,20.53l68.44 0c9.45,0 17.11,-9.19 17.11,-20.53z"/>
    <path class="fil2" d="M467.09 365.11l-34.78 -34.78c-6.4,-6.41 -7.27,-15.92 -1.93,-21.26l38.64 -38.64c5.34,-5.34 14.85,-4.47 21.26,1.93l34.78 34.78c6.4,6.4 7.27,15.92 1.93,21.25l-38.64 38.64c-5.33,5.34 -14.85,4.47 -21.25,-1.93zm69.67 -60.89l-43.56 -43.56c-8.02,-8.02 -19.94,-9.1 -26.62,-2.42l-48.4 48.4c-6.68,6.68 -5.6,18.6 2.42,26.62l43.56 43.56c8.02,8.02 19.93,9.1 26.62,2.42l48.4 -48.4c6.69,-6.69 5.6,-18.6 -2.42,-26.62z"/>
   </g>
   <g>
    <path class="fil2" d="M314.22 219.6l0 -49.19c0,-9.06 6.12,-16.4 13.67,-16.4l54.65 0c7.55,0 13.66,7.34 13.66,16.4l0 49.19c0,9.05 -6.11,16.39 -13.66,16.39l-54.65 0c-7.55,0 -13.67,-7.34 -13.67,-16.39zm92.32 6.21l0 -61.6c0,-11.35 -7.66,-20.54 -17.11,-20.54l-68.45 0c-9.45,0 -17.11,9.19 -17.11,20.54l0 61.6c0,11.34 7.66,20.53 17.11,20.53l68.45 0c9.45,0 17.11,-9.19 17.11,-20.53z"/>
    <path class="fil2" d="M437.69 219.6l0 -49.19c0,-9.06 6.12,-16.4 13.66,-16.4l54.65 0c7.55,0 13.66,7.34 13.66,16.4l0 49.19c0,9.05 -6.11,16.39 -13.66,16.39l-54.65 0c-7.54,0 -13.66,-7.34 -13.66,-16.39zm92.32 6.21l0 -61.6c0,-11.35 -7.66,-20.54 -17.11,-20.54l-68.44 0c-9.45,0 -17.11,9.19 -17.11,20.54l0 61.6c0,11.34 7.66,20.53 17.11,20.53l68.44 0c9.45,0 17.11,-9.19 17.11,-20.53z"/>
    <path class="fil2" d="M314.22 96.14l0 -49.19c0,-9.06 6.12,-16.4 13.67,-16.4l54.65 0c7.55,0 13.66,7.34 13.66,16.4l0 49.19c0,9.05 -6.11,16.39 -13.66,16.39l-54.65 0c-7.55,0 -13.67,-7.34 -13.67,-16.39zm92.32 6.21l0 -61.6c0,-11.34 -7.66,-20.54 -17.11,-20.54l-68.45 0c-9.45,0 -17.11,9.2 -17.11,20.54l0 61.6c0,11.34 7.66,20.54 17.11,20.54l68.45 0c9.45,0 17.11,-9.2 17.11,-20.54z"/>
    <path class="fil2" d="M467.09 117.91l-34.78 -34.78c-6.41,-6.41 -7.27,-15.92 -1.93,-21.26l38.64 -38.64c5.33,-5.34 14.85,-4.47 21.26,1.93l34.78 34.78c6.4,6.4 7.27,15.91 1.93,21.25l-38.64 38.64c-5.34,5.33 -14.85,4.47 -21.25,-1.93zm69.67 -60.89l-43.56 -43.56c-8.02,-8.02 -19.94,-9.11 -26.62,-2.42l-48.4 48.4c-6.69,6.69 -5.6,18.6 2.42,26.62l43.56 43.56c8.02,8.02 19.94,9.1 26.62,2.42l48.4 -48.4c6.69,-6.68 5.6,-18.6 -2.42,-26.62z"/>
   </g>
  </g>
 </g>
</svg>
