<svg width="27" height="34" viewBox="0 0 27 34" fill="none" xmlns="http://www.w3.org/2000/svg">
<path fill-rule="evenodd" clip-rule="evenodd" d="M5.3202 14.4102C5.3202 16.3699 7.14829 18.1953 9.11084 18.1953H9.50985C11.4724 18.1953 13.3005 16.3699 13.3005 14.4102V4.71485H22.8103C23.8525 4.71485 24.3399 5.32627 24.3399 6.375V29.6836C24.3399 30.7323 23.8525 31.3438 22.8103 31.3438H4.25615C3.1984 31.3438 2.66009 30.8062 2.66009 29.75V6.3086C2.66009 5.25235 3.1984 4.71485 4.25615 4.71485H10.6404V13.9453C10.6404 15.5234 9.16802 15.9625 8.32676 15.0603C8.0746 14.7899 7.98029 14.4472 7.98029 13.9453V7.83595H5.3202V14.4102ZM15.8941 18.2617H21.6133V15.6055H15.8941V18.2617ZM15.8941 13.0156H21.6133V10.3594H15.8941V13.0156ZM5.3202 28.6875H16.2931V26.0313H5.3202V28.6875ZM5.3202 23.4414H21.6133V20.7852H5.3202V23.4414ZM5.85221 2.05859C3.9044 2.05859 2.96425 1.90212 1.74097 2.73454C0.894559 3.31051 0 4.45169 0 5.84376V30.2148C0 32.1746 1.82809 34 3.79064 34H23.2094C25.1184 34 27 32.1745 27 30.2148V5.84376C27 4.18879 25.6121 2.54016 23.9684 2.16394C23.0244 1.94787 14.2109 2.05859 12.7685 2.05859C12.5683 1.20058 10.9113 0 9.50985 0C8.43615 0 7.96206 0.117589 7.10104 0.649372C6.72767 0.879974 5.95662 1.61107 5.85221 2.05859Z" fill="white"/>
</svg>
