<?xml version="1.0" encoding="UTF-8"?>
<!DOCTYPE svg PUBLIC "-//W3C//DTD SVG 1.1//EN" "http://www.w3.org/Graphics/SVG/1.1/DTD/svg11.dtd">
<!-- Creator: CorelDRAW -->
<svg xmlns="http://www.w3.org/2000/svg" xml:space="preserve" width="0.787402in" height="0.787402in" version="1.1" style="shape-rendering:geometricPrecision; text-rendering:geometricPrecision; image-rendering:optimizeQuality; fill-rule:evenodd; clip-rule:evenodd"
viewBox="0 0 787.4 787.4"
 xmlns:xlink="http://www.w3.org/1999/xlink"
 xmlns:xodm="http://www.corel.com/coreldraw/odm/2003">
 <defs>
  <style type="text/css">
   <![CDATA[
    .fil0 {fill:black}
   ]]>
  </style>
 </defs>
 <g id="Layer_x0020_1">
  <metadata id="CorelCorpID_0Corel-Layer"/>
  <path class="fil0" d="M517.25 116.83c-12.24,1.66 -21.14,12.65 -27.08,18.64 -16.9,17.02 -30.3,28.26 -46.12,44.74 -14.76,15.36 -30.14,32.7 -45.1,46.98 -12.78,12.2 -40.28,43.84 -55.09,59.57 -3.97,4.22 -6.38,7.09 -11.3,12.47 -29.1,31.82 -59.04,64.09 -89.44,93.47 -32.14,31.06 -65.84,60.37 -89.21,94.78 -32.98,48.57 -17.26,90.08 16.72,130.28 10.76,12.72 27.72,28.18 42.66,36.92 14.89,8.71 19.89,12.86 39.43,18.64 15.93,4.71 42.65,5.89 58.77,-2.11l11.72 -6.49c0.21,-0.15 0.48,-0.34 0.69,-0.49l14.37 -11.65c10.94,-8.35 19.63,-18.98 29.39,-28.56l3.37 -3.46c0.16,-0.17 0.39,-0.42 0.55,-0.59 0.16,-0.17 0.39,-0.42 0.55,-0.59 0.16,-0.17 0.39,-0.42 0.55,-0.59l1.66 -1.75c0.16,-0.17 0.39,-0.41 0.55,-0.58 0.16,-0.17 0.39,-0.41 0.55,-0.59 0.16,-0.17 0.39,-0.42 0.54,-0.59l2.57 -3.11c1.91,-2.35 3.23,-3.73 5.34,-6.02l50.78 -52.53c8.84,-7.22 17.13,-17.78 25.71,-26.54l47.15 -49.43c0.15,-0.18 0.35,-0.45 0.5,-0.64l42.89 -44.55c0.16,-0.18 0.37,-0.44 0.52,-0.62 0.22,-0.26 0.8,-1.01 1.01,-1.27 6.9,-8.29 15.53,-15.76 22.96,-23.63 5.63,-5.96 17.31,-17.48 18.38,-27.02 1.44,-12.9 -11.6,-24.78 -24.97,-17.02 -15.81,9.18 -27.11,26.75 -39.17,40.34 -1.55,1.74 -3.22,4.33 -5.79,6.72l-66.7 69.56c-4.79,4.02 -7.31,7.22 -11.26,11.49 -4.16,4.5 -7.33,7.31 -11.91,11.93 -31.24,31.51 -57.22,62.89 -89.69,94.32 -12.05,11.66 -29.59,36.75 -46.07,44.78 -29.03,14.15 -51.59,1.09 -69.41,-10.75 -20.08,-13.34 -32.24,-17.3 -46.26,-45.87 -5.22,-10.63 -8.76,-22.54 -10.33,-35.13 -3.13,-25.22 6.28,-33.12 17.89,-49.37 1.71,-2.39 7.64,-10 10.15,-12.44l25.19 -25.98c0.17,-0.17 0.4,-0.41 0.56,-0.57l9.49 -9.81c0.18,-0.15 0.43,-0.38 0.6,-0.54l38.34 -40.04c0.16,-0.17 0.37,-0.43 0.52,-0.61 0.16,-0.17 0.37,-0.43 0.53,-0.61l3.32 -3.56c0.17,-0.19 0.39,-0.44 0.54,-0.62 0.16,-0.19 0.37,-0.45 0.52,-0.63 0.15,-0.18 0.35,-0.45 0.51,-0.63l18.44 -18.95c1.19,-1.2 1.63,-1.6 2.84,-2.8l101.03 -106.83c0.16,-0.17 0.39,-0.41 0.55,-0.59 0.16,-0.17 0.39,-0.42 0.55,-0.59 0.16,-0.18 0.38,-0.42 0.54,-0.6l14.44 -15.08c1.39,-1.51 1.35,-1.46 2.73,-2.95 0.16,-0.17 0.39,-0.42 0.55,-0.59 4.28,-4.61 8.3,-10.24 13.06,-14.11l7.93 -8.05c0.16,-0.17 0.39,-0.42 0.55,-0.59l22.1 -23.33c0.16,-0.17 0.39,-0.42 0.55,-0.59l2.19 -2.36c0.16,-0.18 0.38,-0.43 0.53,-0.6l34.79 -35.65 15.86 -11.27c1.48,-0.76 2.61,-1.32 3.86,-1.9l2.43 -1.07c8.42,-3.76 16.89,-6.11 26.45,-4.17 11.64,2.35 20.87,7.41 30.07,15.18 8,6.76 15.68,14.76 21.65,23.78 15.11,22.81 9.38,46.42 -9.82,64.34 -8.54,7.97 -13.24,15.68 -22.04,23.39 -9.22,8.08 -13.29,15.28 -22.57,24 -14.27,13.42 -52.61,54.48 -67.17,70.22 -13.52,14.62 -27.88,31.32 -43.82,47.04 -4.43,4.36 -7.6,6.98 -11.56,11.13 -2.93,3.07 -6.14,8.04 -11.04,12.85 -5.51,5.41 -7.11,5.67 -11.35,11.34 -3.06,4.09 -7.05,8.26 -10.72,12.03 -8.83,9.07 -35.57,39.57 -47.79,44.26 -21.71,8.32 -56.37,-23.72 -40.48,-50.69l2.77 -4c0.14,-0.21 0.33,-0.49 0.47,-0.71 6.04,-9.26 13.47,-16.42 21.55,-23.87l17.49 -16.68c0.17,-0.17 0.4,-0.41 0.56,-0.57l3.42 -3.39c0.17,-0.17 0.4,-0.4 0.57,-0.57 0.16,-0.17 0.4,-0.41 0.56,-0.57 0.16,-0.17 0.39,-0.41 0.55,-0.59l20.52 -20.36c0.17,-0.17 0.41,-0.4 0.57,-0.56l20.48 -20.4c0.17,-0.17 0.41,-0.4 0.57,-0.57l16.39 -16.55c0.18,-0.15 0.43,-0.37 0.61,-0.52l32.5 -32.25c0.16,-0.17 0.38,-0.43 0.54,-0.6l15.28 -15.41c0.15,-0.19 0.36,-0.44 0.51,-0.63l4.6 -6.59c0.18,-0.29 0.69,-1.16 0.85,-1.47 12.79,-23.44 -2.25,-40.36 -27.12,-23.78 -14.07,9.39 -32.22,33.51 -45.56,46.45 -8.63,8.38 -14.17,15.85 -22.09,23.33 -9.08,8.56 -14.28,16.07 -22.7,23.84l-44.54 47.45c-15.98,17.87 -27.03,20.19 -33.34,57.4 -4.54,26.72 11.32,46.39 30.96,59.96 9.76,6.74 16.16,14.85 28.96,16.48 14.42,1.84 29.64,0.8 41.22,-4.62 5.45,-2.55 10.37,-9.45 14.41,-14.08l5.45 -5.89c0.17,-0.16 0.43,-0.38 0.59,-0.54l3.33 -3.62c0.09,-0.12 1.41,-1.92 1.46,-1.97l39.89 -40.6c0.16,-0.17 0.39,-0.42 0.55,-0.59l1.1 -1.17c0.16,-0.17 0.39,-0.42 0.55,-0.59l32.67 -34.35c0.16,-0.17 0.39,-0.42 0.55,-0.59l13.36 -13.9c0.16,-0.17 0.39,-0.42 0.55,-0.59l14.82 -15.81c0.17,-0.17 0.41,-0.4 0.57,-0.56l4.5 -4.6c0.16,-0.17 0.39,-0.42 0.54,-0.59 0.16,-0.17 0.39,-0.42 0.54,-0.59 0.16,-0.17 0.39,-0.42 0.54,-0.59l9.83 -10.58c8.23,-9.07 17.2,-17.03 24.63,-26.52l16.64 -17.43c0.16,-0.17 0.38,-0.42 0.54,-0.59 0.16,-0.17 0.39,-0.42 0.54,-0.59l13.8 -14.59c0.16,-0.17 0.39,-0.42 0.54,-0.59l2.74 -2.94c0.16,-0.17 0.39,-0.42 0.55,-0.59 0.16,-0.17 0.39,-0.42 0.55,-0.59 0.16,-0.17 0.39,-0.42 0.55,-0.59l17.82 -18.48c0.17,-0.17 0.39,-0.43 0.56,-0.6 0.16,-0.17 0.39,-0.43 0.55,-0.6l26.41 -29.24c0.06,-0.09 1.41,-1.96 1.42,-1.98 0.98,-1.42 1.31,-2.08 2.3,-3.43l9.57 -14.24c3.14,-5.19 4.85,-10.39 6.17,-16.56 3.96,-18.46 -2.86,-40.77 -10.34,-56.12 -16.85,-34.6 -77.58,-71.14 -116.98,-65.8z"/>
 </g>
</svg>
