<?xml version="1.0" encoding="UTF-8"?>
<!DOCTYPE svg PUBLIC "-//W3C//DTD SVG 1.1//EN" "http://www.w3.org/Graphics/SVG/1.1/DTD/svg11.dtd">
<!-- Creator: CorelDRAW -->
<svg xmlns="http://www.w3.org/2000/svg" xml:space="preserve" width="0.787402in" height="0.787402in" version="1.1" style="shape-rendering:geometricPrecision; text-rendering:geometricPrecision; image-rendering:optimizeQuality; fill-rule:evenodd; clip-rule:evenodd"
viewBox="0 0 787.4 787.4"
 xmlns:xlink="http://www.w3.org/1999/xlink"
 xmlns:xodm="http://www.corel.com/coreldraw/odm/2003">
 <defs>
  <style type="text/css">
   <![CDATA[
    .fil0 {fill:black}
   ]]>
  </style>
 </defs>
 <g id="Layer_x0020_1">
  <metadata id="CorelCorpID_0Corel-Layer"/>
  <g id="_2505767532048">
   <path class="fil0" d="M66.47 719.1c6.36,40.36 28.07,58 71.25,62.05 36.74,3.44 340.44,0.28 393.36,0.3 103.11,0.05 181.04,18.11 186.38,-77.74 7.63,-137.15 -79.88,-274.63 -214.85,-312.42 -64.69,-18.11 -170.97,-17.82 -235.55,2.15 -132.5,41 -220.97,196.28 -200.59,325.65z"/>
   <path class="fil0" d="M354.83 14.4c-99.54,21.71 -157.54,115.95 -139.94,205.7 15.21,77.55 103.3,164.52 206.07,140.3 82.66,-19.48 159.4,-97.87 139.54,-207.18 -14.86,-81.79 -101.88,-161.46 -205.67,-138.82z"/>
  </g>
 </g>
</svg>
