<?xml version="1.0" encoding="UTF-8"?>
<!DOCTYPE svg PUBLIC "-//W3C//DTD SVG 1.1//EN" "http://www.w3.org/Graphics/SVG/1.1/DTD/svg11.dtd">
<!-- Creator: CorelDRAW -->
<svg xmlns="http://www.w3.org/2000/svg" xml:space="preserve" width="0.787402in" height="0.787402in" version="1.1" style="shape-rendering:geometricPrecision; text-rendering:geometricPrecision; image-rendering:optimizeQuality; fill-rule:evenodd; clip-rule:evenodd"
viewBox="0 0 787.4 787.4"
 xmlns:xlink="http://www.w3.org/1999/xlink"
 xmlns:xodm="http://www.corel.com/coreldraw/odm/2003">
 <defs>
  <style type="text/css">
   <![CDATA[
    .fil0 {fill:black}
   ]]>
  </style>
 </defs>
 <g id="Layer_x0020_1">
  <metadata id="CorelCorpID_0Corel-Layer"/>
  <g id="_2505786007856">
   <path class="fil0" d="M222.02 228.57c1.57,-1.66 7.58,-0.86 9.85,-0.85l31.85 0.01c14.16,-0 28.32,-0.04 42.48,-0.03 28.07,0 56.22,-0.17 84.28,0.02 14.59,0.1 160.06,-0.8 168.88,0.18 1.32,3.5 0.52,186.38 0.52,206.71l0.07 201.09c-0.01,3.37 0.13,3.64 -0.96,5.5 -0.11,6.83 -5.49,13.01 -9.09,15.89 -5.08,4.07 -11.93,4.8 -20.08,4.78l-147.99 -0.06c-32.87,0.03 -65.95,0.35 -98.8,0.02 -11.69,-0.12 -38.81,1.87 -47.67,-2.42 -14.67,-7.11 -13.44,-20.63 -13.49,-35.66 -0.18,-65.85 -0.35,-131.93 0.04,-197.77l-0.04 -148.66c-0.01,-15.62 -0.74,-33.41 0.12,-48.76zm96.33 -71.37c0,-8.94 3.31,-14.94 7.06,-18.62 3.56,-3.5 8.33,-7.07 18.62,-7.07l71.01 0.04c19.54,-0.09 35.13,-2.63 44.3,10.72 5.44,7.94 3.96,26.18 3.67,37.47 -16.13,0.14 -138.17,0.49 -144.65,-0.2l0 -22.34zm-144.6 70.74c-0.48,29.15 -0.04,58.69 -0.04,87.86l0.07 305.94c0,14.45 -0.53,26.6 3.96,39.52 7.19,20.71 24.31,37.53 43.54,44.28l12.29 3.37c12.8,2.26 143.78,1.2 157.57,1.07 43.76,-0.39 87.87,0.41 131.41,0.02 14.21,-0.13 21.56,0.7 34.93,-3.5l11.58 -5.09c10.02,-5.39 20.38,-13.65 26.09,-23.03l8.85 -18.26c4.8,-13.97 3.7,-25.54 3.7,-40.36l-0 -349.08c-0.04,-8.27 -1.09,-36.6 0.29,-42.74l47.93 -0.07 0.31 -48.08 -144.92 -0.07c-0.17,-8.98 0.29,-18.3 -0.11,-27.18 -1.63,-36.33 -30.43,-66.85 -66.93,-68.98 -16.92,-0.99 -36.61,-0.28 -53.78,-0.18 -36.17,0.22 -68.37,-4.85 -92.57,15.67 -4.11,3.48 -10.71,9.6 -13.48,13.79 -16.97,25.63 -13.74,34.89 -14.24,66.95l-144.22 0.35c-0.97,3.13 -0.97,43.59 -0.13,47.83l47.91 -0.02z"/>
   <path class="fil0" d="M463.09 613.93c3.69,-0.98 44.02,-0.85 48.42,0.08l-0.25 -337.55 -48 -0.24 -0.17 337.7z"/>
   <path class="fil0" d="M366.65 613.57c9.41,0.22 43.09,-0.74 48.56,0.37 -1.61,-8.06 -0.33,-32.04 -0.41,-41.89 -0.56,-69.78 0.81,-141.29 0.02,-211.01 -0.2,-17.35 1.01,-73.14 -0.17,-84.64l-47.83 -0.22 -0.16 337.39z"/>
   <polygon class="fil0" points="270.21,613.59 318.07,613.6 318.37,276.19 270.44,276.22 "/>
   <path class="fil0" d="M559.01 641.2c1.09,-1.86 0.95,-2.13 0.96,-5.5l-0.07 -201.09c0,-20.33 0.8,-203.21 -0.52,-206.71 -8.83,-0.98 -154.29,-0.08 -168.88,-0.18 -28.07,-0.19 -56.21,-0.02 -84.28,-0.02 -14.16,-0 -28.32,0.03 -42.48,0.03l-31.85 -0.01c-2.27,-0.02 -8.28,-0.81 -9.85,0.85l337.12 -0.14c1,6.96 -0.09,17.52 0.08,25.06 0.54,24.1 -0.09,53.06 -0.02,77.59 0.2,67.76 0.56,138.87 0,206.41 -0.15,17.25 0.43,34.66 0.01,51.81 -0.39,16.31 1.36,36.41 -0.2,51.9z"/>
  </g>
 </g>
</svg>
