<?xml version="1.0" encoding="UTF-8"?>
<!DOCTYPE svg PUBLIC "-//W3C//DTD SVG 1.1//EN" "http://www.w3.org/Graphics/SVG/1.1/DTD/svg11.dtd">
<!-- Creator: CorelDRAW -->
<svg xmlns="http://www.w3.org/2000/svg" xml:space="preserve" width="0.787402in" height="0.787402in" version="1.1" style="shape-rendering:geometricPrecision; text-rendering:geometricPrecision; image-rendering:optimizeQuality; fill-rule:evenodd; clip-rule:evenodd"
viewBox="0 0 787.4 787.4"
 xmlns:xlink="http://www.w3.org/1999/xlink"
 xmlns:xodm="http://www.corel.com/coreldraw/odm/2003">
 <defs>
  <style type="text/css">
   <![CDATA[
    .fil0 {fill:black}
   ]]>
  </style>
 </defs>
 <g id="Layer_x0020_1">
  <metadata id="CorelCorpID_0Corel-Layer"/>
  <g>
   <path class="fil0" d="M512.68 404.36l0.35 0.42c3.52,-2.8 3.11,-2.33 5.98,-7.28l0.06 -0.56c4.32,0.75 3.24,1.56 2.74,-2.94l4.18 -5.12c0.55,-0.47 1.27,-1.14 1.63,-1.44l8.43 -5.68 -23.71 103.35c9.54,-10.3 10.02,-29.16 19.37,-46.93 -2.71,18.99 -9.5,36.93 -12.24,52.44 -8.68,49.11 62.97,-25.3 105.44,-47.03 -7.27,16.2 -14.89,31.95 -22.66,49.71 -6.96,15.9 -16.96,33.06 -22.07,49.9l12.82 3.74c16.13,-16.62 27.62,-57 40.09,-73.82l-16.89 58.83 75.22 -141.18c0.74,-0.19 1.47,-0.32 2.22,-0.51 6.42,-1.64 14.49,-2.56 19.03,-12.28 16.29,-34.86 -54.62,-55.74 -38.86,6.69l-63.26 47.52c-1.07,0.9 -5.86,4.3 -7.92,5.69 11.09,-13.76 17.31,-16.75 23.3,-25.15 -9.61,3.95 -32.83,22.46 -43.16,29.37l-43.41 25.97 44.26 -141.85c44.59,-0.13 52.89,-45.05 23.37,-63.4 -24.54,-15.26 -69.82,11.39 -41.5,53.88l-38.93 45.19c-16.88,7.35 -11.87,22.45 -18.33,12.44l-0.16 -0.38c5.38,-3.97 0.25,3.52 6.08,-6.26 1.64,-2.76 0.71,-2.78 1.46,-5.55 -9.34,4.37 -9.06,5.76 -12.91,14.04l-4.97 7c-6.91,5.08 -6.21,5.74 -11,13.17 -4.34,1.3 -8.78,9.52 -16.85,17.97l-7.68 8.03c-0.35,0.31 -1.2,0.91 -1.49,1.15l-3.18 2.09c-8.04,-14.39 -29.79,-107.58 -30.66,-121.43 3.93,15.82 14.61,34.2 19.45,52.18l8.05 16.93c-0.37,-5.09 0.2,-4.58 -1.12,-9.6 -2.43,-9.2 -2.39,-5.37 -3.69,-7.34 -2.72,-16.7 -10.24,-38.44 -15.33,-56.36 -3.81,-13.41 -16.26,-42.2 -11.21,-52.3 3.96,-7.91 9.28,-8.15 11.74,-22.62 1.69,-9.92 -0.38,-19.78 -4.22,-27.46 -18,-35.94 -72.29,-30.59 -82.34,9.67 -7.64,30.57 14.6,33.63 12.19,49.24 -5.12,33.07 -25.08,79.21 -29.69,108.83 7.09,-12.25 15,-41.71 23.26,-54.31 -2.39,33.09 -21.47,79.09 -26.84,113.49 -11.39,-1.51 -18.23,-16.06 -24.14,-22.47 -6.8,-7.37 -7.06,-6.46 -11.7,-12.14 -3.5,-4.28 -4.55,-6.74 -9.38,-10.74 -4.77,-8.65 -6.01,-12.83 -14.93,-16.76 0.62,2.25 1.27,4.98 2.34,6.76 3.12,5.16 1.65,2.02 4.29,4.21l0.26 1.87c-2.66,3.61 3.51,3.14 -2.54,2.83 -1.67,-3.27 -0.19,-2.09 -2.94,-4.92 -3.96,-4.09 -0.04,-0.69 -4.68,-2.13 -8.79,-15.29 -34.29,-35.83 -47.05,-54.32 25.96,-40.12 -13.38,-71.1 -41.3,-53.8 -29.64,18.37 -21.24,63.48 24.84,63.27l41.94 142.5 -78.04 -52.22c-0.49,-0.41 -2.33,-1.27 -2.61,-2.4 -0.76,-3.16 -4.67,1.51 -4.94,1.73 7.5,3.99 5.83,3.66 13.15,10.82 3.86,3.78 7.16,6.48 10.88,11.73l-17.43 -12.48c0,-4.5 1.13,-3.24 -3.22,-3.93l-2.33 0.59c1.76,-4.67 2.33,-3.5 -2.68,-2.67 1.21,-3.89 1.65,-2.64 -2.75,-2.59l-2.74 -1.35c-2.63,-3.03 -1.27,-1.98 -4.02,-4.42 -0.6,-0.53 -2.52,-2.1 -3.21,-2.59 -5.01,-3.58 -3.2,-2.04 -8.58,-4.72l0.72 -0.44 -25.13 -19.54c11.37,-33.46 -12.62,-50.61 -33.43,-35.13 -11.52,8.56 -15.53,33.51 6.2,40.52 3.77,1.22 4.97,1.05 8.61,2 1.24,0.32 3.74,2.04 4.18,1.28 2.13,-3.75 44.53,86.48 51.96,101.59l14.47 28.84c0.41,0.58 1.15,1.36 1.51,1.83l3.44 3.63c-3.66,-21.55 -11.03,-34.94 -15.54,-54.97 5.58,14.72 12.82,27.93 20.7,43.96 8.04,16.33 11.77,36.44 30.45,26.35 0.29,-8.87 -36.51,-89.26 -43.36,-97.38 3.84,-3.76 -0.28,-3.15 6.99,-0.28 0.07,0.13 93.39,75.58 97.05,57.83l-11.89 -66.15c3.94,7.24 6.33,15.72 8.93,23.32l6.52 18.07c2,3.78 2.02,3.43 4.44,5.44l-23.94 -103.7c16.24,12.34 42.29,50.86 48.16,56.63l0.71 -0.85c2.95,5.52 1.76,4.29 5.86,7.06l11.67 17.5c0.15,-0.41 0.54,2.43 1.79,2.2l1.44 -4.2c-3.42,-5.21 -5.15,-9.83 -7.49,-16.22l5.87 5.67c9.89,10.51 18.87,30.23 31.49,35.46 10.58,-14.34 41.17,-139.79 42.31,-165.41l5.9 -0.15c0.38,26.48 31.47,150.63 42.09,165.5 9.85,-3.82 29.68,-33.29 37.35,-40.98 -7.2,19.52 -9.84,13.4 -5.17,19.8 6.65,-13.7 25.22,-30.53 33.65,-45.82 6.61,-5.15 5.59,-5.23 10.56,-13.08zm-235.8 -26.28l-0.22 2.61c-3.76,-1.76 -4.78,0.37 0.22,-2.61zm-0.22 2.61c0.67,0.57 4.69,2.7 4.84,2.81l0.57 0.75c-2.58,2.99 3.04,6.57 -5.35,0.03l-0.06 -3.59zm229.04 4.01c-3.48,2.5 -6.46,9.41 -7.11,5.45 -0.12,-0.74 -0.78,-1.15 -0.74,-1.15l2.47 -4.2c4.81,-6.22 1.33,-1.8 5.26,-4.16l0.12 4.06zm-0.12 -4.06l-0.74 -2.37c6.92,3.48 4.09,1.24 0.74,2.37zm-29.43 162.19c-79.97,-2.15 -146.17,-6.89 -224.08,7.71 -19.89,1.59 -49,12.76 -58,20.59 14.91,-1.81 25.31,-10.27 42.53,-11.76l-25.49 9.94c-7.12,3.04 -0.65,0.3 -7.65,3.12l-16.3 7.69c-26.98,16.97 -1.09,47.43 18.05,37.02 15.91,-8.66 24.13,-14 43.16,-20.92 29.47,-10.7 105.46,-18.43 106.79,-21.48 0.38,-0.89 1.42,-0.53 2.06,-0.92 -34.45,-3.76 -67.02,6.22 -94.38,9.24 10.04,-7.2 28.76,-8.44 41.24,-10.7 2.21,-0.4 4.82,-0.88 6.96,-1.47l6.43 -2.48c7.45,1.17 133.98,0.7 143.39,-0.57 4.48,3.65 10.07,3.54 17.34,4.49 6.03,0.79 11.72,1.82 18.18,3.21 11.63,2.51 23.24,4.91 31.58,9.19 -35,-4.99 -64.13,-13.59 -101.06,-11.44l4.6 2.31c15.63,6.28 -10.81,-2.89 4.7,1.75 0.3,0.09 6.25,1.26 7.03,1.38 77.86,11.92 62.01,3.37 135.46,39.45 21.28,10.45 52.21,-34.26 -2.84,-46.55 8.33,-3.16 8.47,-1.06 13.33,1.24 -8.91,-14.82 -80.76,-30.76 -99.13,-27.3 -7,-3.87 -3.34,-2.52 -13.91,-2.76zm-191.8 14.29l8.53 0.65c5.21,3.94 3.42,0.67 -0.2,2.82 -14.75,0.83 -4.49,0.93 -8.33,-3.48zm194.46 1.72l-8.74 0.8c6.57,-6.64 -0.74,-4.63 13.76,-3.46l2.87 -1.43c-2.11,5.02 4.48,3.52 -7.89,4.09zm-24.93 -2.92c-91.37,-8.87 -138.09,4.17 -158.26,2.49l18.91 -5.16c86.02,-15.76 123.41,1.78 157.46,-1.54l-4.24 3c-12.73,5.11 8.15,-1.22 -4.97,1.48 -0.16,0.04 -8.59,-0.27 -8.91,-0.28zm40.52 2.67l4.67 -0.52c4.52,3.5 -4.96,2.57 8.74,4.39l-20.69 -0.7c3.61,-3.86 -7.06,-3.59 7.27,-3.18zm-207.29 -166.28l-0.15 -0.15 -4.52 -1.33c0.54,-0.42 1.28,-0.75 1.36,-1.52 0.08,-0.81 1.32,-0.58 1.64,-0.97l1.67 3.96zm-152.78 11.41l-0.72 0.44 0.72 -0.44z"/>
  </g>
 </g>
</svg>
