<?xml version="1.0" encoding="UTF-8"?>
<!DOCTYPE svg PUBLIC "-//W3C//DTD SVG 1.1//EN" "http://www.w3.org/Graphics/SVG/1.1/DTD/svg11.dtd">
<!-- Creator: CorelDRAW -->
<svg xmlns="http://www.w3.org/2000/svg" xml:space="preserve" width="0.787402in" height="0.787402in" version="1.1" style="shape-rendering:geometricPrecision; text-rendering:geometricPrecision; image-rendering:optimizeQuality; fill-rule:evenodd; clip-rule:evenodd"
viewBox="0 0 787.4 787.4"
 xmlns:xlink="http://www.w3.org/1999/xlink"
 xmlns:xodm="http://www.corel.com/coreldraw/odm/2003">
 <defs>
  <style type="text/css">
   <![CDATA[
    .fil0 {fill:black}
   ]]>
  </style>
 </defs>
 <g id="Layer_x0020_1">
  <metadata id="CorelCorpID_0Corel-Layer"/>
  <g id="_2505751587984">
   <path class="fil0" d="M191.41 474.76l42.5 42.83c80.21,-80.03 146.61,-155.28 240.67,-239.23 16.93,-13.1 41.68,0.49 37.08,23.66 -2.38,12 -22.9,29.07 -31.92,38.11 -69.96,70.12 -142.6,140.94 -211.39,211.52l42.89 43 298.87 -299.13 -120.3 -120.25 -298.4 299.49z"/>
   <path class="fil0" d="M511.84 153.71c-0.39,3.84 69.15,71.38 77.47,79.75 30.43,30.63 50.19,64.87 75.65,-1.19 16.65,-43.19 -13.54,-82.4 -45.52,-104.36 -34.46,-23.67 -104.98,-0.3 -107.6,25.8z"/>
   <path class="fil0" d="M175.27 497.18c-6.31,8.33 -23.07,55.68 -28.33,68.86 -15.47,38.75 -13.42,26.84 16.65,57.16 30.36,30.63 19.21,31.91 58.4,16.2 12.38,-4.96 60.19,-22.05 67.58,-27.88l-114.29 -114.35z"/>
   <path class="fil0" d="M124.4 624.31c-6.27,10.63 -18.95,36.51 -8.83,46.93 10.58,10.89 36.01,-3.43 47.8,-8.83l-38.97 -38.1z"/>
  </g>
 </g>
</svg>
