<svg width="263" height="914" viewBox="0 0 263 914" fill="none" xmlns="http://www.w3.org/2000/svg">
<path fill-rule="evenodd" clip-rule="evenodd" d="M37.8895 109.662C20.507 172.054 29.7616 252.409 103.18 347.382C-32.7332 252.015 15.3685 63.729 57.3235 0C72.5609 3.23006 164.455 61.9459 218.762 176.561C298.452 390.332 253.726 597.737 214.584 692.988C309.21 395.563 225.192 116.458 63.8524 24.2641C62.647 25.5863 51.4386 61.0328 37.8895 109.662Z" fill="url(#paint0_linear_1306_148)"/>
<path d="M30.7497 338.273C59.5695 427.087 66.3358 441.915 154.712 517.655C115.984 504.571 85.3849 480.373 62.3728 451.51C48.987 569.69 104.002 615.307 142.503 650.258C173.076 678.013 124.268 834.468 116.885 880.411C116.62 882.063 117.12 886.297 119.758 887.576C121.206 888.272 126.532 886.029 126.787 885.422C132.181 872.599 151.837 846.847 165.647 745.399C178.433 651.465 189.649 394.625 172.343 269.078C173.971 273.837 175.952 307.788 193.037 397.316C206.211 517.012 182.281 801.402 166.457 846.126C158.938 875.246 151.154 898.1 107.502 914C103.037 912.502 100.417 896.303 99.7184 876.776C98.8027 851.145 116.705 813.841 124.953 777.098C137.048 723.234 139.889 670.9 126.819 660.951C28.3219 573.284 31.7041 469.069 45.7069 427.918C3.23624 358.376 -6.02972 268.07 3.31891 207.723C3.32315 207.458 3.34856 207.298 3.39097 207.249C3.36764 207.408 3.34436 207.565 3.31891 207.723C3.18109 214.604 15.8818 292.456 30.7497 338.273Z" fill="url(#paint1_linear_1306_148)"/>
<defs>
<linearGradient id="paint0_linear_1306_148" x1="233.241" y1="101.682" x2="15.1789" y2="914" gradientUnits="userSpaceOnUse">
<stop stop-color="#867FE8"/>
<stop offset="0.495755" stop-color="#C491E2"/>
<stop offset="1" stop-color="#5088D0"/>
</linearGradient>
<linearGradient id="paint1_linear_1306_148" x1="233.241" y1="101.682" x2="15.1789" y2="914" gradientUnits="userSpaceOnUse">
<stop stop-color="#867FE8"/>
<stop offset="0.495755" stop-color="#C491E2"/>
<stop offset="1" stop-color="#5088D0"/>
</linearGradient>
</defs>
</svg>
