<?xml version="1.0" encoding="UTF-8"?>
<!DOCTYPE svg PUBLIC "-//W3C//DTD SVG 1.1//EN" "http://www.w3.org/Graphics/SVG/1.1/DTD/svg11.dtd">
<!-- Creator: CorelDRAW -->
<svg xmlns="http://www.w3.org/2000/svg" xml:space="preserve" width="0.787402in" height="0.787402in" version="1.1" style="shape-rendering:geometricPrecision; text-rendering:geometricPrecision; image-rendering:optimizeQuality; fill-rule:evenodd; clip-rule:evenodd"
viewBox="0 0 787.4 787.4"
 xmlns:xlink="http://www.w3.org/1999/xlink"
 xmlns:xodm="http://www.corel.com/coreldraw/odm/2003">
 <defs>
  <style type="text/css">
   <![CDATA[
    .fil0 {fill:black}
   ]]>
  </style>
 </defs>
 <g id="Layer_x0020_1">
  <metadata id="CorelCorpID_0Corel-Layer"/>
  <g id="_2505789048848">
   <g>
    <path class="fil0" d="M122.23 557.89l-2.6 2.74c-0.48,1.52 -12.3,15.26 -14.47,18.24 -30.65,42.07 -31.32,80.27 -36.88,130.54 -1.12,10.11 -2.07,20.27 -3.07,30.4 -0.66,6.69 -4.89,23.98 3.16,26.67 7,2.34 115.93,0.62 132.88,0.62l501.72 -0.01c14.35,-0.01 18.85,1.72 17.15,-14.89 -3.83,-37.43 -6.63,-82.68 -14.64,-118.95 -6.09,-27.61 -29.85,-64.45 -51.5,-82.43 -46.14,-38.33 -79.73,-50.69 -136.96,-63.83 -11.89,-2.73 -18.22,4.71 -10.43,14.44 5.46,6.81 26.77,33.84 23.38,41.87 -3.94,9.33 -19.57,2.75 -27.69,3.78 -11.69,1.48 -5.17,15.66 -3.05,22.72 3.49,11.65 7.34,14.69 -2.99,22.37 -25.43,18.91 -51.2,38.48 -77.01,56.79 -29.21,20.72 -24.04,22.46 -40.46,9.78 -12.55,-9.69 -25.72,-18.99 -38.07,-28.79 -68.02,-53.95 -58.54,-32.06 -51.19,-71.41 2.78,-14.83 -10.4,-11.63 -20.39,-10.89 -27.23,2.03 -12.54,-16.85 -0.03,-35.05 4.54,-6.61 12.26,-12.36 11.8,-20.84 -5.15,-9.01 -12.8,-5.08 -21.76,-3.02 -7.94,1.82 -15.74,3.78 -23.54,6.1 -32.44,9.62 -52.98,18.94 -81.07,36.97l-32.3 26.07z"/>
    <path class="fil0" d="M382.78 28.35c-81.28,6.35 -144.28,72.65 -166.66,147.91 -17.47,58.73 -12.08,85.54 -7.64,141.23 6.66,83.65 -28.87,60.42 -35.17,82.22 -2.93,10.17 4.55,19.83 11.23,26.6 36.42,36.86 69.93,33.96 113.85,11.28 23.79,-12.29 30.05,-23.41 10.3,-45.41 -21.52,-23.96 -42.74,-75.57 -50.21,-107.05 -5.31,-22.39 0.44,-41.48 17.17,-57.21 18.54,-17.43 33.2,-16.34 55.7,-22.99 19.7,-5.82 39.27,-18.01 59.22,-19.93 15.24,-1.46 51.21,3.14 60.79,16.53 7.41,10.37 15.36,43.79 46.96,71.11 7.7,6.65 15.91,10.39 18.16,21.41 3.06,15.02 -9.13,47.18 -15.97,61.32 -4.34,8.97 -9.19,16.5 -14.61,24.8 -16.02,24.52 -42.64,39.48 13.78,64.34 20.59,9.08 44.36,13.24 66.09,5.52 20.47,-7.26 67.08,-44.04 34.79,-61.4 -10.72,-5.76 -15.17,-6.41 -20.41,-18.76 -18.15,-42.75 19.85,-110.1 -17.17,-209.11 -27.12,-72.52 -98.1,-138.84 -180.19,-132.43z"/>
    <path class="fil0" d="M492.67 516.56c3.32,-11.22 -10.49,-19.91 -19.05,-11.96 -7.07,6.57 -11.02,11.94 -19.35,18.07 -41.57,30.54 -100.92,24.99 -135.77,-14.13 -7.1,-7.97 -19.41,-9.65 -22.64,1.43 -5.91,20.24 76.2,84.26 156.63,41.34 10.36,-5.53 36.88,-23.56 40.19,-34.74z"/>
    <polygon class="fil0" points="119.63,560.63 122.23,557.89 "/>
   </g>
  </g>
 </g>
</svg>
