<?xml version="1.0" encoding="UTF-8"?>
<!DOCTYPE svg PUBLIC "-//W3C//DTD SVG 1.1//EN" "http://www.w3.org/Graphics/SVG/1.1/DTD/svg11.dtd">
<!-- Creator: CorelDRAW -->
<svg xmlns="http://www.w3.org/2000/svg" xml:space="preserve" width="0.787402in" height="0.787402in" version="1.1" style="shape-rendering:geometricPrecision; text-rendering:geometricPrecision; image-rendering:optimizeQuality; fill-rule:evenodd; clip-rule:evenodd"
viewBox="0 0 787.4 787.4"
 xmlns:xlink="http://www.w3.org/1999/xlink"
 xmlns:xodm="http://www.corel.com/coreldraw/odm/2003">
 <defs>
  <style type="text/css">
   <![CDATA[
    .fil0 {fill:#9999FF}
   ]]>
  </style>
 </defs>
 <g id="Layer_x0020_1">
  <metadata id="CorelCorpID_0Corel-Layer"/>
  <g id="_2505726657120">
   <path class="fil0" d="M254.98 123.98l0.69 -0.9 -0.69 0.9c-4.57,3.61 -6.88,8.02 -9.69,14.34 -10.95,24.65 -15.78,14.32 -25.02,23.06 -4.67,4.41 -8.16,8.18 -14.7,2.26 -0.83,-4.82 0.53,-4.26 1.03,-8.29 -5.11,-4.7 -7.02,-4.01 -14.92,-5.73 -24.51,-5.34 4.85,-23.27 12.82,-28.89 3.96,-2.79 8.16,-5.21 12.71,-7.98 7.19,-4.37 29.98,-18.91 34.82,-26.56 -3.89,1.2 -0.08,-0.19 -3.69,1.18 -11.71,4.48 -24.3,12.89 -34.87,19.09 -6.32,3.71 -11.78,7.04 -17.82,11.16l-16.33 11.91c-2.67,1.94 -6.02,4.31 -8.43,6.49l-22.16 20.98c-2.69,2.76 -4.54,5.01 -7.19,7.72l-10.44 11.14c-1.16,1.54 -1.61,2.35 -2.89,3.73 -10.01,10.71 -16.68,21.42 -24.66,33.41 -23.57,35.42 -47.34,92.67 -51.27,135.09 4.73,1.6 8.28,6.44 10.96,10.48 0.89,1.35 1.59,1.94 2.52,3.28 19.44,28.06 36,7.78 63.81,34.87 8.74,8.51 15.81,17.66 27.31,24.91 25.88,16.32 10.16,29.01 3.06,47.56 -5.52,14.4 -0.39,21.57 4.99,33.11 7.7,16.54 21.5,37.19 37.72,46.12 27.43,15.11 27.39,15.17 33.98,49.65 2.17,11.37 5.59,22.18 8.73,32.73 6.21,20.92 14.44,42.54 25.15,58.66 6.04,9.1 11.78,14.09 22.29,19.15 7.95,3.82 21.96,8.94 30.84,10.34l-12.17 -10.72c-9.28,-7.86 -16.12,-19.31 -13.36,-32.91 1.59,-7.83 5.13,-8.55 9.63,-12.72 13.02,-12.07 -11.55,-15.35 9.95,-30.7 12.72,-9.09 13.83,-10.85 12.73,-31.28 -0.9,-16.65 12.26,-15.88 25,-21.31 13.39,-5.72 14.44,-14.7 11.76,-31.24 -4.41,-27.14 21.13,-27.31 21.38,-45.32 0.1,-7.37 -4.24,-11.94 -7.8,-14.78 -17.8,-14.15 -52,-6.18 -64.5,-27.46 -5.7,-9.71 -7.9,-24.04 -18.34,-27.39 -9.91,-3.17 -26.1,7.91 -35.43,-6.75 -2.49,-3.91 -6.88,-11.69 -9.61,-13.64 -6.02,-4.31 -12.7,-1.23 -20.42,-1.91 -12.51,-1.09 -16.15,-16.6 -33.3,-7.78 -5.42,2.79 -8.96,6.47 -13.81,9.43 -11.65,7.12 -23.9,5.83 -30.87,-4.95 -3.91,-6.05 -1.1,-12.8 -3.29,-19.2 -2.31,-3.3 -19.47,-1.56 -23.71,-12.76 -1.83,-4.84 -0.12,-10.11 1.56,-14.45 0.9,-2.32 3.16,-8.17 2.83,-10.83 -1.11,-8.97 -15.52,5.41 -19.49,7.44 -21.28,10.87 -40.11,-17.34 -21.91,-48.44 3.72,-6.36 6.16,-13.16 15.19,-14.69 11.14,-1.88 8.1,3.44 25.99,-3.75 23.52,-9.45 26.1,15.39 34.79,21.39 3.65,-15.05 -0.99,-30.54 9.43,-39.37 9.7,-8.22 27.51,-12.02 31.44,-16.37 -1.33,-9.23 -0.99,-17.07 5.15,-20.89 12.04,-7.48 18.13,-2.53 22.58,-6.41 4.15,-3.61 1.34,-11.25 11.24,-17.74 6.26,-4.11 11.57,-3.28 17.56,-4.28 3.97,-0.67 3.79,-1.36 4.52,-2.09 -1.67,-3.43 -3.57,-3.07 -5.72,-6.11 -6.07,-8.57 8.29,-14.52 16.47,-16.04 10.37,-1.93 35.47,1.29 33.01,-12.67 -3.92,-4.87 -9.26,-2.33 -14.56,-5.45 -5.81,-3.42 -6.97,-8.43 -8.63,-11.02 -0.52,0.31 0.35,5.02 -1.7,-0.8 -0,-0.02 -0.26,-2.7 -0.27,-2.71 -0.21,-3.05 -0.38,-4.78 -0.07,-7.85l-2.74 -1.22c-2.17,1.53 -11.69,1.08 -16.83,0.24 0.01,0.09 1.59,0.41 -1.63,-1.85 -3.6,-2.52 -6.92,-3.26 -3.52,-15.1 0.96,1.08 0.9,-1.43 0.8,1.45l0.87 -1.5 -1.5 -2.74c-0.22,0.02 -2.54,0.22 -2.55,0.22 -2.82,-0.17 0.94,0.93 -1.42,-0.48l-1.05 0.8 -0.8 0.51 0.8 -0.51 -2.66 3.4c-0.11,-0.18 -0.41,0.29 -0.61,0.44 0.79,-1.26 0.22,-1.38 0.92,-2.13z"/>
   <path class="fil0" d="M709.87 273.2c6.5,18.43 7.45,19.83 12.74,39.67 19.44,72.96 11.65,155.47 -18.62,223.52 -9.08,20.4 -26.51,48.98 -39.87,65.43 -0.9,-9.67 1.16,-12.3 -2.84,-22.1 -2.42,-5.91 -5.65,-11.25 -7.39,-17.5 -6.76,-24.18 17.24,-36.85 -5.32,-64.23l-8.14 -10.94c-11.47,-16.17 5.48,-25.66 -4.71,-40.9 -4.36,-6.51 -7.22,-8.11 -11.93,-12.96 -17.33,-17.85 -41.05,-2.3 -55.5,3.24 -6.52,2.5 -14.02,4.31 -21.37,1.52 -6.12,-2.32 -10.21,-5.67 -15,-9.88 -5.55,-4.88 -26.39,-19.66 -28.34,-22.29 -9.62,-12.93 1.46,-27.25 2.1,-41.48 0.72,-15.98 -13.17,-28.19 0.86,-39.37 11.76,-9.35 14.95,-9 26.11,-23.63 8.59,-11.27 8.91,-19.08 26.13,-24.52 6.43,-2.03 12.59,-3.63 19.08,-5.8 6.53,-2.18 12.19,-4.2 19.33,-5.58 29.11,-5.62 52.7,30.33 76.46,21.73 3.96,-1.43 4.92,-2.49 6.87,-5.45 6.09,-9.2 7.15,-7.81 29.34,-8.49zm-165 -23.94c-7,-3.32 -15.45,-9.22 -18.78,-15.23 -4.3,-7.76 -0.24,-21.28 4.25,-25.44 4.98,-4.61 15.44,-7.04 21.64,-12.3 8.09,-6.85 5.02,-17.7 9.94,-24.14 1.69,-2.22 7.98,-4.3 10.76,-6.67 8.74,-7.43 13.07,-31.2 4.39,-37.1 -10.21,-6.94 -15.31,-3.94 -20.73,5.82 -2.96,5.34 -2.88,6.69 -7.99,9.52 -9.59,5.31 -21.63,5.94 -20.88,-6.65 0.31,-5.24 4.11,-6.22 8.92,-7.89 15,-5.19 11.99,-5.98 6.82,-18.11 6.04,-1.69 11.36,-6.86 13.01,-12.45 8.57,2.48 48.33,30.68 57.85,40.01 14.68,14.37 14.44,9.94 28.98,27.39 1.51,1.81 2.36,2.06 3.82,3.66 2.23,2.44 4.83,6.14 6.85,8.89 1.22,1.66 2.56,2.66 3.93,4.34 5.31,6.51 26.63,37.75 28.44,43.08 -8.17,3.23 -15.3,7.96 -26.43,7.1 -20.94,-1.64 -34.29,-32.95 -75.24,-6.04 -14.52,9.54 -18.06,32.4 -39.56,22.19zm-289.89 -125.28l0.69 -0.9 0.86 -0.3 0.8 -0.51 1.05 -0.8c2.29,-1.1 3.28,-1.69 6.31,-1.4l-0.84 4.39 -0.87 1.5c-0.7,8.18 -0.18,11.87 7.19,14.12 7.41,2.26 11.2,0.28 17.42,-1.07l1.36 14.8c1.66,2.59 2.81,7.59 8.63,11.02 5.3,3.12 10.64,0.57 14.56,5.45 2.46,13.96 -22.64,10.74 -33.01,12.67 -8.18,1.52 -22.54,7.47 -16.47,16.04 2.15,3.03 4.05,2.68 5.72,6.11 -0.73,0.73 -0.55,1.43 -4.52,2.09 -5.99,1 -11.3,0.18 -17.56,4.28 -9.9,6.49 -7.1,14.13 -11.24,17.74 -4.45,3.87 -10.54,-1.08 -22.58,6.41 -6.14,3.81 -6.48,11.66 -5.15,20.89 -3.93,4.35 -21.74,8.15 -31.44,16.37 -10.42,8.83 -5.78,24.32 -9.43,39.37 -8.69,-6 -11.27,-30.84 -34.79,-21.39 -17.89,7.19 -14.85,1.87 -25.99,3.75 -9.03,1.53 -11.47,8.33 -15.19,14.69 -18.19,31.1 0.63,59.31 21.91,48.44 3.97,-2.03 18.39,-16.41 19.49,-7.44 0.33,2.67 -1.93,8.51 -2.83,10.83 -1.68,4.35 -3.39,9.61 -1.56,14.45 4.24,11.2 21.4,9.46 23.71,12.76 2.19,6.4 -0.62,13.15 3.29,19.2 6.96,10.79 19.22,12.07 30.87,4.95 4.85,-2.96 8.39,-6.65 13.81,-9.43 17.15,-8.82 20.79,6.69 33.3,7.78 7.72,0.67 14.41,-2.4 20.42,1.91 2.73,1.95 7.12,9.73 9.61,13.64 9.32,14.66 25.52,3.58 35.43,6.75 10.44,3.34 12.64,17.67 18.34,27.39 12.49,21.28 46.7,13.31 64.5,27.46 3.56,2.83 7.91,7.4 7.8,14.78 -0.25,18.01 -25.79,18.18 -21.38,45.32 2.69,16.54 1.63,25.52 -11.76,31.24 -12.74,5.44 -25.9,4.67 -25,21.31 1.1,20.43 -0.01,22.19 -12.73,31.28 -21.5,15.35 3.07,18.63 -9.95,30.7 -4.5,4.18 -8.04,4.9 -9.63,12.72 -2.76,13.6 4.07,25.05 13.36,32.91l12.17 10.72c-8.89,-1.39 -22.89,-6.52 -30.84,-10.34 -10.51,-5.06 -16.25,-10.05 -22.29,-19.15 -10.7,-16.12 -18.94,-37.74 -25.15,-58.66 -3.13,-10.55 -6.56,-21.36 -8.73,-32.73 -6.59,-34.48 -6.55,-34.54 -33.98,-49.65 -16.22,-8.94 -30.02,-29.59 -37.72,-46.12 -5.38,-11.54 -10.5,-18.72 -4.99,-33.11 7.1,-18.55 22.82,-31.23 -3.06,-47.56 -11.5,-7.25 -18.57,-16.4 -27.31,-24.91 -27.81,-27.09 -44.37,-6.81 -63.81,-34.87 -0.93,-1.34 -1.63,-1.94 -2.52,-3.28 -2.68,-4.04 -6.23,-8.89 -10.96,-10.48 3.93,-42.42 27.7,-99.67 51.27,-135.09 7.98,-11.99 14.65,-22.7 24.66,-33.41 1.28,-1.37 1.73,-2.19 2.89,-3.73l10.44 -11.14c2.65,-2.71 4.5,-4.96 7.19,-7.72l22.16 -20.98c2.4,-2.18 5.76,-4.56 8.43,-6.49l16.33 -11.91c6.04,-4.12 11.5,-7.45 17.82,-11.16 10.56,-6.2 23.15,-14.61 34.87,-19.09 3.61,-1.37 -0.2,0.02 3.69,-1.18 -4.83,7.65 -27.63,22.19 -34.82,26.56 -4.55,2.76 -8.76,5.19 -12.71,7.98 -7.98,5.62 -37.33,23.55 -12.82,28.89 7.9,1.72 9.81,1.03 14.92,5.73 -0.5,4.03 -1.86,3.47 -1.03,8.29 6.54,5.92 10.03,2.15 14.7,-2.26 9.24,-8.74 14.07,1.59 25.02,-23.06 2.81,-6.32 5.11,-10.73 9.69,-14.34zm271.88 -39.86l23.5 10.29c-1.36,3.13 0.37,1.13 -2.55,3.18 -2.93,2.06 -6.17,3.99 -9.66,4.85 -6.63,4.94 -13.12,5.69 -1.58,17.06 -8.22,2.85 -16.65,4.53 -18.54,13.8 -3.76,18.49 14.86,32.36 35.42,18.79 12.35,-8.15 9.12,-14.78 15.69,-17.21 5.01,2.72 7.36,12.92 2.62,18.93 -3.5,4.43 -11.37,7.09 -15.82,10.75 -5.26,4.33 -4.59,12.02 -7.22,19.23 -2.84,7.78 -7.89,8.19 -15.56,11.89 -22.69,10.94 -29.74,45.33 7.26,62.17 35.45,16.14 34.01,-25.08 67.07,-31.04 16.35,-2.94 27.5,7.81 39.78,12.88 18.82,7.76 28.64,-0.67 44,-4.79 3.1,4.81 11.59,21.69 13.02,28.19 -6.84,1.15 -16.47,1.24 -22.35,3.52 -16.54,6.4 2.57,25.53 -50.5,-3.56 -25.88,-14.18 -35.24,-7.46 -61.33,0.26 -32.39,9.58 -27.01,8.35 -45.9,32.84 -10.7,13.88 -19.85,17.45 -27.05,25.23 -15.26,16.5 -2.61,26.93 -1.54,38.74 1.52,16.81 -10.6,27.54 -3.68,44.93 5.23,13.15 17.17,17.31 26.94,25.21 8.74,7.06 17.91,17.56 33.63,18.69 30.47,2.2 51.73,-33.9 74.53,2.54 6.67,10.66 -8.73,20.64 5.64,41.63 7.8,11.39 18.53,20.93 14.73,36.56 -1.78,7.3 -4.74,11.85 -5.11,20.33 -0.36,8.2 1.38,15.49 4.4,21.99 2.29,4.93 6.95,13.05 7.67,18.9 0.81,6.57 -0.72,17.8 -0.63,25.48 -1.8,6.61 -46.63,46.52 -59.07,55.42 -15.31,10.96 -18.61,12.88 -34.56,22.66 -11.67,7.15 -25.67,13.39 -39.02,19.03 -26.54,11.21 -58.99,19.91 -91.21,23.41 -32.08,3.49 -76.02,3.06 -105.51,-4.63l-25.11 -6.03c-3.33,-0.86 -5.55,-1.09 -8.02,-3.06 -8.08,0.35 -46.01,-17.13 -53.96,-21.15 -20.87,-10.52 -29.11,-16.37 -47.45,-28.88 -27.43,-18.71 -56.68,-49.39 -76.48,-76.1 -21.21,-28.61 -38.24,-61.45 -51.13,-101.39 -9.98,-30.91 -14.36,-67.21 -13.79,-100.67l1.55 -26.59c0.15,-1.42 0.2,-3.42 0.39,-4.72l1.61 -3.77c5.51,6.98 12.65,17.72 17.95,21.02 14.41,8.96 29.31,6.16 44.11,15.61 11.48,7.33 18.13,19.02 30.93,28.77 12.89,9.82 19.04,11.56 14.4,23.3 -3.65,9.23 -10.33,17.3 -11.69,28.04 -1.93,15.34 16.73,46.37 23.36,55.37 31.72,43.11 46.89,14.92 54.94,63.56 5.01,30.23 24.59,93.7 46.82,112.35 12.5,10.49 20.02,10.76 25.02,14.18 10.32,2.31 17.23,6.56 28.96,7.7 9.26,1.06 13.91,-3.92 8.74,-11.6 -7.51,-11.14 -21.78,-17.07 -25.59,-27.56 -9.05,-24.91 14.92,-15.32 11.12,-37.61 -2.17,-12.78 -2.1,-10.54 6.71,-16.88 18.23,-13.12 11.49,-26.8 13.2,-39.76 17.57,-6.96 42.07,-15.43 37.26,-41.74 -3.14,-17.17 -2.58,-18.54 7.28,-28.2 5.22,-5.11 15.03,-14.94 12.8,-27.78 -1.95,-11.25 -9.55,-18.19 -17.45,-22.32 -9.04,-4.73 -20.31,-7.09 -31.41,-9.16 -13.11,-2.44 -20.89,-4.74 -26.04,-13.84 -5.61,-9.93 -6.48,-18.99 -14.97,-25.64 -12.66,-9.9 -25.37,-0.42 -33.83,-4.34 -7.72,-3.59 -10.39,-18 -19.16,-21.39 -6.1,-2.36 -12.3,-0.49 -18.83,-0.77 -17.04,-0.73 -19.36,-20.2 -44.04,-5.49 -5.16,3.08 -17.97,16.2 -26.42,10.07 -9.52,-6.91 2.2,-23.41 -12.92,-27.62 -5.33,-1.49 -12.49,-0.93 -15.41,-4.61 -5.95,-7.52 14.17,-25.04 -2.85,-35.24 -2.72,-1.63 -5.9,-1.03 -9,-1.42l-20.4 13.47c-10.17,2.13 -14.33,-11.86 -12.22,-21.53 1.36,-6.27 6.88,-19.27 10.53,-22.64 4.42,-4.07 10.46,1.17 29.83,-5.12 3.92,-3.91 9.94,-2.13 12.78,0.83 3.11,3.25 5.28,7.09 7.8,11.3 2.08,3.5 5.64,8.94 8.87,10.23 6.16,2.46 10.48,-3.39 12.07,-7.21 3.91,-9.38 0.02,-25.51 5.51,-33.52 5.26,-7.68 15.45,-9.11 25.65,-13.32 20.81,-8.58 6.04,-15.52 10.41,-24.44 4.19,-8.55 19.54,0.26 27.32,-11.56 3.06,-4.64 2.55,-8.65 6.66,-12.48 6.22,-5.78 22.87,-0.61 27.53,-11.43 2.71,-6.3 -2.26,-10.94 -4.38,-14.32 10.08,-8.4 37.17,1.72 46.91,-15.25 3.17,-5.52 0.9,-13.87 -1.95,-17.21 -3.39,-3.97 -8.99,-3.81 -14.89,-5.83 -6.23,-2.14 -6.15,-7.88 -5.84,-15.61 0.96,-23.67 -13.57,-6.17 -25.73,-11.77 0.72,-2.65 6.74,-16 -4.69,-19.24 -13.02,-3.69 -27.55,11.57 -33.02,25.77 -1.56,4.04 -2.57,7.86 -5.39,9.56 -2.27,1.37 -8.4,3.63 -10.76,3.76 -0.53,0.64 -0.14,3.72 -4.09,0.03 -2.44,-2.28 -2.88,-2.99 -6.76,-4.85 -5.44,-2.6 -8.61,-2.4 -11.47,-4.92 1.32,-2.47 0.27,-1.23 2.47,-3.13 5.76,-4.98 22.04,-14.38 29.39,-18.71l5.57 -3.53c1.83,-1.18 3.39,-2.19 6.1,-3.21 0.19,-0.87 -0.3,-0.32 0.91,-1.32 1.77,-1.47 2.86,-1.32 6.73,-4.94l22.18 -23.43c5.99,-6.87 7.1,-6.18 19.68,-10.17 7.83,-2.48 15.85,-5.48 23.96,-7.06 6.85,10.22 11.35,5.93 21.98,10.78 -5.01,5.49 -12.9,6.32 -14.22,16.59 -1.21,9.44 4.11,18.11 8.61,22.33 19.32,18.09 23.94,-2.7 33.8,-14.06 17.11,-19.7 33.61,-9.77 44.18,-17.23 6.82,-4.82 6.98,-9.61 17.01,-13.69 7.77,-3.16 16.42,-4.26 20.48,-10.09 13.52,1.14 31.13,6.8 43.28,10.63 6.86,2.17 35.64,11.69 38.49,14.75zm-201.5 -22.38c24.39,-8.29 74.61,-6.41 100.81,-4.97l-3.65 1.79c-12.21,4.39 -10.62,7.06 -16.65,13.15 -7.55,7.62 -31.27,0.93 -48.6,20.16 -7.36,8.17 -11.53,18.86 -15.32,18.72 -3.83,-1.36 -10.28,-7.92 -11.29,-12.78 -1.49,-7.19 5.98,-10.81 9.24,-14.14 17.09,-17.43 -10.19,-19.7 -14.54,-21.93zm39.09 -17.8c-49.59,3.52 -98.79,19.05 -137.2,39.82 -21.1,11.41 -35.71,20.19 -54.13,34.6l-11.88 9.66c-12.31,10.01 -18.06,15.21 -28.67,26.92l-22.72 27.02c-1.11,1.42 -1.26,1.91 -2.46,3.38 -16.73,20.44 -38.55,62.41 -47.33,85.33 -17.39,45.41 -26.76,98.65 -23.18,152.56 4.37,65.78 24.36,114.56 55.23,165.23 1.53,2.51 2.8,3.74 4.47,6.29 1.03,1.57 1.01,2 2.16,3.67l7.16 9.42c13.62,16.71 19.99,25.81 36.45,41.49 4.08,3.89 7.69,6.21 11.83,10.54l24.26 19.7c27.59,19.62 51.61,34.46 85.4,47.27 101.7,38.57 211.45,29.26 305.4,-24.1 4.76,-2.7 9.42,-6.06 13.83,-8.51 4.61,-2.56 8.64,-5.91 13.41,-8.99l53.68 -45.83c0.59,-0.68 0.47,-0.55 1.13,-1.35 0.63,-0.76 0.87,-1.07 1.52,-1.83l3.83 -4.46c0.11,-0.12 0.3,-0.28 0.42,-0.4 0.11,-0.12 0.29,-0.3 0.4,-0.42l26.62 -34.76 16.8 -27.17c2.91,-5.04 5.16,-9.35 7.77,-14.59 51.9,-104.2 49.38,-234.64 -11.69,-334.51 -9.8,-16.02 -19.74,-31.63 -31.88,-46.06l-15.28 -17.91c-4.42,-4.35 -6.94,-7.48 -10.92,-11.48 -15.57,-15.67 -43.61,-37.61 -61.78,-48.48 -64.42,-38.52 -132.67,-57.7 -212.67,-52.03z"/>
   <path class="fil0" d="M709.87 273.2c-22.19,0.67 -23.26,-0.71 -29.34,8.49 -1.96,2.96 -2.92,4.02 -6.87,5.45 -23.76,8.6 -47.34,-27.35 -76.46,-21.73 -7.14,1.38 -12.8,3.4 -19.33,5.58 -6.49,2.17 -12.65,3.77 -19.08,5.8 -17.22,5.44 -17.54,13.25 -26.13,24.52 -11.16,14.64 -14.35,14.28 -26.11,23.63 -14.03,11.17 -0.14,23.38 -0.86,39.37 -0.64,14.24 -11.72,28.55 -2.1,41.48 1.95,2.63 22.79,17.41 28.34,22.29 4.79,4.21 8.88,7.56 15,9.88 7.35,2.78 14.84,0.98 21.37,-1.52 14.45,-5.55 38.17,-21.1 55.5,-3.24 4.7,4.84 7.57,6.44 11.93,12.96 10.19,15.24 -6.76,24.72 4.71,40.9l8.14 10.94c22.56,27.38 -1.44,40.06 5.32,64.23 1.75,6.25 4.98,11.59 7.39,17.5 4,9.8 1.94,12.43 2.84,22.1 13.36,-16.46 30.79,-45.03 39.87,-65.43 30.28,-68.05 38.07,-150.56 18.62,-223.52 -5.29,-19.84 -6.24,-21.24 -12.74,-39.67z"/>
   <path class="fil0" d="M543.2 111.09c5.17,12.13 8.19,12.92 -6.82,18.11 -4.81,1.67 -8.61,2.65 -8.92,7.89 -0.75,12.59 11.29,11.96 20.88,6.65 5.11,-2.83 5.03,-4.18 7.99,-9.52 5.42,-9.76 10.52,-12.76 20.73,-5.82 8.68,5.9 4.35,29.67 -4.39,37.1 -2.79,2.37 -9.07,4.45 -10.76,6.67 -4.92,6.44 -1.84,17.29 -9.94,24.14 -6.2,5.26 -16.66,7.68 -21.64,12.3 -4.49,4.15 -8.55,17.68 -4.25,25.44 3.33,6.01 11.78,11.91 18.78,15.23 21.51,10.21 25.04,-12.65 39.56,-22.19 40.95,-26.91 54.3,4.4 75.24,6.04 11.13,0.87 18.26,-3.87 26.43,-7.1 -1.81,-5.33 -23.13,-36.57 -28.44,-43.08 -1.37,-1.68 -2.7,-2.68 -3.93,-4.34 -2.02,-2.75 -4.62,-6.46 -6.85,-8.89 -1.46,-1.6 -2.31,-1.85 -3.82,-3.66 -14.54,-17.45 -14.3,-13.02 -28.98,-27.39 -9.52,-9.33 -49.29,-37.52 -57.85,-40.01 -1.65,5.59 -6.97,10.76 -13.01,12.45z"/>
   <path class="fil0" d="M325.36 61.74c4.36,2.22 31.64,4.49 14.54,21.93 -3.26,3.33 -10.73,6.95 -9.24,14.14 1.01,4.86 7.46,11.41 11.29,12.78 3.79,0.14 7.96,-10.55 15.32,-18.72 17.33,-19.23 41.05,-12.54 48.6,-20.16 6.03,-6.08 4.44,-8.76 16.65,-13.15l3.65 -1.79c-26.2,-1.44 -76.41,-3.32 -100.81,4.97z"/>
   <path class="fil0" d="M125.97 336.89c-4.37,-0.38 -3.79,0.89 -6.17,2.62 -3.02,2.19 -1.65,-0.19 -5.48,3.66 -1.81,1.81 -9.76,7.47 -13.2,5.57 -0.48,-0.26 0.41,-0.58 -1.92,-2.28 -2.97,-2.17 -0.51,2.66 -2.62,-3.07 -3.91,-10.62 -1.92,-17.89 3.53,-27.72 3.97,-7.16 3.15,-9.41 13.79,-9.44 4.03,-0.01 7.11,0.52 10.94,-0.78 0.48,-0.17 3.02,-1.12 4.14,-1.56 1.24,-0.48 1.34,-0.49 2.32,-1.08l1.8 -1.27c0.16,-0.12 0.41,-0.31 0.62,-0.48 -19.37,6.3 -25.42,1.05 -29.83,5.12 -3.65,3.37 -9.17,16.37 -10.53,22.64 -2.1,9.67 2.06,23.67 12.22,21.53l20.4 -13.47z"/>
   <path class="fil0" d="M218.58 149.33c-3.89,-1.19 -2.78,-1.48 -4.04,-3.05l-8.5 -5.32c-2.71,-0.38 -3.29,0.16 -7.02,-1.06 0.75,-3 0.28,-2.26 6.44,-6.57 1.44,-1 1.77,-0.95 3.1,-1.9 4.05,-2.89 6.71,-4.76 11.45,-6.78l19.76 -13.62c-2.7,1.02 -4.27,2.03 -6.1,3.21l-5.57 3.53c-7.35,4.33 -23.63,13.73 -29.39,18.71 -2.2,1.9 -1.15,0.66 -2.47,3.13 2.87,2.52 6.03,2.31 11.47,4.92 3.89,1.86 4.32,2.57 6.76,4.85 3.95,3.69 3.56,0.61 4.09,-0.03z"/>
   <path class="fil0" d="M288.94 153.81l-1.36 -14.8c-6.22,1.35 -10.02,3.33 -17.42,1.07 -7.37,-2.26 -7.88,-5.94 -7.19,-14.12 0.1,-2.88 0.16,-0.37 -0.8,-1.45 -3.4,11.84 -0.08,12.58 3.52,15.1 3.22,2.26 1.64,1.93 1.63,1.85 5.15,0.84 14.67,1.29 16.83,-0.24l2.74 1.22c-0.31,3.07 -0.14,4.81 0.07,7.85 0,0.02 0.26,2.7 0.27,2.71 2.05,5.82 1.19,1.11 1.7,0.8zm-30.57 -32.34c2.36,1.4 -1.41,0.31 1.42,0.48 0.01,0 2.33,-0.21 2.55,-0.22l1.5 2.74 0.84 -4.39c-3.03,-0.29 -4.02,0.3 -6.31,1.4zm-1.85 1.31l-0.86 0.3 -0.69 0.9c-0.7,0.75 -0.13,0.87 -0.92,2.13 0.2,-0.15 0.5,-0.62 0.61,-0.44l2.66 -3.4 -0.8 0.51z"/>
   <path class="fil0" d="M291.23 723.17c2.47,1.97 4.69,2.2 8.02,3.06l25.11 6.03 2.4 -2.47c-11.73,-1.15 -18.64,-5.39 -28.96,-7.7 1.37,2.23 -1.07,0.35 2.59,2.31 0.48,0.26 1.89,0.78 2.61,1.17 -4.44,-0.79 -7.47,-2.54 -11.78,-2.39z"/>
   <path class="fil0" d="M538.15 102.44c3.49,-0.86 6.73,-2.79 9.66,-4.85 2.93,-2.06 1.19,-0.06 2.55,-3.18l-23.5 -10.29c0.17,0.18 0.44,0.19 0.56,0.52 0.12,0.36 1.15,0.88 1.16,0.89l4.59 2.98c1.73,0.86 8.2,1.77 4.17,3.37 6.09,0.69 0.86,-0.24 4.51,1.97 3.19,1.93 2.07,0.17 4.05,3.53 -2.31,1.48 -4.15,1.52 -6.34,3.52l-1.39 1.54z"/>
  </g>
 </g>
</svg>
