<?xml version="1.0" encoding="UTF-8"?>
<!DOCTYPE svg PUBLIC "-//W3C//DTD SVG 1.1//EN" "http://www.w3.org/Graphics/SVG/1.1/DTD/svg11.dtd">
<!-- Creator: CorelDRAW -->
<svg xmlns="http://www.w3.org/2000/svg" xml:space="preserve" width="0.787402in" height="0.787402in" version="1.1" style="shape-rendering:geometricPrecision; text-rendering:geometricPrecision; image-rendering:optimizeQuality; fill-rule:evenodd; clip-rule:evenodd"
viewBox="0 0 787.4 787.4"
 xmlns:xlink="http://www.w3.org/1999/xlink"
 xmlns:xodm="http://www.corel.com/coreldraw/odm/2003">
 <defs>
  <style type="text/css">
   <![CDATA[
    .fil0 {fill:black}
   ]]>
  </style>
 </defs>
 <g id="Layer_x0020_1">
  <metadata id="CorelCorpID_0Corel-Layer"/>
  <g id="_2505826684576">
   <path class="fil0" d="M164.12 531.5c-2.81,-61.24 -0.05,-127.93 -0.28,-189.84 -0.07,-19.24 0.57,-26.26 21.84,-23.36 35.24,4.81 66.47,33.76 68.66,74.37 0.83,15.45 -0.42,31.44 0.15,46.83 0.7,18.97 20.92,17.49 22.59,2.72l0.1 -284.73c0,-33.27 -6.18,-63.15 20.03,-74.92 12.97,-5.82 27.08,-2.19 36,4.75 9.72,7.57 12.04,19.37 12,36.17 -0.14,63.27 -0.01,126.56 -0.01,189.83 0,15.26 -0.61,31.74 -0.05,46.85 0.7,18.97 20.92,17.49 22.59,2.72 2.96,-26.03 -6.73,-68.81 6.69,-88.34 14.78,-21.52 49.95,-16.82 59.22,8.43 6.53,17.79 -3.83,79.87 6.48,88.45 5.22,4.34 12.15,2.6 15.54,-1.44 10.87,-12.95 -10.18,-84.14 16.5,-102.5 11.06,-7.61 24.52,-9.04 37.19,-2.15 30.3,16.49 12.56,79.11 17.66,100 1.3,5.33 7,10.48 14.26,8.17 12.78,-4.07 6.03,-26.35 9.03,-39.33 5.97,-25.89 37.45,-37.94 57.23,-18.27 15.18,15.1 9.67,59.67 9.67,85.26 0,54.03 5.44,132.66 -9.57,180.26 -15.08,47.83 -49.24,84.46 -84.38,105.47 -51.9,31.03 -95.68,27.6 -162.48,27.37 -76.9,-0.27 -144.17,-40.54 -177.07,-107.72 -10.51,-21.47 -18.32,-47.48 -19.59,-75.05zm90.35 -199.34c-15.76,-12.02 -25.93,-31.46 -67.25,-36.53 -48.26,-5.92 -46.03,30.31 -46.03,55.95 0,34.48 0,68.94 0,103.42 0,64.66 -5.09,119.31 29.77,175.65 16.64,26.89 25.15,35.85 46.82,55.2 37.93,33.87 88.04,51.09 154.33,51.07 73.52,-0.02 117.47,0.43 170.99,-35.81 36.92,-24.99 71.09,-62.3 87.73,-117.76 13.43,-44.75 9.03,-144.89 9.03,-196.34 0,-35.84 5.05,-64.96 -16.67,-86.74 -7.56,-7.57 -19.41,-15 -34.5,-16.33 -18.91,-1.67 -27.11,4.6 -39.52,11.59 -0.92,-27.91 -16.29,-46.4 -37.33,-53.94 -37.22,-13.33 -56.9,13.43 -64.64,18.77 -5.5,-4.09 -7.74,-8.35 -14.7,-13.06 -26.99,-18.24 -48.34,-5.53 -64.41,2.13 -1.94,-33.54 2.32,-124.08 -0.96,-144.79 -5.82,-36.75 -51.24,-63.75 -87.42,-38.12 -13.42,9.5 -24.74,24.26 -25.17,48.43 -1.24,70.7 0.83,145.38 -0.06,217.22z"/>
   <path class="fil0" d="M318.65 511.44c-10.81,5.19 -7.45,19.11 -7.45,32.81l-0.01 79.34c-0.06,10.75 1.06,27.93 15.76,21.52 9.8,-4.27 6.89,-21.33 6.89,-32.86l0.01 -79.34c0.06,-10.51 -1.39,-28.11 -15.2,-21.47z"/>
   <path class="fil0" d="M454.65 511.44c-10.81,5.19 -7.45,19.11 -7.45,32.81l-0.01 79.34c-0.06,10.75 1.06,27.93 15.76,21.52 9.8,-4.27 6.89,-21.33 6.89,-32.86l0.01 -79.34c0.06,-10.51 -1.39,-28.11 -15.2,-21.47z"/>
   <path class="fil0" d="M386.65 511.44c-10.81,5.19 -7.45,19.11 -7.45,32.81l-0.01 79.34c-0.06,10.75 1.06,27.93 15.76,21.52 9.8,-4.27 6.89,-21.33 6.89,-32.86l0.01 -79.34c0.06,-10.51 -1.39,-28.11 -15.2,-21.47z"/>
  </g>
 </g>
</svg>
