<?xml version="1.0" encoding="UTF-8"?>
<!DOCTYPE svg PUBLIC "-//W3C//DTD SVG 1.1//EN" "http://www.w3.org/Graphics/SVG/1.1/DTD/svg11.dtd">
<!-- Creator: CorelDRAW -->
<svg xmlns="http://www.w3.org/2000/svg" xml:space="preserve" width="0.787402in" height="0.787402in" version="1.1" style="shape-rendering:geometricPrecision; text-rendering:geometricPrecision; image-rendering:optimizeQuality; fill-rule:evenodd; clip-rule:evenodd"
viewBox="0 0 787.4 787.4"
 xmlns:xlink="http://www.w3.org/1999/xlink"
 xmlns:xodm="http://www.corel.com/coreldraw/odm/2003">
 <defs>
  <style type="text/css">
   <![CDATA[
    .fil0 {fill:black}
   ]]>
  </style>
 </defs>
 <g id="Layer_x0020_1">
  <metadata id="CorelCorpID_0Corel-Layer"/>
  <g id="_2505801004880">
   <g>
    <path class="fil0" d="M430.22 508.88l1.4 0c27.3,-0.2 31.72,-19.31 41.94,-39.74 4.69,-9.38 9.38,-18.7 14.08,-28.15 11.73,-23.56 22.11,-32.25 50.67,-32.2 13.72,0.02 74.84,-0.81 82.89,0.4 4.41,-21.69 -0.9,-80.54 -7.93,-105.08 -13.46,-47.06 -43.91,-69.7 -91.7,-78.43 -8.7,-1.59 -16.24,-2.37 -20.44,-7.6 -4.35,-5.41 -5.56,-15.23 -1.67,-22.12 7.74,-13.69 26.14,-8.16 42.21,-4.33 14.32,3.42 29.96,9.03 41.63,15.8 13.44,7.8 23.02,14.85 31.8,24.52 8.93,9.83 16.14,18.65 23.29,33.02 28.23,56.72 20.93,139.44 21.18,204.43 0.04,9.46 -0.69,17.89 -6.16,22.42 -4.87,4.04 -14.57,6.2 -21.48,2.43 -14.8,-8.06 -8.99,-29.27 -10.12,-47.35 -11.3,-2.64 -65.28,-0.45 -81.15,-0.53 -16.43,-0.08 -13.52,0.13 -22.51,18.13 -15.18,30.36 -25.76,60.91 -51.64,73.9 -11.51,5.78 -23.66,7.75 -36.42,8.3l0.14 -37.83zm-252.71 66.8c38.01,73.94 156.73,58.32 237.64,58.32 45.52,0 96.02,2.93 136.47,-12.9 22.25,-8.71 39.96,-23.94 49.84,-41.6 3.85,-6.89 11.31,-29.1 32.05,-17.65 7.94,4.39 11.08,15.38 5.96,26.39 -3.62,7.79 -9.8,17.61 -14.09,23.39 -10.66,14.35 -22.06,24.19 -39.35,34.54 -32.77,19.61 -78.74,25.2 -122.79,25.43 -49.52,0.24 -99.47,0.44 -148.96,-0.02 -99.5,-0.93 -160.31,-30.87 -183.32,-112.65 -12.18,-43.29 -9.45,-92.68 -9.45,-138.76 0,-59.07 -3.03,-137.49 40.13,-183.11 27.72,-29.3 53.65,-42.93 98.3,-49.59 28.08,-4.19 31.77,29.83 11.28,35.99 -22.13,6.66 -51.98,7.14 -77.41,32.85 -39.78,40.23 -34.94,104.85 -34.57,146.47 0.49,54.19 -7.19,123.39 18.27,172.93z"/>
   </g>
   <g>
    <path class="fil0" d="M304.93 309.21c-13.24,0.71 -25.28,4.2 -36.16,9.13 -9.88,4.48 -16.16,8.95 -24.04,15.43 -3.24,2.67 -10.96,10.81 -13.74,14.35 -10.48,13.33 -17.94,30.16 -20.54,47.89 -3.97,27.08 4.02,54.04 16.51,72.09 3.89,5.61 5.78,7.61 9.89,12.49 7.13,8.47 17.91,13.15 20.32,25.2 1.18,5.89 -0.98,16.96 1.88,20.92 3.66,5.06 11.9,4.41 14.06,-1.84 1.06,-3.05 0.46,-18.65 -0.25,-22.15 -3.33,-16.22 -11.79,-19.49 -18.26,-27.26 -1.85,-2.22 -6.48,-5.61 -10.87,-11.5 -3.37,-4.52 -5.96,-8.32 -8.85,-13.93 -14.78,-28.62 -12.13,-62.17 6.05,-88.33 4.41,-6.35 10.07,-12.74 16.26,-17.5 2.28,-1.76 4.22,-3.25 6.59,-4.8 4.65,-3.04 9.17,-5.65 14.84,-7.94 12.06,-4.87 24.32,-7.08 38.76,-6.19 47.06,2.91 87.77,47.52 78.42,100.17 -2.5,14.04 -9.24,29.35 -17.57,39 -1.82,2.11 -3.39,4.25 -5.21,6.17 -3.64,3.85 -8.39,7.05 -11.65,11.12 -2.95,3.69 -5.28,4.01 -9.33,13.07 -2.92,6.53 -3.24,12.02 -3.23,19.72 0,4.97 -1.5,15.07 7.49,15.67 3.7,0.25 6.35,-2.04 7.48,-4.15 1.48,-2.77 0.95,-6.91 0.94,-10.3 -0.04,-20.47 6.84,-20.4 15.49,-29.8 3.86,-4.19 4.24,-4.15 8.25,-8.85 21.43,-25.15 29.82,-59.01 21.34,-91.7 -3.88,-14.96 -10.26,-26.75 -18.85,-37.72 -19.3,-24.61 -50.76,-40.32 -86.01,-38.45z"/>
    <path class="fil0" d="M289.39 342.41c-17.33,4.45 -32.55,18.61 -40.55,34.13 -4.56,8.85 -7.09,18.13 -7.48,29.33 -0.31,9.12 0.25,27.95 11.88,25.12 6.17,-1.5 6.31,-7.1 5.22,-11.94 -5.63,-24.93 7.53,-49.48 31.19,-59.88 3.16,-1.39 9.51,-2.09 9.67,-9.03 0.12,-5.22 -4.59,-9.12 -9.94,-7.74z"/>
    <path class="fil0" d="M267.83 538.87c-9.61,1.76 -8.38,14.53 -0.05,15.69 3.17,0.44 85.22,0.29 87.02,-0.04 8.84,-1.59 8.61,-14.5 -0.36,-15.76 -3.27,-0.46 -84.6,-0.26 -86.61,0.11z"/>
    <path class="fil0" d="M267.02 563.04c-8.88,2.72 -7.46,14.76 1.41,15.65 6.04,0.61 47.89,0.08 57.77,0.08 5.73,0 24.85,0.75 29.07,-0.23 8.34,-1.94 8.04,-14.87 -1.39,-15.77l-57.78 -0.04c-4.72,0 -26.33,-0.54 -29.07,0.3z"/>
    <path class="fil0" d="M340.64 597.08c1.33,-3.88 -0.76,-9.99 -8.33,-10.24 -10.7,-0.35 -26.14,0 -37.44,-0.02 -6.44,-0.01 -11.43,-0.04 -13.09,5.68 -1.72,5.91 2.79,10.21 8.19,10.31 6.19,0.11 12.52,-0.02 18.73,-0.02 6.24,0 12.48,0 18.71,-0 7,-0 11.18,0.26 13.22,-5.71z"/>
    <path class="fil0" d="M437.92 403.19c-8.88,2 -8.35,15.34 1.75,15.79 5.08,0.22 26.54,0.6 30.42,-0.22 8.12,-1.71 8.59,-14.95 -1.9,-15.75 -4.09,-0.31 -27.3,-0.48 -30.27,0.19z"/>
    <path class="fil0" d="M156.39 403.18c-8.79,2.05 -8.59,15.27 1.77,15.79l30.05 -0.18c8.81,-1.61 8.9,-15.28 -1.94,-15.82 -4.6,-0.22 -26.63,-0.56 -29.88,0.2z"/>
    <path class="fil0" d="M310.81 248.35c-4.08,1.33 -5.75,4.31 -5.7,9.44 0.04,4.59 -0.51,26.86 0.54,29.49 3,7.52 15.48,7.89 15.52,-4.65 0.02,-4.61 0.41,-26.59 -0.53,-29.43 -1.11,-3.34 -5.29,-6.33 -9.83,-4.85z"/>
    <path class="fil0" d="M388.69 268.96c-4.6,1.27 -5.98,5.53 -8.18,9.41 -2.23,3.95 -4.31,7.45 -6.57,11.32 -1.59,2.72 -5.69,8.66 -5.59,12.06 0.13,4.8 4.73,8.8 10.06,7.43 4.02,-1.04 6.11,-5.74 8.16,-9.31 2.34,-4.09 12.14,-19.58 12.06,-23.35 -0.09,-4.89 -4.68,-9.02 -9.94,-7.56z"/>
    <path class="fil0" d="M177.19 325.77c-3.04,0.83 -3.93,1.28 -5.23,3.59 -2.66,4.72 -0.79,8.88 3.94,11.63l22.44 12.95c9.1,5.47 15.35,-3.06 12.48,-9.63 -1.57,-3.59 -17.12,-11.55 -21.4,-14.01 -3.08,-1.76 -8.17,-5.63 -12.23,-4.53z"/>
    <path class="fil0" d="M420.06 466.7c-3.92,1.45 -7.37,6.57 -4.31,11.52 2.02,3.28 17.37,11.19 21.67,13.75 3.27,1.95 8.02,5.71 12.68,4.07 3.85,-1.35 6.94,-6.07 4.48,-11.06 -1.81,-3.67 -16.89,-11.28 -21.48,-13.94 -3.22,-1.89 -8.46,-6.04 -13.04,-4.35z"/>
    <path class="fil0" d="M202.57 466.34c-3.43,0.61 -18.86,10.21 -23.04,12.55 -3.83,2.15 -8.44,4.04 -8.71,9.2 -0.26,4.98 4.06,8.98 9.22,8.32 2.5,-0.32 19.52,-10.56 22.79,-12.5 3.82,-2.26 8.43,-3.99 8.73,-9.27 0.28,-4.79 -4.31,-9.13 -9,-8.29z"/>
    <path class="fil0" d="M446 325.72c-3.83,0.96 -18.37,10.02 -23,12.61 -3.68,2.06 -8.33,4.07 -8.33,9.38 -0,5.08 4.73,9.26 10.29,7.69 2.27,-0.64 8.85,-4.83 11.28,-6.25 3.65,-2.14 7.66,-4.43 11.34,-6.56 3.83,-2.2 8.03,-3.81 7.82,-9.48 -0.17,-4.57 -4.5,-8.61 -9.39,-7.39z"/>
    <path class="fil0" d="M233.26 269.2c-1.45,0.56 -1.94,0.56 -2.89,1.41 -0.7,0.63 -1.53,1.7 -1.94,2.52 -1.28,2.55 -0.91,5.07 0.19,7.4l12.9 22.49c7.87,13.68 19.33,3.08 15.43,-5.24l-12.93 -22.46c-2.11,-3.71 -5.11,-8.29 -10.76,-6.11z"/>
    <path class="fil0" d="M311.66 339.1c-10.26,3.91 -4.41,17.78 4.87,14.81 3.41,-1.09 6.6,-5.28 4.95,-10.02 -1.17,-3.35 -5.18,-6.56 -9.82,-4.79z"/>
   </g>
  </g>
 </g>
</svg>
