<svg width="61" height="61" viewBox="0 0 61 61" fill="none" xmlns="http://www.w3.org/2000/svg">
<path fill-rule="evenodd" clip-rule="evenodd" d="M12.3351 4.01089H48.0347C52.6129 4.01089 56.3589 7.75682 56.3589 12.3351V48.0347C56.3589 52.6129 52.6129 56.3589 48.0347 56.3589H12.3351C7.75682 56.3589 4.01089 52.6129 4.01089 48.0347V12.3351C4.01089 7.75682 7.75682 4.01089 12.3351 4.01089ZM50.7707 0H9.60002C4.32001 0 0 4.32001 0 9.60003V50.7707C0 56.0507 4.32001 60.3707 9.60002 60.3707H50.7707C56.0507 60.3707 60.3707 56.0507 60.3707 50.7707V9.60003C60.3707 4.32001 56.0507 0 50.7707 0Z" fill="black"/>
<path fill-rule="evenodd" clip-rule="evenodd" d="M36.9428 17.4231C36.9428 14.0487 39.6788 11.3127 43.0542 11.3127C46.4286 11.3127 49.1646 14.0487 49.1646 17.4231C49.1646 20.7985 46.4286 23.5345 43.0542 23.5345C39.6788 23.5345 36.9428 20.7985 36.9428 17.4231ZM51.9121 17.4231C51.9121 12.5319 47.9464 8.5661 43.0551 8.5661C38.163 8.5661 34.1972 12.5319 34.1972 17.4231C34.1972 22.3153 38.163 26.281 43.0551 26.281C47.9464 26.281 51.9121 22.3153 51.9121 17.4231Z" fill="black"/>
<path fill-rule="evenodd" clip-rule="evenodd" d="M19.0743 39.8468C14.2752 42.3515 7.47842 46.6312 4.48609 50.8004C6.56642 55.7656 10.2384 56.3589 12.3351 56.3589H48.0347C52.6129 56.3589 56.3589 52.6129 56.3589 48.0347L56.3589 38.1409C52.203 39.7508 44.3809 46.1828 41.9118 48.3822C37.4622 52.3451 36.9006 55.9374 33.4158 53.4673C30.579 51.4571 25.7732 45.3323 24.4829 44.1035C22.2653 41.9924 21.3197 38.6747 19.0743 39.8468Z" fill="black" fill-opacity="0.678431"/>
</svg>
