<?xml version="1.0" encoding="UTF-8"?>
<!DOCTYPE svg PUBLIC "-//W3C//DTD SVG 1.1//EN" "http://www.w3.org/Graphics/SVG/1.1/DTD/svg11.dtd">
<!-- Creator: CorelDRAW -->
<svg xmlns="http://www.w3.org/2000/svg" xml:space="preserve" width="0.787402in" height="0.787402in" version="1.1" style="shape-rendering:geometricPrecision; text-rendering:geometricPrecision; image-rendering:optimizeQuality; fill-rule:evenodd; clip-rule:evenodd"
viewBox="0 0 787.4 787.4"
 xmlns:xlink="http://www.w3.org/1999/xlink"
 xmlns:xodm="http://www.corel.com/coreldraw/odm/2003">
 <defs>
  <style type="text/css">
   <![CDATA[
    .fil0 {fill:black}
   ]]>
  </style>
 </defs>
 <g id="Layer_x0020_1">
  <metadata id="CorelCorpID_0Corel-Layer"/>
  <path class="fil0" d="M120.01 152.98c14.27,-2.7 383.43,-0.83 416.71,-0.83 25.75,0 117.88,-3.2 134.54,3.29 39.82,15.52 31,60.65 31,108.23l0 279.14c0,36.01 8.98,88.66 -40.16,97.57 -14.5,2.63 -384.22,0.79 -417.69,0.79 -25.32,0 -117.51,3.29 -134.49,-3.39 -14.92,-5.87 -28.25,-19.62 -30.59,-38.93 -1.87,-15.43 -0.45,-309.45 -0.45,-348.34 0,-17.2 -2.05,-52.99 2.92,-66.33 6.22,-16.72 18.91,-27.55 38.21,-31.19zm171.61 80.24c0.78,10.7 0.17,22.15 0.17,33.09 0,5.27 -0.04,10.54 -0.03,15.81 0.02,7.78 -0.56,9.58 4.12,13.05l55.19 -0.13c8.16,-3.3 5.41,-16.96 5.41,-27.41 -0,-10.92 0.4,-22.67 -0.26,-33.48 -2.26,0 -1.53,0.44 -1.13,-2.15l-0.94 -1.71 -2.18 -0.46 -56.29 -0.47c-1.81,1.48 -2.58,2.17 -4.07,3.86zm-134.37 134.23c0.69,10.81 0.17,22.17 0.17,33.16 0,5.27 -0.04,10.54 -0.04,15.81 0.01,8.09 -0.48,9.49 4.09,13.15l55.57 -0.22c7.67,-3.51 5.06,-17.2 5.06,-27.43 0,-10.99 -0.52,-22.17 0.27,-33.1l-1.64 -2.46c-1.97,-0.07 -1.44,0.35 -0.9,-1.74l-2.69 -1.28 -55.67 0.4c-2.48,1.91 -2.08,1.44 -4.23,3.7zm270.34 -136.54c0.35,2.1 0.71,1.46 -1.59,1.46 -1.88,6.65 -1.02,24.15 -1.02,32.61 0,5.73 -0.02,11.46 -0.04,17.19 -0.02,7.71 -0.56,10.56 5,12.76 13.69,0.56 43.47,1.43 55.77,-0.44l1.99 -0.82 0.89 -1.77c2.52,-7.31 2.21,-51.48 0.23,-59.33l-0.98 -1.67 -1.87 -0.77c-8.98,-1.35 -47.81,-1.58 -56.56,-0.02 0.24,2.13 0.51,1.42 -1.83,0.81zm-134.09 133.34c0.35,1.87 0.69,1.41 -1.24,1.15l-0.53 2.22 0.46 58.16c3.35,6.87 14.34,4.4 28.59,4.4 9.88,0 25.45,0.93 33.65,-1.29 3.56,-7.98 2.06,-22.76 2.06,-33.55 0,-10.25 3.04,-27.56 -5.2,-31.49l-55.48 -0.08 -2.31 0.48zm-134.29 134.25c0.22,1.95 0.68,1.6 -1.21,1.22l-0.62 2.17 -0.06 58.21 2.02 1.94c2.68,-0.49 2.08,-1.11 2.08,1.5 5.01,2.28 23.2,1.02 30.31,1.02 34.8,0 30.36,5.5 30.36,-37.55 0,-10.69 2.73,-24.96 -5.21,-28.71l-55.36 -0.19 -2.32 0.39zm270.63 -69.17l55.8 0.54c4.3,-3.31 4.28,-4.81 4.34,-12.13 0.05,-5.69 -0.04,-11.43 -0.04,-17.13 0,-10.59 0.69,-23.17 -0.64,-33.47 -3.88,-6.38 -19.79,-4.02 -28.96,-4.02 -9.66,0 -25.75,-1.16 -33.35,1.6 -3.5,7.96 -2.04,38.46 -2.05,51.75 -0.01,7.85 -0.5,10.59 4.9,12.86zm193.91 132.42c2.33,-10.18 2.24,-54.56 -0.95,-62.72 -7.54,-2.5 -40.22,-1.56 -51.85,-1.54 -7.52,0.01 -10.56,0.52 -11.47,7.27l0.39 54.58c2.5,8.25 20.96,5.22 30.83,5.22 10.85,0 26.39,1.76 33.05,-2.81zm-461.54 -332.12c-8.44,4.07 -5.45,15.98 -5.45,27.45 0,42.31 -5.14,38.75 27.08,38.74 43.27,-0 38.26,4.7 38.26,-29.52 0,-42.02 4.4,-37.55 -27.73,-37.55 -7.2,0 -27.2,-1.51 -32.16,0.88zm397.14 147.27l0 40.81c0,16.46 6.56,12.46 43.2,12.46 6.88,0 14.68,0.4 20.14,-1.6 3.57,-7.61 3.56,-55.72 0.1,-63.93 -7.88,-2.6 -27.23,-1.52 -37.36,-1.53 -17.76,-0 -26.08,-4.69 -26.08,13.79zm0 -136.94c0,64.12 -4.51,55.86 26.08,55.86 10.04,0 29.66,1.11 37.28,-1.63 3.48,-8.17 3.54,-55.6 0.1,-63.75 -5.29,-2.02 -45,-2.5 -54.63,-1.69 -7.9,0.67 -8.83,3.31 -8.83,11.21zm-313.2 284.41c0,47.36 -0.31,40.19 57.51,40.19l171.17 0c13.93,0 28.28,0.35 42.14,0.03 21.74,-0.5 18,-15.7 18,-41.53 0,-32.15 -10.98,-25.59 -58.82,-25.59 -57.06,0 -114.11,0 -171.17,0 -13.37,0 -29.14,-0.77 -42.21,0.02 -16.67,1 -16.61,10.69 -16.61,26.88zm-215.12 79c5,43.7 37.65,77 78.91,84.62 20.06,3.7 58.22,1.57 80.48,1.57l406.86 0c50.43,0 94.82,7.64 130.03,-33.87 31.21,-36.79 23.32,-84.27 23.32,-140.54 0,-27.06 1.49,-306.23 -0.56,-325.26 -4.66,-43.33 -38.13,-77.21 -78.91,-84.6 -20.31,-3.69 -58.07,-1.55 -80.47,-1.55 -135.62,0 -271.24,0 -406.86,0 -22.76,0 -59.17,-2.11 -79.4,2.72 -41.55,9.93 -72.21,47.62 -73.89,90.04 -1.04,26.44 -0.06,54.98 -0.06,81.65 0,26.31 -1.54,307.02 0.55,325.22z"/>
 </g>
</svg>
