<?xml version="1.0" encoding="UTF-8"?>
<!DOCTYPE svg PUBLIC "-//W3C//DTD SVG 1.1//EN" "http://www.w3.org/Graphics/SVG/1.1/DTD/svg11.dtd">
<!-- Creator: CorelDRAW -->
<svg xmlns="http://www.w3.org/2000/svg" xml:space="preserve" width="0.787402in" height="0.787402in" version="1.1" style="shape-rendering:geometricPrecision; text-rendering:geometricPrecision; image-rendering:optimizeQuality; fill-rule:evenodd; clip-rule:evenodd"
viewBox="0 0 787.4 787.4"
 xmlns:xlink="http://www.w3.org/1999/xlink"
 xmlns:xodm="http://www.corel.com/coreldraw/odm/2003">
 <defs>
  <style type="text/css">
   <![CDATA[
    .fil0 {fill:black}
   ]]>
  </style>
 </defs>
 <g id="Layer_x0020_1">
  <metadata id="CorelCorpID_0Corel-Layer"/>
  <g id="_2505800991104">
   <path class="fil0" d="M112.26 124.87l556.95 0c37.19,0 67.62,30.43 67.62,67.62l0 0.01c0,37.19 -30.43,67.62 -67.62,67.62l-556.95 0c-37.19,0 -67.62,-30.43 -67.62,-67.62l0 -0.01c0,-37.19 30.43,-67.62 67.62,-67.62z"/>
   <path class="fil0" d="M112.26 325.15l344.24 0c37.2,0 67.62,30.43 67.62,67.62l0 0.01c0,37.19 -30.43,67.62 -67.62,67.62l-344.24 0c-37.2,0 -67.62,-30.43 -67.62,-67.62l0 -0.01c0,-37.19 30.43,-67.62 67.62,-67.62z"/>
   <path class="fil0" d="M112.26 533.22l556.95 0c37.19,0 67.62,30.43 67.62,67.62l0 0.01c0,37.19 -30.43,67.62 -67.62,67.62l-556.95 0c-37.19,0 -67.62,-30.43 -67.62,-67.62l0 -0.01c0,-37.19 30.43,-67.62 67.62,-67.62z"/>
  </g>
 </g>
</svg>
