<svg width="63" height="65" viewBox="0 0 63 65" fill="none" xmlns="http://www.w3.org/2000/svg">
<path fill-rule="evenodd" clip-rule="evenodd" d="M63 34.8748L57.7451 34.8331C57.4092 40.7259 55.1303 45.7912 52.4726 49.3712C46.0914 57.9682 34.5069 61.6699 24.0674 58.6643C14.4215 55.8877 7.03589 47.4288 5.53198 37.3323C4.24103 28.664 7.26202 21.0283 12.7244 15.2528C15.9924 11.7966 20.5173 9.15276 25.4912 7.99743C26.8699 7.67736 28.2816 7.46142 29.7274 7.36277C31.7856 7.22136 32.7956 7.05585 32.8373 9.29745L37.5181 4.73203L32.8922 0C32.7637 3.28622 30.8372 1.31646 23.917 2.9815C20.9048 3.70605 17.6818 5.06416 15.4117 6.46284C4.51986 13.1756 -1.61983 25.0939 0.372577 38.3912C1.03781 42.824 2.95447 47.7533 5.45294 51.1919C8.16217 54.9209 10.5245 57.5232 14.5104 60.0191C17.0111 61.5844 19.5535 62.8351 22.7512 63.7514C29.8009 65.7727 36.7079 65.2718 43.2077 62.7408C54.8207 58.2181 62.2579 47.3313 63 34.8748Z" fill="black"/>
</svg>
