<?xml version="1.0" encoding="UTF-8"?>
<!DOCTYPE svg PUBLIC "-//W3C//DTD SVG 1.1//EN" "http://www.w3.org/Graphics/SVG/1.1/DTD/svg11.dtd">
<!-- Creator: CorelDRAW -->
<svg xmlns="http://www.w3.org/2000/svg" xml:space="preserve" width="0.787402in" height="0.787402in" version="1.1" style="shape-rendering:geometricPrecision; text-rendering:geometricPrecision; image-rendering:optimizeQuality; fill-rule:evenodd; clip-rule:evenodd"
viewBox="0 0 787.4 787.4"
 xmlns:xlink="http://www.w3.org/1999/xlink"
 xmlns:xodm="http://www.corel.com/coreldraw/odm/2003">
 <defs>
  <style type="text/css">
   <![CDATA[
    .fil0 {fill:black}
   ]]>
  </style>
 </defs>
 <g id="Layer_x0020_1">
  <metadata id="CorelCorpID_0Corel-Layer"/>
  <g id="_2505737728672">
   <path class="fil0" d="M333.06 245.16c2.98,12.04 12.48,19.32 18.95,25.61l112.52 109.72c6.72,6.27 4.87,8.23 -0.94,13.67l-123.23 121.48c-25.08,28.91 12.17,75.09 50.09,38.3l89.69 -88.72c7.7,-7.42 14.58,-14.12 22.3,-21.51 10.21,-9.79 38.22,-33.91 42.52,-46.16 9.17,-26.1 -15.54,-38.27 -30.72,-55.03 -15.24,-16.82 -130.56,-129.08 -135.36,-131.74 -24.47,-13.54 -52.46,7.64 -45.83,34.39z"/>
   <path class="fil0" d="M482.72 244.09c2.75,12.76 12.09,19.52 18.67,25.82l22.26 22.6c11.93,11.52 59.15,55.8 67.94,65.62 4.54,5.07 6.39,7.2 10.88,11.55 14.88,14.39 20.29,15.94 12.15,23.79l-101.67 99.21c-14.79,14.23 -38.94,30.59 -28.67,56.08 3.55,8.8 13.53,17.12 25.06,18.52 15.87,1.92 23.58,-6.74 30.48,-13.53 7.61,-7.48 14.58,-14.16 22.29,-21.52l22.3 -22.57c7.86,-7.6 14.92,-14.47 22.82,-22.06 15.32,-14.7 29.66,-29.06 45.11,-43.58 3.98,-3.74 6.94,-7.74 10.88,-11.55 4.07,-3.93 7.35,-7.1 11.41,-11.03 6.18,-5.96 16.89,-14.15 20.47,-24.48 8.16,-23.58 -14.73,-39.19 -30.4,-54.24l-45.12 -44.62c-12.95,-12.56 -84.07,-83.74 -90.35,-87.03 -24.14,-12.67 -52.37,5.88 -46.52,33.03z"/>
   <path class="fil0" d="M95.56 356.68l304.44 0c16.71,0 30.38,13.67 30.38,30.38l0 0c0,16.71 -13.67,30.39 -30.38,30.39l-304.44 0c-16.71,0 -30.38,-13.67 -30.38,-30.39l0 0c0,-16.7 13.67,-30.38 30.38,-30.38z"/>
  </g>
 </g>
</svg>
