<?xml version="1.0" encoding="UTF-8"?>
<!DOCTYPE svg PUBLIC "-//W3C//DTD SVG 1.1//EN" "http://www.w3.org/Graphics/SVG/1.1/DTD/svg11.dtd">
<!-- Creator: CorelDRAW -->
<svg xmlns="http://www.w3.org/2000/svg" xml:space="preserve" width="0.787402in" height="0.787402in" version="1.1" style="shape-rendering:geometricPrecision; text-rendering:geometricPrecision; image-rendering:optimizeQuality; fill-rule:evenodd; clip-rule:evenodd"
viewBox="0 0 787.4 787.4"
 xmlns:xlink="http://www.w3.org/1999/xlink"
 xmlns:xodm="http://www.corel.com/coreldraw/odm/2003">
 <defs>
  <style type="text/css">
   <![CDATA[
    .fil0 {fill:black}
   ]]>
  </style>
 </defs>
 <g id="Layer_x0020_1">
  <metadata id="CorelCorpID_0Corel-Layer"/>
  <g id="_2505789009568">
   <path class="fil0" d="M210.43 667.23l-0.06 -31.37c-0.74,-33.4 -0.09,-67.56 -0.09,-101.04 0,-31.76 -4.76,-65.06 11.72,-87.67 16.91,-23.18 35.27,-25.69 73.3,-25.69l200.23 0c37.84,0 55.74,3.13 72.44,26.54 15.79,22.12 11.13,57.4 11.13,88.26 0,33.01 0.65,66.67 -0.09,99.6l-0.06 31.37c35.26,-1.01 57.8,1.5 76.3,-20.2 19.12,-22.42 16.03,-45.22 16.02,-80.54l0 -335.64c0,-25.84 3.47,-20.67 -11.35,-35.48 -16.29,-16.28 -31.97,-31.97 -48.26,-48.26 -8.35,-8.35 -15.46,-15.39 -23.77,-23.77 -5.85,-5.89 -5.67,-8.91 -15.93,-9.07 -7.8,-0.13 -15.99,0.11 -23.85,0.13 0,25.85 -0.02,51.7 0,77.56 0.02,28.02 -2.8,41.89 -18.26,57.4 -15.93,15.97 -30.25,18.27 -58.84,18.26l-154.14 0c-27.98,0.02 -41.94,-2.85 -57.37,-18.28 -15.96,-15.97 -18.32,-30.11 -18.31,-58.81 0.01,-25.37 0,-50.75 0,-76.12 -52.11,-0.06 -123.24,-13.28 -123.13,70.36l0.01 383.18c-0.01,35.06 -2.59,58.39 16.67,79.88 18.8,20.97 40.85,18.41 75.65,19.41z"/>
   <polygon class="fil0" points="210.43,667.23 578.97,667.23 579.03,635.85 210.38,635.85 "/>
   <path class="fil0" d="M394.78 145.61l-123.2 0c0.85,17.24 -3.09,61.21 3.26,73.98 10.7,21.48 32.74,17.49 59.36,17.49 27.57,0 48.32,3.67 58.03,-18.81 4.82,-11.16 2.19,-57.11 2.55,-72.65z"/>
   <polygon class="fil0" points="271.79,513.65 517.15,513.65 517.59,482.98 271.54,482.98 "/>
   <polygon class="fil0" points="271.79,575.11 517.15,575.11 517.59,544.43 272.26,544.43 "/>
   <polygon class="fil0" points="271.58,145.61 394.78,145.61 394.67,114.17 271.79,114.22 "/>
  </g>
 </g>
</svg>
