<svg width="52" height="52" viewBox="0 0 52 52" fill="none" xmlns="http://www.w3.org/2000/svg">
<g clip-path="url(#clip0_370_176)">
<path fill-rule="evenodd" clip-rule="evenodd" d="M35.5357 31.0456L40.3686 35.8788C40.3686 35.8788 38.5382 36.785 37.6616 37.6618C36.7848 38.5384 35.8788 40.3686 35.8788 40.3686L31.0456 35.5357C27.8212 37.856 23.934 39.2723 19.685 39.2723C8.86672 39.2723 0.0976562 30.5032 0.0976562 19.685C0.0976747 8.86675 8.86674 0.0976745 19.685 0.0976562C30.5032 0.0976562 39.2723 8.86673 39.2723 19.685C39.2723 23.934 37.856 27.8212 35.5357 31.0456ZM19.685 6.12456C12.1815 6.12452 6.12453 12.1815 6.12457 19.685C6.12453 27.1884 12.1815 33.2455 19.685 33.2455C27.1884 33.2455 33.2455 27.1884 33.2455 19.685C33.2455 12.1816 27.1884 6.12458 19.685 6.12456Z" fill="black"/>
<path d="M38.9226 46.7169L41.8917 49.6863C44.1466 51.9412 47.8025 51.9412 50.0574 49.6863C52.3123 47.4314 52.1267 43.9611 49.8718 41.7062L46.9024 38.7371C44.6477 36.4822 40.9919 36.4822 38.737 38.7371C36.4821 40.9918 36.6677 44.4622 38.9226 46.7169Z" fill="black"/>
</g>
<defs>
<clipPath id="clip0_370_176">
<rect width="52" height="52" fill="white"/>
</clipPath>
</defs>
</svg>
