<?xml version="1.0" encoding="UTF-8"?>
<!DOCTYPE svg PUBLIC "-//W3C//DTD SVG 1.1//EN" "http://www.w3.org/Graphics/SVG/1.1/DTD/svg11.dtd">
<!-- Creator: CorelDRAW -->
<svg xmlns="http://www.w3.org/2000/svg" xml:space="preserve" width="0.787402in" height="0.787402in" version="1.1" style="shape-rendering:geometricPrecision; text-rendering:geometricPrecision; image-rendering:optimizeQuality; fill-rule:evenodd; clip-rule:evenodd"
viewBox="0 0 787.4 787.4"
 xmlns:xlink="http://www.w3.org/1999/xlink"
 xmlns:xodm="http://www.corel.com/coreldraw/odm/2003">
 <defs>
  <style type="text/css">
   <![CDATA[
    .fil0 {fill:black}
   ]]>
  </style>
 </defs>
 <g id="Layer_x0020_1">
  <metadata id="CorelCorpID_0Corel-Layer"/>
  <g id="_2505000375536">
   <g>
    <path class="fil0" d="M390.89 716.67c3.48,-2.1 14.21,-10.84 16.99,-13.49 3.7,-3.53 5.06,-4.43 8.05,-7.25 34.87,-32.89 75.03,-76.23 101.6,-116.46l18.55 -28.64c20.08,-32.43 51.64,-93.54 57.63,-130.19 -2.76,3.35 -29.4,52.31 -41.02,69.03 -14.46,20.8 -36.42,51.47 -52.59,69.63l-19.94 21.74c-23.48,26.86 -52.41,49.56 -80.63,70.7 -8.68,6.5 -6.77,10.78 -39.68,-12.28l-43.24 -30.38c-5.02,-4.07 -9,-7.54 -13.76,-11.25 -4.69,-3.67 -9.14,-7.8 -13.57,-11.43l-36.67 -36.93c-8.16,-9.28 -16.05,-16.39 -23.57,-26.4 -3.65,-4.87 -6.74,-8.87 -11.05,-14l-30.84 -44.12c-86.81,-133.31 -99.28,-281.83 -104.69,-291.69 -2.83,56.09 9.69,138.87 22.97,190.06 15.54,59.87 40.19,120.58 71.41,167.48 3.46,5.2 7.01,11.25 10.6,15.77 23.83,30 17.54,26.3 47.52,58.05l41.48 39.07 46.02 34.55c14.53,9.71 52.43,32.48 68.43,38.45z"/>
    <path class="fil0" d="M98.11 154.24c2.37,32.43 12.63,75.09 20.28,105.81 8.35,33.51 19.15,64.84 31.37,95.09 12.05,29.82 26.79,59.07 41.81,84.53l37.79 56.68c4.78,6.34 11.71,13.34 14.1,17.98 2.04,-2.26 1.7,-0.11 -3.39,-9.26l-14.63 -27c-47.2,-95.12 -78.26,-192.55 -75.9,-304.33 138.8,-64.25 333.06,-78.91 485.23,-32.78 20.74,6.29 44.6,15.87 60.82,21.39 -19.36,-20.23 -96.51,-51.79 -129.33,-61.22 -109.46,-31.44 -225.29,-32.28 -335.46,-4.26 -24.39,6.2 -48.65,14.85 -70.5,24 -17.54,7.35 -50.09,22.77 -62.19,33.38z"/>
    <path class="fil0" d="M327.07 140.14c74.55,4.66 102.81,3.73 178.8,22.65 26.81,6.67 53.84,14.52 77.72,23.72 20.75,8 52.33,20.07 69.21,31.61 2.3,75.77 -29.12,197.43 -59.88,265.89 -23.28,51.82 -35.35,71.09 -65.84,116.15 -11.13,16.46 -55.3,68.73 -68.16,76.39 2.74,2.35 1.25,1.35 2.96,-0.08l4.71 -3.46c44.12,-29.5 79.21,-64.51 112.2,-105.86 49.33,-61.84 83.52,-142.38 101.35,-219.65 10.28,-44.56 20.96,-115.97 19.05,-164.1 -10.69,-8.04 -62.29,-24.06 -79.36,-28.98 -60.52,-17.46 -129.15,-25.31 -192.83,-23.87 -20.02,0.45 -85.23,3.87 -99.94,9.57z"/>
   </g>
   <path class="fil0" d="M288.85 378.69l203.77 0c9.89,0 17.97,8.09 17.97,17.98l0 0c0,9.89 -8.09,17.98 -17.97,17.98l-203.77 0c-9.89,0 -17.97,-8.09 -17.97,-17.98l0 -0c0,-9.89 8.09,-17.98 17.97,-17.98z"/>
   <path class="fil0" d="M372.76 498.55l0 -203.77c0,-9.89 8.09,-17.97 17.98,-17.97l0 0c9.89,0 17.98,8.09 17.98,17.97l0 203.77c0,9.89 -8.09,17.97 -17.98,17.97l-0 0c-9.89,0 -17.98,-8.09 -17.98,-17.97z"/>
  </g>
 </g>
</svg>
