<?xml version="1.0" encoding="UTF-8"?>
<!DOCTYPE svg PUBLIC "-//W3C//DTD SVG 1.1//EN" "http://www.w3.org/Graphics/SVG/1.1/DTD/svg11.dtd">
<!-- Creator: CorelDRAW -->
<svg xmlns="http://www.w3.org/2000/svg" xml:space="preserve" width="0.787402in" height="0.787402in" version="1.1" style="shape-rendering:geometricPrecision; text-rendering:geometricPrecision; image-rendering:optimizeQuality; fill-rule:evenodd; clip-rule:evenodd"
viewBox="0 0 787.4 787.4"
 xmlns:xlink="http://www.w3.org/1999/xlink"
 xmlns:xodm="http://www.corel.com/coreldraw/odm/2003">
 <defs>
  <style type="text/css">
   <![CDATA[
    .fil0 {fill:black}
   ]]>
  </style>
 </defs>
 <g id="Layer_x0020_1">
  <metadata id="CorelCorpID_0Corel-Layer"/>
  <g id="_2505767539248">
   <path class="fil0" d="M621.8 446.91c-11.3,-2.64 -65.28,-0.45 -81.15,-0.53 -16.43,-0.08 -13.52,0.13 -22.51,18.13 -15.18,30.36 -25.76,60.91 -51.64,73.9 -22.56,11.32 -47.57,8.04 -74.8,8.04 -24.41,0 -55.79,3.04 -75.76,-7.1 -27.81,-14.11 -35.85,-40.34 -51.93,-72.5 -2.35,-4.7 -4.7,-9.4 -7,-14.11 -3.57,-7.32 -4.55,-6.43 -14.24,-6.38 -27.69,0.17 -55.43,0.02 -83.13,0.02 -2.51,13.03 -0.14,56.92 1.61,71.28 2.67,22.05 7.21,40.4 16.27,58.02 38.01,73.94 156.73,58.32 237.64,58.32 45.52,0 96.02,2.93 136.47,-12.9 22.25,-8.71 39.96,-23.94 49.84,-41.6 3.85,-6.89 11.31,-29.1 32.05,-17.65 7.94,4.39 11.08,15.38 5.96,26.39 -3.62,7.79 -9.8,17.61 -14.09,23.39 -10.66,14.35 -22.06,24.19 -39.35,34.54 -32.77,19.61 -78.74,25.2 -122.79,25.43 -49.52,0.24 -99.47,0.44 -148.96,-0.02 -99.5,-0.93 -160.31,-30.87 -183.32,-112.65 -12.18,-43.29 -9.45,-92.68 -9.45,-138.76 0,-59.07 -3.03,-137.49 40.13,-183.11 27.72,-29.3 53.65,-42.93 98.3,-49.59 28.08,-4.19 31.77,29.83 11.28,35.99 -22.13,6.66 -51.98,7.14 -77.41,32.85 -41.91,42.38 -30.76,111.91 -35.13,152.91 23.39,-2.44 58.21,-0.36 82.87,-0.4 14,-0.02 23.06,1.16 33.04,7.65 9.54,6.2 11.97,11.74 18.14,24.11 4.66,9.35 9,18.02 13.68,27.37 10.56,21.11 14.91,40.62 41.82,40.96l83.37 0c27.3,-0.2 31.72,-19.31 41.94,-39.74 4.69,-9.38 9.38,-18.7 14.08,-28.15 11.73,-23.56 22.11,-32.25 50.67,-32.2 13.72,0.02 74.84,-0.81 82.89,0.4 4.41,-21.69 -0.9,-80.54 -7.93,-105.08 -13.46,-47.06 -43.91,-69.7 -91.7,-78.43 -8.7,-1.59 -16.24,-2.37 -20.44,-7.6 -4.35,-5.41 -5.56,-15.23 -1.67,-22.12 7.74,-13.69 26.14,-8.16 42.21,-4.33 14.32,3.42 29.96,9.03 41.63,15.8 13.44,7.8 23.02,14.85 31.8,24.52 8.93,9.83 16.14,18.65 23.29,33.02 28.23,56.72 20.93,139.44 21.18,204.43 0.04,9.46 -0.69,17.89 -6.16,22.42 -4.87,4.04 -14.57,6.2 -21.48,2.43 -14.8,-8.06 -8.99,-29.27 -10.12,-47.35z"/>
   <path class="fil0" d="M685.61 546.33c-9.19,10.45 -20.9,16.68 -19.45,28.56 1.78,14.53 18.02,18.41 28.55,8.3 8.54,-8.19 16.24,-16.23 24.63,-24.63 17,-17.02 32.36,-25.77 13.09,-44.04l-37.18 -37.2c-3.69,-3.59 -8.69,-7.69 -16.74,-5.82 -6.69,1.55 -10.98,5.85 -12.22,12.83 -2.18,12.31 9.8,18.54 19.33,29.37 -22.09,1.69 -78.21,0.17 -106.41,0.18 -11.83,0 -20.38,4.04 -20.38,16.13 0,11.46 8.06,16.06 19.37,16.13 29.67,0.19 83.54,-1.65 107.42,0.18z"/>
  </g>
 </g>
</svg>
