<?xml version="1.0" encoding="UTF-8"?>
<!DOCTYPE svg PUBLIC "-//W3C//DTD SVG 1.1//EN" "http://www.w3.org/Graphics/SVG/1.1/DTD/svg11.dtd">
<!-- Creator: CorelDRAW -->
<svg xmlns="http://www.w3.org/2000/svg" xml:space="preserve" width="0.787402in" height="0.787402in" version="1.1" style="shape-rendering:geometricPrecision; text-rendering:geometricPrecision; image-rendering:optimizeQuality; fill-rule:evenodd; clip-rule:evenodd"
viewBox="0 0 787.4 787.4"
 xmlns:xlink="http://www.w3.org/1999/xlink"
 xmlns:xodm="http://www.corel.com/coreldraw/odm/2003">
 <defs>
  <style type="text/css">
   <![CDATA[
    .fil0 {fill:black}
   ]]>
  </style>
 </defs>
 <g id="Layer_x0020_1">
  <metadata id="CorelCorpID_0Corel-Layer"/>
  <g id="_2505751634352">
   <path class="fil0" d="M440.79 292.29c-4.04,-1.48 -17.42,-6.07 -21.45,-7.54 -1.2,3.29 1.85,9.95 0.65,13.24l-31.79 86.85 12.12 4.44c10.87,-29.69 20.95,-57.24 31.82,-86.93 1.2,-3.27 7.46,-6.79 8.66,-10.06z"/>
   <path class="fil0" d="M275.32 405.5c0.74,4.24 3.46,18.12 4.19,22.35 3.45,-0.6 7.69,-6.58 11.14,-7.18l91.11 -15.9 -2.22 -12.71c-31.15,5.43 -60.04,10.48 -91.19,15.91 -3.43,0.6 -9.61,-3.07 -13.04,-2.47z"/>
   <path class="fil0" d="M456.1 492.2c3.3,-2.76 13.96,-12.05 17.26,-14.81 -2.25,-2.69 -9.55,-3.37 -11.79,-6.06l-59.32 -70.96 -9.9 8.28c20.28,24.26 39.09,46.76 59.37,71.02 2.23,2.67 2.15,9.86 4.38,12.53z"/>
  </g>
  <path class="fil0" d="M200.88 563.6c-92.27,-105.1 -81.9,-264.8 22.89,-356.96 104.89,-92.17 264.91,-81.7 356.97,23.2l0 0.1c92.06,104.79 81.8,264.7 -23.09,356.76 -104.79,92.06 -264.7,81.8 -356.76,-23.09zm575.04 -179.2c-0.41,-14.78 -1.85,-29.46 -4,-43.83l-76.26 -12.62 -25.87 -72.15 50.8 -58.3c-15.39,-25.66 -33.77,-49.26 -54.5,-70.51l-69.18 34.69 -63.43 -43.11 6.88 -77.19c-26.27,-11.09 -54.09,-19.4 -83.03,-24.43l-35.92 68.67 -76.67 1.85 -39.41 -66.71c-29.46,6.67 -57.69,16.73 -84.06,29.76l11.29 76.57 -60.96 46.59 -71.02 -30.69c-19.5,22.27 -36.54,46.91 -50.5,73.39l54.09 55.22 -21.76 73.49 -75.54 17.04c-1.33,15.19 -1.95,30.79 -1.44,46.5 0.51,14.37 1.85,28.53 3.8,42.49l76.36 12.83 25.66 72.26 -51.22 58.09c15.5,25.66 33.77,49.57 54.5,70.82l69.28 -34.48 63.33 43.31 -7.18 77.19c27.09,11.49 55.73,20.12 85.5,25.25l35.72 -68.76 76.67 -2.16 39.51 66.61c29.46,-6.88 57.58,-17.04 84.06,-30.07l-11.49 -76.57 60.76 -46.91 71.13 30.48c19.5,-22.48 36.44,-47.11 50.3,-73.59l-54.4 -55.02 21.55 -73.69 75.54 -17.15c1.23,-14.98 1.74,-30.07 1.23,-45.37l-0.11 0.21z"/>
  <path class="fil0" d="M306.37 470.85c-41,-46.7 -36.4,-117.67 10.17,-158.63 46.61,-40.96 117.72,-36.3 158.63,10.31l0 0.05c40.91,46.57 36.35,117.62 -10.26,158.54 -46.57,40.91 -117.62,36.35 -158.53,-10.26zm255.53 -79.63c-0.18,-6.57 -0.82,-13.09 -1.78,-19.48l-33.89 -5.61 -11.5 -32.06 22.58 -25.91c-6.84,-11.4 -15.01,-21.89 -24.22,-31.33l-30.74 15.42 -28.19 -19.16 3.06 -34.3c-11.67,-4.93 -24.04,-8.62 -36.89,-10.85l-15.96 30.51 -34.07 0.82 -17.51 -29.65c-13.09,2.96 -25.63,7.43 -37.35,13.22l5.02 34.02 -27.09 20.7 -31.56 -13.63c-8.67,9.89 -16.24,20.84 -22.44,32.61l24.04 24.54 -9.67 32.66 -33.57 7.57c-0.59,6.75 -0.87,13.68 -0.64,20.66 0.23,6.39 0.82,12.68 1.69,18.88l33.93 5.7 11.4 32.11 -22.76 25.81c6.89,11.41 15.01,22.03 24.22,31.47l30.78 -15.33 28.14 19.24 -3.19 34.3c12.04,5.11 24.76,8.94 37.99,11.22l15.87 -30.56 34.07 -0.96 17.56 29.6c13.09,-3.06 25.59,-7.57 37.35,-13.37l-5.11 -34.02 27 -20.84 31.61 13.55c8.67,-9.99 16.19,-20.94 22.35,-32.7l-24.17 -24.45 9.57 -32.74 33.57 -7.62c0.55,-6.66 0.78,-13.36 0.55,-20.16l-0.05 0.09z"/>
  <path class="fil0" d="M240.13 225.26c-94.53,83.13 -103.97,227.23 -20.63,321.96 83.04,94.63 227.24,103.87 321.76,20.83 94.63,-83.13 103.97,-227.33 20.83,-321.86 -83.03,-94.63 -227.33,-104.07 -321.97,-20.94zm264.46 301.13c-71.53,62.81 -180.74,56.14 -243.86,-15.81 -62.81,-71.85 -55.83,-180.85 15.91,-243.66 71.54,-63.22 180.74,-56.14 243.66,15.5 63.22,71.85 56.04,181.05 -15.7,243.97z"/>
  <path class="fil0" d="M393.83 391c2,1.09 3.35,3.22 3.35,5.66 0,3.05 -2.11,5.6 -4.95,6.28 -0.48,0.12 -0.98,0.18 -1.5,0.18 -0.51,0 -1.01,-0.06 -1.49,-0.17 -2.85,-0.67 -4.96,-3.23 -4.96,-6.28 0,-2.44 1.36,-4.57 3.36,-5.66 0.92,-0.5 1.97,-0.79 3.09,-0.79 1.12,0 2.18,0.29 3.1,0.79zm-9.55 -17.31c-10.04,2.81 -17.4,12.04 -17.4,22.97 0,1.94 0.23,3.82 0.67,5.63 1.05,4.33 3.28,8.2 6.33,11.25 4.31,4.31 10.28,6.98 16.86,6.98 6.58,0 12.54,-2.67 16.86,-6.98 3.05,-3.05 5.28,-6.91 6.32,-11.24 0.44,-1.8 0.67,-3.69 0.67,-5.63 0,-10.94 -7.36,-20.16 -17.4,-22.97 -2.05,-0.57 -4.22,-0.88 -6.45,-0.88 -2.24,0 -4.4,0.31 -6.45,0.88z"/>
 </g>
</svg>
