<svg width="126" height="71" viewBox="0 0 126 71" fill="none" xmlns="http://www.w3.org/2000/svg">
<path fill-rule="evenodd" clip-rule="evenodd" d="M74.533 13.7045C74.2469 14.8603 73.3349 15.5592 72.7138 16.163L61.9119 26.6962C61.2668 27.2981 61.4444 27.4863 62.0021 28.0085L73.8322 39.6706C76.2399 42.446 72.6639 46.8793 69.0236 43.3474L60.4133 34.8303C59.6741 34.118 59.0136 33.4748 58.2725 32.7653C57.2923 31.8255 54.6034 29.51 54.1906 28.334C53.3102 25.8284 55.6824 24.66 57.1397 23.0511C58.6027 21.4363 69.6735 10.6594 70.1343 10.404C72.4834 9.10415 75.1705 11.1374 74.534 13.7054L74.533 13.7045Z" fill="black"/>
<path fill-rule="evenodd" clip-rule="evenodd" d="M57.8647 5.65785C57.4553 7.60431 56.0652 8.63551 55.0858 9.59654L51.7727 13.044C49.997 14.8013 42.9688 21.556 41.6605 23.054C40.9848 23.8274 40.7095 24.1523 40.0412 24.8159C37.8264 27.011 37.0212 27.2474 38.2328 28.4449L53.3652 43.5788C55.5666 45.7495 59.161 48.2451 57.6325 52.1335C57.1041 53.4759 55.6187 54.745 53.9026 54.9586C51.5405 55.2515 50.3929 53.9304 49.3659 52.8947C48.2333 51.7536 47.1959 50.7346 46.0483 49.6119L42.7292 46.169C41.5593 45.0097 40.5085 43.9617 39.3327 42.8039C37.0525 40.5615 34.9181 38.3709 32.6185 36.156C32.0262 35.5855 31.5856 34.9753 30.9992 34.3941C30.3934 33.7946 29.9052 33.3111 29.3009 32.7116C28.3811 31.8024 26.787 30.553 26.2542 28.9773C25.0397 25.3803 28.4466 22.9991 30.7789 20.7033L37.4945 13.8968C39.422 11.9808 50.0074 1.12271 50.9421 0.620845C54.5351 -1.31189 58.7369 1.5178 57.8661 5.65938L57.8647 5.65785Z" fill="black"/>
<path fill-rule="evenodd" clip-rule="evenodd" d="M97.3335 24.4102H68.1072C66.503 24.4102 65.1907 25.7225 65.1907 27.3266C65.1907 28.9308 66.503 30.2441 68.1072 30.2441H97.3335C98.9377 30.2441 100.25 28.9318 100.25 27.3266C100.25 25.7234 98.9377 24.4102 97.3335 24.4102Z" fill="black"/>
<path d="M90.1022 60.6546C104.378 60.6546 116.084 49.0841 116.298 34.8529C116.301 34.5899 116.322 34.3258 116.364 34.0663C117.329 28.184 126 28.8904 126 34.8513V39.3917C126 56.4259 112.068 70.3584 95.0334 70.3584H30.9667C13.9325 70.3584 0 56.4259 0 39.3917L0.104859 35.0202C0.246789 29.1033 8.86541 28.5966 9.69956 34.4562C9.69956 48.8641 21.4856 60.6546 35.8979 60.6546H90.1022Z" fill="black"/>
</svg>
