<?xml version="1.0" encoding="UTF-8"?>
<!DOCTYPE svg PUBLIC "-//W3C//DTD SVG 1.1//EN" "http://www.w3.org/Graphics/SVG/1.1/DTD/svg11.dtd">
<!-- Creator: CorelDRAW -->
<svg xmlns="http://www.w3.org/2000/svg" xml:space="preserve" width="0.787402in" height="0.787402in" version="1.1" style="shape-rendering:geometricPrecision; text-rendering:geometricPrecision; image-rendering:optimizeQuality; fill-rule:evenodd; clip-rule:evenodd"
viewBox="0 0 787.4 787.4"
 xmlns:xlink="http://www.w3.org/1999/xlink"
 xmlns:xodm="http://www.corel.com/coreldraw/odm/2003">
 <defs>
  <style type="text/css">
   <![CDATA[
    .fil1 {fill:black}
    .fil0 {fill:black;fill-rule:nonzero}
   ]]>
  </style>
 </defs>
 <g id="Layer_x0020_1">
  <metadata id="CorelCorpID_0Corel-Layer"/>
  <g id="_2505793248880">
   <path class="fil0" d="M178.36 509.8c-3.12,0 -7.31,-2.63 -12.57,-7.9 -5.26,-5.27 -9.94,-12.15 -14.03,-20.64 -4.09,-8.49 -6.14,-17.42 -6.14,-26.78 0,-1.76 0.09,-3.52 0.3,-5.28 0.19,-1.76 0.48,-3.51 0.87,-5.27 1.56,-6.44 3.31,-11.85 5.26,-16.25 1.94,-4.39 5.36,-9.07 10.22,-14.05 4.88,-4.98 12.18,-11.41 21.93,-19.32 9.74,-7.9 23.09,-18.3 40.04,-31.18 16.95,-12.88 38.68,-29.28 65.18,-49.19l-147.31 -100.99c-1.56,-5.27 -2.34,-11.42 -2.34,-18.45 0,-8.78 2.05,-16.69 6.14,-23.71 4.09,-7.03 11.01,-10.54 20.74,-10.54 5.46,0 12.08,1.46 19.88,4.39 7.8,2.93 16.56,7.61 26.3,14.05l123.34 79.93c15.98,10.54 28.55,23.71 37.7,39.52 9.16,15.81 13.74,30.45 13.74,43.91 0,5.85 -3.02,12.59 -9.06,20.2 -6.04,7.61 -11.99,13.76 -17.83,18.44l-175.37 126.46c-1.17,0.59 -2.33,1.18 -3.5,1.76 -1.17,0.59 -2.34,0.88 -3.51,0.88z"/>
   <rect class="fil1" x="303.98" y="562.71" width="337.72" height="70.36" rx="35.18" ry="35.18"/>
  </g>
 </g>
</svg>
