<?xml version="1.0" encoding="UTF-8"?>
<!DOCTYPE svg PUBLIC "-//W3C//DTD SVG 1.1//EN" "http://www.w3.org/Graphics/SVG/1.1/DTD/svg11.dtd">
<!-- Creator: CorelDRAW -->
<svg xmlns="http://www.w3.org/2000/svg" xml:space="preserve" width="0.787402in" height="0.787402in" version="1.1" style="shape-rendering:geometricPrecision; text-rendering:geometricPrecision; image-rendering:optimizeQuality; fill-rule:evenodd; clip-rule:evenodd"
viewBox="0 0 787.4 787.4"
 xmlns:xlink="http://www.w3.org/1999/xlink"
 xmlns:xodm="http://www.corel.com/coreldraw/odm/2003">
 <defs>
  <style type="text/css">
   <![CDATA[
    .fil0 {fill:black}
    .fil2 {fill:black;fill-opacity:0.470588}
    .fil1 {fill:black;fill-opacity:0.701961}
   ]]>
  </style>
 </defs>
 <g id="Layer_x0020_1">
  <metadata id="CorelCorpID_0Corel-Layer"/>
  <g id="_2505764775184">
   <path class="fil0" d="M620.74 464.95l-47.87 -0.38c-3.06,53.76 -23.82,99.97 -48.03,132.63 -58.13,78.43 -163.66,112.2 -258.76,84.78 -87.87,-25.33 -155.15,-102.5 -168.85,-194.61 -11.76,-79.08 15.76,-148.74 65.52,-201.43 29.77,-31.53 70.99,-55.65 116.3,-66.19 12.56,-2.92 25.42,-4.89 38.59,-5.79 18.75,-1.29 27.95,-2.8 28.33,17.65l42.64 -41.65 -42.14 -43.17c-1.17,29.98 -18.72,12.01 -81.76,27.2 -27.44,6.61 -56.8,19 -77.48,31.76 -99.22,61.24 -155.15,169.97 -137,291.28 6.06,40.44 23.52,85.41 46.28,116.78 24.68,34.02 46.2,57.76 82.51,80.53 22.78,14.28 45.94,25.69 75.07,34.05 64.22,18.44 127.14,13.87 186.35,-9.22 105.79,-41.26 173.54,-140.57 180.3,-254.21z"/>
   <path class="fil0" d="M598.65 213.54l118.89 0 -0.74 1.32 0 22.43 -118.14 0 -1.32 0.74 1.32 -24.5zm-49.17 0l23.57 0 0 24.5 -1.32 -0.74 -20.94 0 -1.33 0.74 0.02 -24.5zm-47.85 0l23.57 0 0 24.5 -1.32 -0.74 -20.94 0 -1.32 0.74 0.02 -24.5zm-24.12 47.69l263.21 0 0 -71.78 -263.38 -0.2 0.17 71.98z"/>
   <path class="fil0" d="M597.15 69.98l120.38 0 -0.74 1.32 0 22.43 -118.14 0 -1.32 0.74 -0.17 -24.5zm-47.69 0l23.59 0 0 24.5 -1.32 -0.74 -20.94 0 -1.33 0.74 0 -24.5zm-47.79 0l23.52 0 0 24.5 -1.32 -0.74 -20.94 0 -1.32 0.74 0.06 -24.5zm-24.17 47.69l263.21 0 0 -71.78 -263.38 -0.2 0.17 71.98z"/>
   <polygon class="fil1" points="501.54,296.46 501.41,309.09 716.79,309.09 716.8,285.15 704.16,285.26 704.45,296.46 "/>
   <polygon class="fil2" points="501.54,152.89 501.41,165.53 716.04,165.53 716.8,141.57 704.16,141.69 704.83,152.89 "/>
   <polygon class="fil0" points="501.54,152.89 704.83,152.89 704.16,141.69 501.65,141.8 "/>
   <polygon class="fil0" points="501.54,296.46 704.45,296.46 704.16,285.26 501.65,285.37 "/>
   <g>
    <path class="fil0" d="M252.46 398.02c-2.15,-0.86 -7.57,-6.61 -9.55,-8.48 -3.12,-2.95 -5.99,-7.87 -1.32,-12.31 4.7,-4.48 9,-1.03 11.86,1.77 2.73,2.68 6.55,5.8 8.84,8.52 -1,2.02 -7.66,7.07 -9.83,10.5zm172.6 -8.19c0.56,-2.01 0.84,-2 2.28,-3.32 1,-0.93 1.59,-1.41 2.59,-2.37 2.27,-2.19 7.75,-8.06 10.63,-8.7 5.93,-1.31 10.29,3.79 8.85,9.31 -0.94,3.59 -11.59,13.26 -14.11,14.83 -1.44,-0.78 -1.47,-1.19 -2.68,-2.45 -0.94,-0.98 -1.51,-1.53 -2.43,-2.5 -1.65,-1.76 -3.16,-3.52 -5.13,-4.8zm-101.79 -47.04l0.2 15.55c-1.18,0.96 -12.26,3.02 -14.92,3.81 -8.91,2.65 -19.02,6.78 -26.8,11.5 -2.18,1.32 -4.09,2.4 -5.84,3.59 -2.16,1.48 -3.76,2.8 -5.63,4.04 -4.65,-3.69 -9.35,-9.85 -14.43,-13.12 -7.66,-4.93 -16.07,-2.57 -21.09,2.23 -4.67,4.48 -7.54,12.94 -3.13,20.51 2.08,3.57 3.79,4.81 6.49,7.41 1.95,1.87 5.53,5.61 7.52,6.85 -0.33,1.79 -7.65,12.48 -8.98,14.85 -22.11,39.65 -19.34,87.69 5.72,125.66 24.96,37.84 69.7,58.99 116.9,52.61 6.07,-0.82 11.91,-2.07 17.64,-3.78 1.8,-0.54 6.19,-1.67 7.63,-2.74 2.5,-1.85 2.23,-6.3 -0.05,-7.81 -3.16,-2.1 -10.3,1.48 -17.19,3 -5.28,1.17 -13.82,2.67 -19.49,2.43 0,-4.83 0.24,-9.67 0.4,-14.46 0.16,-5.08 0.74,-10.61 -4.86,-10.45 -5.14,0.15 -4.69,4.97 -4.83,9.94 -0.14,5.03 -0.26,10.17 -0.5,15.08 -14.69,-0.45 -28.05,-4.12 -39.85,-9.18 -6.11,-2.62 -10.62,-5.46 -15.79,-8.57 -2.65,-1.6 -12.6,-9.25 -13.37,-10.75 3.63,-3.35 6.05,-5.64 9.6,-9.05 2.1,-2.02 9.07,-6.62 4.39,-11.14 -4.19,-4.06 -9.25,1.99 -11.33,4.17 -3.31,3.47 -7.23,6.14 -9.85,9.24 -13.88,-13.77 -28.46,-39.82 -29.98,-68.5 12.14,-0.13 25.59,3.2 25.13,-4.74 -0.39,-6.8 -13.67,-4.09 -25.32,-5.13 -0.57,-13.65 3.71,-29.02 8.27,-40.15 4.3,-10.51 12.45,-23.98 18.92,-30.24 6.32,3.9 15.65,22.21 21.97,15.46 5.81,-6.2 -11.39,-16.22 -15.06,-23.2 9.55,-8.36 17.6,-14.57 29.72,-20.3 9.89,-4.67 27.36,-10.33 40.31,-10.17 0.51,12.54 -3.59,27.41 4.1,27.62 5.68,0.15 5.08,-5.86 5.2,-10.83 0.13,-5.58 0.36,-11.16 0.5,-16.73 8.74,-2.37 34,5.52 41.19,8.57 9.52,4.05 15.85,8.09 23.53,13.75 2.09,1.54 4.92,3.91 6.87,5.84 -0.7,1.39 -8.49,8.29 -10.61,10.55 -2.22,2.37 -10.85,7.38 -6.1,12.35 2.35,2.46 5.03,1.82 7.26,-0.26 1.99,-1.85 3.67,-3.41 5.72,-5.22l10.91 -10.18c16.57,17.92 27.04,37.49 29.76,70.83 -4.14,0.51 -11.37,-0.16 -15.85,-0.27 -5.16,-0.13 -11.88,-1.34 -11.71,4.71 0.15,5.51 5.98,4.82 11.22,4.98 5.34,0.17 10.72,0.23 16.09,0.5 0.23,4.26 -0.65,10.13 -1.35,14.3 -0.84,4.96 1.45,9.45 6.65,7.11 3.16,-1.43 3.31,-7.35 3.87,-11.63 3.12,-24.1 -1.65,-50.59 -12.92,-71.32l-8.72 -14.5c2.13,-1.5 5.28,-4.98 7.33,-6.95 2.36,-2.27 5.57,-4.91 7.4,-7.52 4.99,-7.11 3.76,-16.9 -1.5,-22.26 -4.66,-4.75 -14.62,-7.53 -21.74,-2.44 -3.06,2.19 -11.29,10.81 -15.49,14.33 -2.25,-1.09 -3.9,-2.8 -6.13,-4.34 -14.35,-9.92 -36.04,-18.72 -53.62,-20.02l0 -15.42c0,-3.8 -2.05,-6.59 -6.32,-5.57 -4.57,1.09 -3.43,8.78 -3.43,15.02l0 5.08 -14.87 0.22c-0.12,-5.21 0.7,-15.96 -0.87,-18.53 -2,-3.27 -8.91,-3.24 -8.92,3.78z"/>
    <path class="fil0" d="M348.91 481.96c-3.15,9.24 -17.64,4.87 -14.1,-5.06 3.09,-8.65 17.28,-4.24 14.1,5.06zm-11.31 -60.15l-0.02 40.76c-0.11,0.09 -0.28,0.07 -0.34,0.25l-3.1 1.49c-5.95,2.77 -10.15,9.65 -9.41,17.17 0.36,3.68 2.31,5.72 2.92,8.74 -5.46,3.9 -22.25,20.58 -29,26.07 -7.56,6.15 -1.78,10 0.51,10.23 3.79,0.39 17.43,-13.53 20.61,-16.47 3.29,-3.05 6.6,-5.56 9.75,-8.61 8.6,-8.31 5.54,-4.65 12.34,-4.65 8.86,0 15.48,-6.16 16.85,-13.95 2.5,-14.19 -9.85,-18.42 -11.42,-19.78 -0.37,-11.05 -0.05,-22.68 -0.05,-33.8 0,-4.64 1.14,-12.75 -1.73,-15.13 -1.72,-1.43 -4.93,-1.23 -6.52,0.35 -1.84,1.82 -1.39,4.31 -1.39,7.33z"/>
    <path class="fil0" d="M471.65 436.62c-4.04,1.73 -4.03,6.62 -0.57,8.58 9.12,5.18 16.54,7.63 21.73,21 7.06,18.2 -3.3,32.79 -12.35,40.52 -14.55,12.43 -38.95,21.51 -59.44,26.08 -3.9,0.87 -8.69,1.09 -10.03,4.31 -1.85,4.42 2.04,7.23 6.8,6.36 29.84,-5.47 62.7,-20.11 76.69,-37.15 15.47,-18.84 13.33,-45.17 -4.26,-60.4 -2.25,-1.95 -13.72,-11.39 -18.57,-9.31z"/>
    <path class="fil0" d="M319.04 321.76l-0.18 -1.83 0.03 -9.94 0.06 -1.96 43.03 0 0.03 13.41c-2.69,1.16 -37.34,0.6 -42.97,0.33zm-9.88 -10.79c0,11.77 -1.78,20.6 9.83,20.6l43.24 0c11.82,0 9.54,-9.85 9.57,-20.1 0.04,-13.84 -3.54,-13.12 -16.52,-13.12 -9.78,0 -19.55,0 -29.33,0 -12.68,0 -16.79,-1.05 -16.79,12.62z"/>
    <path class="fil0" d="M518.81 489.92c0,29.06 -19.47,45.18 -40.96,53.98 -14.97,6.13 -29.18,9.9 -45.58,13.12 -3.33,0.65 -6.36,1.76 -5.84,5.87 0.88,6.95 12.04,2.81 17.38,1.62 12.56,-2.78 24.77,-6.16 35.87,-10.85 22.39,-9.46 41.02,-23.41 47,-47.44 1.02,-4.11 6.14,-30.67 -5.48,-25.84 -3.5,1.45 -2.4,5.33 -2.4,9.54z"/>
    <path class="fil0" d="M378.31 559.43c3.11,-3.8 7.19,-7.68 10.66,-11.48l26.9 -28.78c1.66,-3.38 -0.64,-6.57 -3.46,-6.97 -3.6,-0.51 -5.35,2.48 -6.84,4.14l-16.41 17.39c-7.3,7.97 -14.63,15.3 -22.02,23.21 -7.82,8.38 2.11,9.86 6.24,11.23 5.83,1.93 11.3,3.6 16.99,5.42 11.45,3.67 22.57,7.17 33.89,10.86 9.43,3.08 11.1,-6.21 5.09,-8.58 -5.02,-1.98 -11.59,-3.67 -16.93,-5.38 -5.69,-1.83 -11.22,-3.67 -16.95,-5.43 -4.8,-1.48 -12.93,-3.72 -17.17,-5.63z"/>
    <path class="fil0" d="M113.14 474.29c-3.17,0.89 -5.12,4.73 -2.52,7.79 2.02,2.39 6.67,1.67 10.55,1.67 11.19,0 71.87,0.51 74.21,-0.26 2.46,-0.81 4.49,-4.56 2.37,-7.54 -1.86,-2.61 -6.54,-1.85 -10.48,-1.85 -11.8,0 -71.1,-0.67 -74.13,0.19z"/>
    <path class="fil0" d="M137.5 513.55c-2.87,0.69 -5,3.28 -3.45,6.68 1.35,2.96 4.54,2.91 8.48,2.9 8.1,-0.04 65.21,0.44 67.9,-0.17 2.7,-0.61 4.72,-3.44 3.4,-6.9 -1.18,-3.07 -4.67,-2.7 -8.67,-2.69 -7.89,0.03 -65.13,-0.43 -67.66,0.19z"/>
    <path class="fil0" d="M151.98 444.5l47.22 0c4.75,0 10.44,0.93 11.32,-3.94 1.11,-6.14 -4.84,-5.82 -9.83,-5.82l-48.71 0c-8.73,0 -8.8,9.76 0,9.76z"/>
   </g>
  </g>
 </g>
</svg>
