<svg width="132" height="156" viewBox="0 0 132 156" fill="none" xmlns="http://www.w3.org/2000/svg">
<path opacity="0.08" d="M17.2517 16.389L10.3511 130.25C10.3511 134.85 12.0762 137.725 15.5266 138.876H115.586C119.036 137.725 120.761 134.85 120.761 130.25L113.861 16.389H17.2517Z" fill="white"/>
<g opacity="0.3">
<path d="M65.5562 155.265C101.762 155.265 131.112 152.175 131.112 148.364C131.112 144.553 101.762 141.463 65.5562 141.463C29.3505 141.463 0 144.553 0 148.364C0 152.175 29.3505 155.265 65.5562 155.265Z" fill="black"/>
<path d="M65.5558 151.814C99.8559 151.814 127.662 147.18 127.662 141.463C127.662 135.747 99.8559 131.112 65.5558 131.112C31.2557 131.112 3.44995 135.747 3.44995 141.463C3.44995 147.18 31.2557 151.814 65.5558 151.814Z" fill="url(#paint0_radial_85_1346)"/>
<path d="M65.5566 148.364C97.9512 148.364 124.212 144.502 124.212 139.738C124.212 134.974 97.9503 131.112 65.5558 131.112C33.1612 131.112 6.90112 134.974 6.90112 139.738C6.90112 144.502 33.1621 148.364 65.5566 148.364Z" fill="url(#paint1_radial_85_1346)"/>
<path d="M65.5558 143.188C99.8559 143.188 127.662 140.871 127.662 138.013C127.662 135.154 99.8559 132.837 65.5558 132.837C31.2557 132.837 3.44995 135.154 3.44995 138.013C3.44995 140.871 31.2557 143.188 65.5558 143.188Z" fill="white"/>
<path d="M13.8018 10.351L6.90112 131.112C6.90112 135.713 8.62629 138.588 12.0766 139.738H119.037C122.487 138.588 124.212 135.713 124.212 131.112L117.311 10.351H13.8018Z" fill="url(#paint2_linear_85_1346)"/>
<path d="M16.5043 17.736L19.1024 126.609L36.2884 125.105L30.253 16.5331L16.5043 17.736Z" fill="url(#paint3_linear_85_1346)"/>
<path d="M111.451 23.0749L109.304 126.792L92.1177 125.289L101.139 22.1727L111.451 23.0749Z" fill="url(#paint4_linear_85_1346)"/>
<path d="M72.4572 22.4271H58.6559C56.7503 22.4271 55.2056 23.9719 55.2056 25.8774V131.112C55.2056 133.018 56.7503 134.563 58.6559 134.563H72.4572C74.3627 134.563 75.9075 133.018 75.9075 131.112V25.8774C75.9075 23.9719 74.3627 22.4271 72.4572 22.4271Z" fill="url(#paint5_linear_85_1346)"/>
<path d="M65.5572 20.7019C96.0462 20.7019 120.762 16.0677 120.762 10.351C120.762 4.63429 96.0462 0 65.5572 0C35.0683 0 10.3521 4.63429 10.3521 10.351C10.3521 16.0677 35.0683 20.7019 65.5572 20.7019Z" fill="url(#paint6_linear_85_1346)"/>
<path d="M65.5556 13.8013C94.1391 13.8013 117.31 10.7118 117.31 6.90065C117.31 3.08952 94.1391 0 65.5556 0C36.9722 0 13.8008 3.08952 13.8008 6.90065C13.8008 10.7118 36.9722 13.8013 65.5556 13.8013Z" fill="white"/>
<path d="M65.5555 8.62562C92.2334 8.62562 113.86 7.08086 113.86 5.1753C113.86 3.26974 92.2334 1.72498 65.5555 1.72498C38.8777 1.72498 17.251 3.26974 17.251 5.1753C17.251 7.08086 38.8777 8.62562 65.5555 8.62562Z" fill="white"/>
<path d="M65.5561 17.2517C90.3284 17.2517 110.41 14.1622 110.41 10.3511C110.41 6.53996 90.3284 3.45044 65.5561 3.45044C40.7838 3.45044 20.7019 6.53996 20.7019 10.3511C20.7019 14.1622 40.7838 17.2517 65.5561 17.2517Z" fill="#1A2028"/>
<path d="M65.5553 16.3892C89.3748 16.3892 108.684 14.072 108.684 11.2137C108.684 8.35535 89.3748 6.03821 65.5553 6.03821C41.7358 6.03821 22.4263 8.35535 22.4263 11.2137C22.4263 14.072 41.7358 16.3892 65.5553 16.3892Z" fill="#0A0E12"/>
<path d="M13.8018 10.351L6.90112 131.112Z" fill="black"/>
<path d="M32.7772 42.2663C34.2064 42.2663 35.3649 41.1077 35.3649 39.6786C35.3649 38.2494 34.2064 37.0908 32.7772 37.0908C31.348 37.0908 30.1895 38.2494 30.1895 39.6786C30.1895 41.1077 31.348 42.2663 32.7772 42.2663Z" fill="white"/>
<path d="M93.1597 58.6552C94.1125 58.6552 94.8849 57.8828 94.8849 56.93C94.8849 55.9772 94.1125 55.2048 93.1597 55.2048C92.2069 55.2048 91.4346 55.9772 91.4346 56.93C91.4346 57.8828 92.2069 58.6552 93.1597 58.6552Z" fill="white"/>
<path d="M41.4044 102.13C42.5478 102.13 43.4746 101.203 43.4746 100.059C43.4746 98.916 42.5478 97.9891 41.4044 97.9891C40.2611 97.9891 39.3342 98.916 39.3342 100.059C39.3342 101.203 40.2611 102.13 41.4044 102.13Z" fill="white"/>
<path d="M84.5342 110.065C85.2964 110.065 85.9143 109.447 85.9143 108.685C85.9143 107.923 85.2964 107.305 84.5342 107.305C83.772 107.305 83.1541 107.923 83.1541 108.685C83.1541 109.447 83.772 110.065 84.5342 110.065Z" fill="white"/>
<path d="M12.0766 139.738H119.037Z" fill="black"/>
</g>
<defs>
<radialGradient id="paint0_radial_85_1346" cx="0" cy="0" r="1" gradientUnits="userSpaceOnUse" gradientTransform="translate(6555.62 7763.23) scale(65.5562 77.6323)">
<stop stop-color="#C0D0E0"/>
<stop offset="0.6" stop-color="#A8B8C8"/>
<stop offset="1" stop-color="#8898A8"/>
</radialGradient>
<radialGradient id="paint1_radial_85_1346" cx="0" cy="0" r="1" gradientUnits="userSpaceOnUse" gradientTransform="translate(6555.62 7763.23) scale(65.5562 77.6323)">
<stop stop-color="#C0D0E0"/>
<stop offset="0.6" stop-color="#A8B8C8"/>
<stop offset="1" stop-color="#8898A8"/>
</radialGradient>
<linearGradient id="paint2_linear_85_1346" x1="0" y1="0" x2="95.9998" y2="160.664" gradientUnits="userSpaceOnUse">
<stop stop-color="white" stop-opacity="0.2"/>
<stop offset="0.5" stop-color="white" stop-opacity="0.1"/>
<stop offset="1" stop-color="white" stop-opacity="0.15"/>
</linearGradient>
<linearGradient id="paint3_linear_85_1346" x1="-5.14797" y1="81.1825" x2="106.321" y2="171.277" gradientUnits="userSpaceOnUse">
<stop stop-color="#D9D9D9"/>
<stop offset="0.387169" stop-color="#A2A2A2"/>
<stop offset="1" stop-color="#737373"/>
</linearGradient>
<linearGradient id="paint4_linear_85_1346" x1="68.1775" y1="83.5459" x2="19.0866" y2="134.68" gradientUnits="userSpaceOnUse">
<stop stop-color="white"/>
<stop offset="0.356083" stop-color="#D5D5D5"/>
<stop offset="1" stop-color="#999999"/>
</linearGradient>
<linearGradient id="paint5_linear_85_1346" x1="131.112" y1="77.8203" x2="0.448008" y2="69.979" gradientUnits="userSpaceOnUse">
<stop stop-color="#D9D9D9"/>
<stop offset="0.504808" stop-color="#A6A6A6"/>
<stop offset="1" stop-color="#737373"/>
</linearGradient>
<linearGradient id="paint6_linear_85_1346" x1="0" y1="0" x2="0" y2="155.265" gradientUnits="userSpaceOnUse">
<stop stop-color="#E8EEF5"/>
<stop offset="0.3" stop-color="#D0DAE8"/>
<stop offset="0.7" stop-color="#B8C8D8"/>
<stop offset="0.926813" stop-color="#A0B0C0"/>
</linearGradient>
</defs>
</svg>
