<svg width="27" height="26" viewBox="0 0 27 26" fill="none" xmlns="http://www.w3.org/2000/svg">
<path d="M0 4.98077C0 2.22997 2.18652 0 4.88372 0H9.06977C11.767 0 13.9535 2.22997 13.9535 4.98077V7.82692C13.9535 10.5777 11.767 12.8077 9.06977 12.8077H4.88372C2.18652 12.8077 0 10.5777 0 7.82692V4.98077Z" fill="#D9D9D9"/>
<path d="M12.5581 17.7884C12.5581 15.0376 14.7446 12.8076 17.4418 12.8076H21.6279C24.3251 12.8076 26.5116 15.0376 26.5116 17.7884V20.6345C26.5116 23.3853 24.3251 25.6153 21.6279 25.6153H17.4418C14.7446 25.6153 12.5581 23.3853 12.5581 20.6345V17.7884Z" fill="#D9D9D9"/>
</svg>
