<svg width="81" height="48" viewBox="0 0 81 48" fill="none" xmlns="http://www.w3.org/2000/svg">
<path d="M28.5832 31.1268C34.5694 34.1639 41.876 36.3207 49.4467 29.7623L77.2164 10.5274C79.5932 11.3637 83.4709 14.0927 78.189 16.8217L47.466 35.3523C43.2845 37.5971 39.147 38.3014 33.0289 36.3647L6.44332 26.4611C-1.61157 23.9962 -1.73972 21.2318 3.97844 18.3182L28.5832 31.1268Z" fill="url(#paint0_linear_85_949)"/>
<path d="M0.0610559 32.9942C-0.0269754 31.7177 0.0170401 22.6064 0.0170401 22.6064C1.16145 24.279 1.51358 24.6312 5.29893 25.9957L31.5764 35.8112C39.9394 39.0243 44.6931 36.7355 47.9062 35.0629L78.8493 16.4442C80.1265 15.6361 80.484 15.0319 80.83 14.0927L80.874 24.9393C80.5265 25.833 80.2534 26.1842 79.6856 26.6559L45.7054 46.8151C41.6224 48.1719 39.0547 48.2589 34.0412 47.2553L1.8657 35.1069C0.874334 34.5476 0.149087 34.2706 0.0610559 32.9942Z" fill="url(#paint1_linear_85_949)" fill-opacity="0.64"/>
<path d="M33.3327 2.00706C37.2061 -0.72192 46.1413 -0.325776 49.4425 1.17072L77.4805 10.326C79.8574 11.1623 83.2026 13.8033 77.9207 16.5323L47.5058 34.5787C43.9845 36.6915 40.4632 37.8359 33.2446 35.9432L6.65911 26.1277C-1.39578 23.6628 -1.56795 21.0304 4.15021 18.1168L33.3327 2.00706Z" fill="url(#paint2_linear_85_949)"/>
<path d="M14.8431 34.5822C15.2985 33.6992 16.3551 33.3131 17.2725 33.6945L19.5664 34.6481L21.8323 35.545C22.9534 35.9888 23.5717 37.1952 23.2772 38.3645C23.1117 39.2836 22.1409 39.8162 21.2768 39.462L15.8157 37.2235C14.7795 36.7987 14.3298 35.5775 14.8431 34.5822Z" fill="#D9D9D9"/>
<path d="M15.1578 34.5115C15.4937 33.7626 16.4948 33.3361 17.2863 33.654C17.2863 33.654 22.0689 35.615 22.6442 35.8358C23.2196 36.0565 23.6181 37.7535 23.2821 38.5023C22.9461 39.2512 21.8543 38.9273 21.0628 38.6095L15.957 36.6287C15.1675 36.2994 14.8218 35.2603 15.1578 34.5115Z" fill="white"/>
<path d="M15.4121 34.6439C15.722 33.9498 16.5651 33.626 17.2952 33.9206L22.087 35.8543C22.3517 35.9611 22.6155 36.0922 22.7704 36.332C23.1167 36.8678 23.3665 37.8369 23.1211 38.3866C22.8112 39.0807 22.093 38.823 21.3629 38.5284L16.1657 36.4917C15.4375 36.1864 15.1022 35.338 15.4121 34.6439Z" fill="#2C353A"/>
<path d="M17.1887 35.1238L17.1471 34.6248C17.1466 34.6185 17.1464 34.6154 17.1474 34.6133C17.1486 34.6107 17.151 34.6088 17.1538 34.6083C17.1561 34.6079 17.1591 34.609 17.165 34.6111L22.7266 36.6256C22.7278 36.626 22.7289 36.6265 22.7298 36.6269C22.7313 36.6276 22.7325 36.6287 22.7335 36.6301C22.7345 36.6315 22.7351 36.633 22.7353 36.6347C22.7353 36.6357 22.7354 36.6369 22.7354 36.6381V37.1817C22.7354 37.1876 22.7354 37.1905 22.7343 37.1925C22.733 37.1949 22.7306 37.1966 22.7279 37.197C22.7256 37.1973 22.7229 37.1963 22.7174 37.1942L17.1974 35.1352C17.1963 35.1348 17.1953 35.1344 17.1945 35.134C17.1931 35.1333 17.1919 35.1323 17.191 35.131C17.19 35.1298 17.1894 35.1284 17.1891 35.1268C17.189 35.1259 17.1888 35.1249 17.1887 35.1238Z" fill="white"/>
<path d="M17.1596 34.5945L17.9337 34.0784C17.9361 34.0768 17.9392 34.0765 17.9419 34.0775L22.2503 35.7921L22.2519 35.7929C22.8351 36.1698 23.0399 36.4254 23.1304 36.9747C23.131 36.9783 23.1293 36.9821 23.126 36.9839L22.7462 37.1949C22.7409 37.1978 22.7343 37.1946 22.7333 37.1886L22.6481 36.6778C22.6476 36.6747 22.6455 36.6721 22.6425 36.671L17.1614 34.6101C17.1547 34.6075 17.1536 34.5985 17.1596 34.5945Z" fill="white"/>
<path d="M18.5103 36.9813L17.6736 36.5849L18.3782 36.1886L19.1709 36.5849L18.5103 36.9813Z" fill="white"/>
<path d="M21.5034 38.0377L20.6667 37.6413L21.3713 37.245L22.164 37.6413L21.5034 38.0377Z" fill="white"/>
<path d="M44.9529 4.9121C44.9529 6.05464 43.4749 6.98084 41.6517 6.98084C39.8285 6.98084 38.3505 6.05464 38.3505 4.9121C38.3505 3.76957 39.8285 2.84336 41.6517 2.84336C43.4749 2.84336 44.9529 3.76957 44.9529 4.9121Z" fill="#9EAADC"/>
<path d="M44.2486 4.9121C44.2486 5.81154 43.0859 6.54069 41.6517 6.54069C40.2174 6.54069 39.0548 5.81154 39.0548 4.9121C39.0548 4.01266 40.2174 3.28352 41.6517 3.28352C43.0859 3.28352 44.2486 4.01266 44.2486 4.9121Z" fill="white"/>
<path d="M54.1049 6.20229L60.6879 14.0476L53.2515 20.2215C51.4913 21.6828 48.8696 21.4435 47.3957 19.6869L46.1502 18.2027C44.6763 16.4461 44.9083 13.8375 46.6685 12.3762L54.1049 6.20229Z" fill="#CAE2FF" fill-opacity="0.62"/>
<path d="M26.4873 21.9002L33.0703 29.7455L35.6199 27.6288C36.5 26.8981 36.616 25.5938 35.879 24.7155L31.9648 20.0507C31.2279 19.1725 29.917 19.0528 29.0369 19.7834L26.4873 21.9002Z" fill="#CAE2FF" fill-opacity="0.62"/>
<path d="M25.8006 24.0891L30.7824 30.0262L32.0572 28.9678L27.0755 23.0308L25.8006 24.0891Z" fill="#CAE2FF" fill-opacity="0.62"/>
<path d="M45.6722 18.5996C45.8189 18.4778 46.0373 18.4977 46.1602 18.6441L46.9608 19.5983C47.0836 19.7447 47.0643 19.962 46.9176 20.0838C46.7709 20.2056 46.5525 20.1857 46.4296 20.0393L45.629 19.0851C45.5062 18.9387 45.5255 18.7213 45.6722 18.5996Z" fill="#CAE2FF" fill-opacity="0.62"/>
<path d="M57.5985 5.64016L61.7796 10.623L59.6549 12.387L55.4738 7.40413L57.5985 5.64016Z" fill="#CAE2FF" fill-opacity="0.62"/>
<path d="M57.7445 7.31773L58.2782 7.95384L57.6408 8.48303L57.1071 7.84692L57.7445 7.31773Z" fill="#342B2B"/>
<path d="M59.7905 9.75614L60.3243 10.3922L59.6869 10.9214L59.1531 10.2853L59.7905 9.75614Z" fill="#342B2B"/>
<path d="M45.0361 19.6673C45.2708 19.4725 45.6203 19.5044 45.8169 19.7386C46.0134 19.9728 45.9824 20.3206 45.7478 20.5155L34.7917 22.5604C34.557 22.7553 34.2074 22.7234 34.0109 22.4892C33.8144 22.2549 33.8453 21.9071 34.08 21.7123L45.0361 19.6673Z" fill="#CAE2FF" fill-opacity="0.62"/>
<defs>
<linearGradient id="paint0_linear_85_949" x1="81.5661" y1="7.63505" x2="9.97587" y2="42.476" gradientUnits="userSpaceOnUse">
<stop stop-color="white"/>
<stop offset="0.317362" stop-color="#8B8585"/>
<stop offset="0.56257" stop-color="white"/>
<stop offset="0.807779" stop-color="#6B6B6B"/>
<stop offset="1" stop-color="white"/>
</linearGradient>
<linearGradient id="paint1_linear_85_949" x1="80.9138" y1="24.1036" x2="0.0397496" y2="24.1036" gradientUnits="userSpaceOnUse">
<stop stop-color="#A992C5"/>
<stop offset="0.420074" stop-color="#4B5C6D"/>
<stop offset="0.472753" stop-color="#8294A5"/>
<stop offset="0.547381" stop-color="#495A6B"/>
<stop offset="1" stop-color="#917AD0"/>
</linearGradient>
<linearGradient id="paint2_linear_85_949" x1="81.112" y1="17.5192" x2="19.335" y2="58.4207" gradientUnits="userSpaceOnUse">
<stop stop-color="#6A62B0"/>
<stop offset="1" stop-color="#191D21"/>
</linearGradient>
</defs>
</svg>
