<svg width="40" height="40" viewBox="0 0 40 40" fill="none" xmlns="http://www.w3.org/2000/svg">
<path d="M20.001 20.0003C11.9898 24.0829 7.73102 23.1427 0 20.0221C7.23797 15.3594 12.4148 15.9747 20.001 20.0003Z" fill="url(#paint0_linear_85_1375)"/>
<path d="M19.999 19.9999C28.0102 24.0826 32.269 23.1423 40 20.0217C32.762 15.359 27.5852 15.9743 19.999 19.9999Z" fill="url(#paint1_linear_85_1375)"/>
<path d="M20 20.0001C11.0958 18.7496 8.14655 15.5368 3.60364 8.54643C12.2072 8.87826 16.0949 12.3514 20 20.0001Z" fill="url(#paint2_linear_85_1375)"/>
<path d="M20 19.9998C28.9042 18.7494 31.8534 15.5365 36.3964 8.54618C27.7928 8.87801 23.9051 12.3512 20 19.9998Z" fill="url(#paint3_linear_85_1375)"/>
<path d="M20.0003 19.9998C12.4589 15.1037 11.1438 10.9455 9.98093 2.69025C17.6382 6.62684 19.6937 11.4175 20.0003 19.9998Z" fill="url(#paint4_linear_85_1375)"/>
<path d="M19.9997 19.9995C27.5411 15.1033 28.8562 10.9451 30.0191 2.68988C22.3618 6.62647 20.3063 11.4172 19.9997 19.9995Z" fill="url(#paint5_linear_85_1375)"/>
<path d="M20.0057 20C15.9228 11.9892 16.8631 7.73064 19.9838 0C24.6468 7.23762 24.0315 12.4142 20.0057 20Z" fill="url(#paint6_linear_85_1375)"/>
<path d="M20.0011 19.9995C15.1047 27.5406 10.9463 28.8556 2.6907 30.0184C6.62747 22.3616 11.4184 20.3062 20.0011 19.9995Z" fill="url(#paint7_linear_85_1375)"/>
<path d="M19.9989 19.9992C24.8953 27.5403 29.0537 28.8552 37.3093 30.0181C33.3725 22.3612 28.5816 20.3058 19.9989 19.9992Z" fill="url(#paint8_linear_85_1375)"/>
<path d="M20.0006 19.9993C19.5309 28.9782 16.5872 32.1961 10.0191 37.3308C9.5998 28.7314 12.7211 24.556 20.0006 19.9993Z" fill="url(#paint9_linear_85_1375)"/>
<path d="M19.9994 19.999C20.4691 28.9778 23.4128 32.1957 29.9809 37.3304C30.4002 28.7311 27.2789 24.5557 19.9994 19.999Z" fill="url(#paint10_linear_85_1375)"/>
<path d="M19.9987 20C24.0816 28.0108 23.1413 32.2694 20.0206 40C15.3576 32.7624 15.9729 27.5858 19.9987 20Z" fill="url(#paint11_linear_85_1375)"/>
<defs>
<linearGradient id="paint0_linear_85_1375" x1="-0.186412" y1="19.9758" x2="20.2695" y2="20.4487" gradientUnits="userSpaceOnUse">
<stop stop-color="#AAA4E8"/>
<stop offset="1" stop-color="#FF005E" stop-opacity="0.32"/>
</linearGradient>
<linearGradient id="paint1_linear_85_1375" x1="40.1864" y1="19.9754" x2="19.7305" y2="20.4483" gradientUnits="userSpaceOnUse">
<stop stop-color="#AAA4E8"/>
<stop offset="1" stop-color="#FF005E" stop-opacity="0.32"/>
</linearGradient>
<linearGradient id="paint2_linear_85_1375" x1="3.4775" y1="8.40159" x2="19.9622" y2="20.5221" gradientUnits="userSpaceOnUse">
<stop stop-color="#AAA4E8"/>
<stop offset="1" stop-color="#FF005E" stop-opacity="0.32"/>
</linearGradient>
<linearGradient id="paint3_linear_85_1375" x1="36.5225" y1="8.40134" x2="20.0378" y2="20.5219" gradientUnits="userSpaceOnUse">
<stop stop-color="#AAA4E8"/>
<stop offset="1" stop-color="#FF005E" stop-opacity="0.32"/>
</linearGradient>
<linearGradient id="paint4_linear_85_1375" x1="9.92782" y1="2.50567" x2="19.7455" y2="20.457" gradientUnits="userSpaceOnUse">
<stop stop-color="#AAA4E8"/>
<stop offset="1" stop-color="#FF005E" stop-opacity="0.32"/>
</linearGradient>
<linearGradient id="paint5_linear_85_1375" x1="30.0722" y1="2.50531" x2="20.2545" y2="20.4566" gradientUnits="userSpaceOnUse">
<stop stop-color="#AAA4E8"/>
<stop offset="1" stop-color="#FF005E" stop-opacity="0.32"/>
</linearGradient>
<linearGradient id="paint6_linear_85_1375" x1="20.0301" y1="-0.186403" x2="19.5573" y2="20.2685" gradientUnits="userSpaceOnUse">
<stop stop-color="#AAA4E8"/>
<stop offset="1" stop-color="#FF005E" stop-opacity="0.32"/>
</linearGradient>
<linearGradient id="paint7_linear_85_1375" x1="2.50611" y1="30.0715" x2="20.4575" y2="20.2529" gradientUnits="userSpaceOnUse">
<stop stop-color="#AAA4E8"/>
<stop offset="1" stop-color="#FF005E" stop-opacity="0.32"/>
</linearGradient>
<linearGradient id="paint8_linear_85_1375" x1="37.4939" y1="30.0712" x2="19.5425" y2="20.2525" gradientUnits="userSpaceOnUse">
<stop stop-color="#AAA4E8"/>
<stop offset="1" stop-color="#FF005E" stop-opacity="0.32"/>
</linearGradient>
<linearGradient id="paint9_linear_85_1375" x1="9.88576" y1="37.469" x2="20.5225" y2="19.9905" gradientUnits="userSpaceOnUse">
<stop stop-color="#AAA4E8"/>
<stop offset="1" stop-color="#FF005E" stop-opacity="0.32"/>
</linearGradient>
<linearGradient id="paint10_linear_85_1375" x1="30.1142" y1="37.4687" x2="19.4775" y2="19.9902" gradientUnits="userSpaceOnUse">
<stop stop-color="#AAA4E8"/>
<stop offset="1" stop-color="#FF005E" stop-opacity="0.32"/>
</linearGradient>
<linearGradient id="paint11_linear_85_1375" x1="19.9743" y1="40.1864" x2="20.4471" y2="19.7315" gradientUnits="userSpaceOnUse">
<stop stop-color="#AAA4E8"/>
<stop offset="1" stop-color="#FF005E" stop-opacity="0.32"/>
</linearGradient>
</defs>
</svg>
