<svg width="38" height="41" viewBox="0 0 38 41" fill="none" xmlns="http://www.w3.org/2000/svg">
<path d="M16.1689 0.0296244C16.0986 0.0466075 15.7647 0.0975571 15.4308 0.148507C11.5643 0.759902 8.43597 3.74894 7.87357 7.36636C7.68024 8.67407 7.96144 10.5083 8.54142 11.8669C8.68201 12.1726 8.92806 12.801 9.08624 13.2765C10.1232 16.1467 11.8982 18.2866 14.1302 19.3735C14.7454 19.6792 15.7471 19.9849 16.1514 20.0019C16.2568 20.0019 15.6417 20.0698 14.7805 20.1207C10.3516 20.4095 7.55722 21.1397 5.23733 22.6512C2.97016 24.1118 1.49387 26.3706 0.720572 29.5124C0.298774 31.1938 0.123025 32.943 0.03515 35.7113L0 37.5964L0.597548 37.8682C2.84714 38.8702 6.71362 39.6005 11.7752 39.9741C13.0757 40.076 20.879 40.1269 20.9669 40.042C20.9845 40.025 20.6505 39.6344 20.2112 39.2098C18.5943 37.5964 17.5398 35.6434 17.0653 33.4186C16.8544 32.3826 16.8719 30.1748 17.1004 29.1388C17.2059 28.7142 17.2762 28.3406 17.2762 28.3236C17.2762 28.3066 17.1883 28.3576 17.0653 28.4595C16.8895 28.6293 16.8544 28.6293 16.7489 28.5274C16.6962 28.4595 15.2726 27.0499 13.6206 25.3855C11.9334 23.6872 10.6328 22.3116 10.668 22.2776C10.7559 22.2097 11.9334 22.0059 13.1812 21.87C14.4642 21.7172 19.8421 21.7511 21.0899 21.904L22.0214 22.0059L22.4608 21.7341C22.7068 21.5813 23.2341 21.3096 23.6383 21.1227L24.3764 20.8001L23.5504 20.6302C22.3905 20.3925 21.002 20.2226 19.2094 20.1207C17.9264 20.0358 17.7331 20.0188 18.1022 19.9679C19.0512 19.832 20.299 19.2716 21.3184 18.4904C22.7068 17.4374 24.0249 15.6372 24.7279 13.82C24.8334 13.5482 25.0443 13.1067 25.1673 12.835C25.7297 11.765 26.0285 9.91384 25.9582 8.09664C25.8527 5.85486 25.0091 3.96972 23.445 2.44124C22.0741 1.11655 20.4045 0.335322 18.4009 0.0635907C17.8737 -0.00434206 16.4677 -0.0213252 16.1689 0.0296244ZM23.3395 7.97776C23.7086 8.28346 23.8668 10.5083 23.6031 11.7141C22.7595 15.5353 19.9475 18.4054 17.0125 18.4054C14.6575 18.4054 12.2321 16.4524 11.0195 13.5313C10.7207 12.801 10.4571 11.9179 10.3692 11.2725C10.3165 10.8819 10.3165 10.8649 10.4571 10.8989C12.197 11.4253 13.4097 11.5782 14.5696 11.4423C15.9229 11.2725 16.8895 10.8479 18.067 9.89686C19.4027 8.80994 20.5275 8.16457 21.4766 7.94379C22.0214 7.80793 23.1638 7.82491 23.3395 7.97776Z" fill="white"/>
<path d="M27.0654 22.6852C21.5996 23.6193 18.2252 28.986 19.93 34.047C20.9493 37.07 23.568 39.2948 26.8896 39.9741C27.5223 40.093 29.5962 40.093 30.2113 39.9741C33.9548 39.1929 36.6789 36.5605 37.4873 32.9431C37.6103 32.3317 37.6103 30.3276 37.4873 29.7332C36.6613 26.0139 33.779 23.3136 29.9828 22.6852C29.1217 22.5324 27.9441 22.5324 27.0654 22.6852ZM29.7368 25.2157C30.6155 25.4195 31.2306 25.7761 31.8458 26.3875C32.4433 26.9819 32.7421 27.5084 32.9706 28.3406C33.4627 30.1918 32.6894 32.2637 31.1603 33.2318C30.9143 33.3846 30.5101 33.5714 30.2992 33.6224L29.895 33.7243V35.1169H27.2939V31.992L28.2956 31.958C29.1744 31.941 29.3326 31.9071 29.7016 31.7203C30.3168 31.4146 30.5628 31.1768 30.8791 30.6164C31.1252 30.1578 31.1603 30.0729 31.1603 29.4615C31.1603 28.8501 31.1428 28.7482 30.8616 28.2897C30.3519 27.3895 29.4204 26.897 28.4011 26.965C27.1357 27.0669 26.2569 28.0009 26.0636 29.4785L25.9757 30.0899H24.0425L24.0952 29.5124C24.2183 28.1708 24.6928 27.1348 25.5364 26.3196C26.626 25.2157 28.155 24.8251 29.7368 25.2157ZM29.2095 36.5095C29.8071 36.7813 30.0356 37.5285 29.7192 38.2248C29.438 38.8023 28.6647 39.023 27.9441 38.7173C27.6805 38.5985 27.5575 38.4966 27.4345 38.2248C27.1181 37.5285 27.329 36.7813 27.9441 36.5095C28.1375 36.4246 28.4187 36.3567 28.5768 36.3567C28.735 36.3567 29.0162 36.4246 29.2095 36.5095Z" fill="white"/>
</svg>
