<svg width="78" height="56" viewBox="0 0 78 56" fill="none" xmlns="http://www.w3.org/2000/svg">
<g opacity="0.87">
<path d="M15.7942 30.227C8.06924 23.899 6.45288 12.6553 6.61032 7.82435C6.82024 7.01743 7.18759 7.48813 7.34503 7.82435C8.13221 9.16921 10.8926 11.6997 15.6367 11.0626C21.5669 10.2663 27.8119 0.551448 34.5818 0.0205797C41.3516 -0.510289 46.5995 9.36387 55.8359 14.0886C63.2249 17.8684 73.6794 16.2099 77.9827 14.8828C78.0147 15.0491 78.0035 15.1397 77.9191 15.2987C75.278 18.4611 73.8543 20.3576 71.3223 23.7541C69.6251 22.8737 65.3917 20.7505 61.5078 21.9252C57.3985 23.1682 44.5032 31.5258 42.154 33.4452C39.8048 35.3646 31.0416 41.5197 15.7942 30.227Z" fill="url(#paint0_linear_85_874)"/>
<path d="M29.1225 38.5664C17.5763 38.4011 9.8854 31.1635 6.30028 28.4641C7.04096 28.2298 17.6592 24.4877 26.2115 25.1869C32.0586 25.6649 34.6692 26.635 43.6398 34.9285C38.9317 35.8974 32.6955 38.6176 29.1225 38.5664Z" fill="url(#paint1_linear_85_874)"/>
<path d="M67.7535 27.8756C63.5552 28.141 52.2722 24.5311 41.6714 16.3557C31.0732 8.18244 21.9963 14.2292 19.8416 15.6645L19.84 15.6656C17.6883 17.0989 15.0119 18.3199 9.97389 19.7533C5.94348 20.9 2.13698 17.8245 0.737537 16.1434C0.52762 15.9487 0.086794 15.6974 0.00282716 16.2496C-0.102131 16.9397 2.72852 25.8583 6.29711 28.4595L6.3035 28.4619C6.85118 28.3172 23.4983 22.4252 32.1169 26.6038C40.9859 30.9039 43.1375 35.6822 47.8082 38.3891C51.5447 40.5546 56.9921 39.2914 59.2487 38.3891L67.7535 27.8756Z" fill="url(#paint2_linear_85_874)"/>
<path d="M56.2053 14.2642C65.9455 6.87454 74.6081 11.3621 77.7218 14.5297C77.9317 14.6712 78.2256 15.0712 77.7218 15.5383C77.218 16.0055 69.8565 25.6643 65.2563 31.7052C63.8875 33.5028 62.6416 34.937 61.4502 36.2996C50.8681 48.4021 37.6351 52.9153 28.9161 49.1423C19.4699 45.0546 16.5835 39.9286 15.9537 39.0261C15.443 38.2942 13.1199 34.5257 12.1752 32.8446L6.29756 28.4619C6.82235 28.8038 10.5169 30.4876 21.5165 30.4026C35.2661 30.2965 44.0301 23.5013 56.2053 14.2642Z" fill="url(#paint3_linear_85_874)"/>
<path d="M76.5148 27.5594C76.5848 27.8248 76.5778 28.3912 76.1999 28.4761C75.7276 28.5823 73.2086 28.9539 71.9491 29.7502C70.6896 30.5465 66.8061 33.2539 64.8644 35.9614C62.9227 38.6688 54.0012 50.2417 52.0595 51.7282C50.1177 53.2146 44.8173 58.6825 35.3186 54.3825C33.6218 53.2677 30.375 50.7371 29.4934 49.3781C26.4146 48.0863 19.5742 44.8882 15.9537 39.0261C27.1213 45.9372 42.6832 36.1465 49.0682 30.3872C52.6367 26.9897 63.0801 20.4457 69.0103 22.7285C69.8029 23.0336 70.5162 23.3508 71.1586 23.6711C74.3612 25.2679 75.8008 26.9403 76.5148 27.5594Z" fill="url(#paint4_linear_85_874)"/>
<path d="M54.9233 24.5818L40.8588 34.4559C27.194 42.5475 18.0836 40.0516 15.1583 37.7477C15.1365 37.7305 15.115 37.7133 15.0938 37.6961L15.9546 39.0261C16.9537 39.6945 19.8057 41.0972 23.2213 41.3612C27.4907 41.6912 32.7232 40.1565 38.1224 37.7691C43.6827 35.3105 50.3926 29.099 51.8794 28.1134C53.3662 27.1278 53.9822 26.7523 55.6791 25.7047C57.0366 24.8666 59.2226 23.925 60.1459 23.559C61.8592 22.9057 65.7673 21.7548 67.6941 22.3772C63.7897 20.1687 57.4948 22.9715 54.9233 24.5818Z" fill="url(#paint5_linear_85_874)"/>
<path d="M22.3496 31.2397C40.2497 30.6494 48.8646 21.1329 56.8764 14.6032L56.2884 14.3138L55.6564 14.0009C47.662 20.8491 35.8011 31.3371 19.4697 30.333L22.3496 31.2397Z" fill="url(#paint6_linear_85_874)"/>
<path d="M16.1636 18.9942C6.38148 23.9631 2.04669 19.2248 0.73471 16.252C3.22792 18.81 5.52985 20.3794 8.97395 20.0742C9.97744 19.9852 11.1396 19.5366 12.3851 19.1186C13.1634 18.8574 14.012 18.6408 14.7991 18.304C18.9454 16.5302 22.9601 14.1015 25.1376 13.2149C28.1707 11.8675 29.4645 11.9549 31.6975 12.2521C35.6859 12.783 36.9454 13.0668 43.1904 17.473C48.4671 21.196 62.5903 27.1025 67.3309 28.2313L67.121 28.8152C60.8235 28.2313 56.5726 28.656 43.5053 19.2596C30.438 9.86323 28.3913 12.783 16.1636 18.9942Z" fill="url(#paint7_linear_85_874)"/>
<path d="M15.0899 37.6988L12.1332 32.8453C16.2808 35.7466 26.57 40.7246 34.7246 37.5769C34.7747 37.5574 34.8248 37.5377 34.8751 37.5178C34.825 37.5378 34.7748 37.5575 34.7246 37.5769C23.8898 41.8094 17.0839 39.4117 15.0899 37.6988Z" fill="url(#paint8_linear_85_874)"/>
<path d="M76.1768 28.4761C76.5546 28.3912 76.5616 27.8248 76.4916 27.5594C75.7777 26.9403 74.338 25.2679 71.1354 23.6711C70.3449 23.9519 63.8969 35.7802 52.6902 44.27C43.7439 51.0473 33.6228 50.6445 29.4702 49.3781C30.3519 50.7371 33.5986 53.2677 35.2954 54.3825C44.7942 58.6825 50.0946 53.2146 52.0363 51.7282C53.978 50.2417 62.8995 38.6688 64.8412 35.9614C66.783 33.2539 70.6664 30.5465 71.9259 29.7502C73.1854 28.9539 75.7044 28.5823 76.1768 28.4761Z" fill="url(#paint9_linear_85_874)"/>
<path d="M56.1998 14.2717C65.9399 6.88199 74.6016 11.3757 77.7154 14.5432C77.8202 14.6139 77.9468 14.7429 77.9838 14.9185C76.3697 15.3562 71.9763 16.2872 67.3156 16.5096C62.7787 16.7261 58.1633 15.3312 56.3464 14.3401C56.2955 14.3168 56.2466 14.294 56.1998 14.2717Z" fill="url(#paint10_linear_85_874)"/>
</g>
<defs>
<linearGradient id="paint0_linear_85_874" x1="1.81023" y1="16.8828" x2="83.6745" y2="25.8921" gradientUnits="userSpaceOnUse">
<stop stop-color="#ECBEFC"/>
<stop offset="1" stop-color="#9A71F6"/>
</linearGradient>
<linearGradient id="paint1_linear_85_874" x1="41.333" y1="-2.47471" x2="41.333" y2="49.6477" gradientUnits="userSpaceOnUse">
<stop stop-color="#CBB0FD"/>
<stop offset="1" stop-color="#5837CE"/>
</linearGradient>
<linearGradient id="paint2_linear_85_874" x1="1.57081" y1="19.4067" x2="79.274" y2="26.0077" gradientUnits="userSpaceOnUse">
<stop stop-color="#CBB0FC"/>
<stop offset="1" stop-color="#744FE8"/>
</linearGradient>
<linearGradient id="paint3_linear_85_874" x1="7.19315" y1="34.1036" x2="95.1108" y2="17.7954" gradientUnits="userSpaceOnUse">
<stop offset="0.114722" stop-color="#7F58E6"/>
<stop offset="1" stop-color="#A9A4FC"/>
</linearGradient>
<linearGradient id="paint4_linear_85_874" x1="31.957" y1="20.2436" x2="48.1044" y2="58.3165" gradientUnits="userSpaceOnUse">
<stop stop-color="#290DB4"/>
<stop offset="0.592366" stop-color="#5B46CD"/>
<stop offset="0.931956" stop-color="#9D8EF6"/>
</linearGradient>
<linearGradient id="paint5_linear_85_874" x1="72.0098" y1="-3.05527" x2="-10.6662" y2="13.6454" gradientUnits="userSpaceOnUse">
<stop stop-color="#DEC4FA"/>
<stop offset="1" stop-color="#4B07FF"/>
</linearGradient>
<linearGradient id="paint6_linear_85_874" x1="76.0107" y1="-1.04262" x2="-12.9996" y2="32.5946" gradientUnits="userSpaceOnUse">
<stop offset="0.0411503" stop-color="#D7E0FF" stop-opacity="0.62"/>
<stop offset="0.432692" stop-color="#A685F3"/>
<stop offset="1" stop-color="#8F6BEF"/>
</linearGradient>
<linearGradient id="paint7_linear_85_874" x1="23.9716" y1="6.88471" x2="62.2217" y2="17.5836" gradientUnits="userSpaceOnUse">
<stop stop-color="#FDFDFD" stop-opacity="0.57"/>
<stop offset="1" stop-color="#8F6BEF" stop-opacity="0"/>
</linearGradient>
<linearGradient id="paint8_linear_85_874" x1="24.7781" y1="33.9233" x2="27.1255" y2="48.1115" gradientUnits="userSpaceOnUse">
<stop stop-color="#5132C8"/>
<stop offset="1" stop-color="#9778D4" stop-opacity="0.19"/>
</linearGradient>
<linearGradient id="paint9_linear_85_874" x1="40.7568" y1="34.454" x2="48.7919" y2="58.8792" gradientUnits="userSpaceOnUse">
<stop stop-color="#290DB4"/>
<stop offset="0.592366" stop-color="#5B46CD"/>
<stop offset="0.931956" stop-color="#9D8EF6"/>
</linearGradient>
<linearGradient id="paint10_linear_85_874" x1="61.9284" y1="2.35592" x2="77.2699" y2="20.3832" gradientUnits="userSpaceOnUse">
<stop stop-color="#F4F3F6" stop-opacity="0.37"/>
<stop offset="1" stop-color="#A9A4FC" stop-opacity="0.58"/>
</linearGradient>
</defs>
</svg>
