<svg width="29" height="39" viewBox="0 0 29 39" fill="none" xmlns="http://www.w3.org/2000/svg">
<path d="M7.12374 7.12373C7.12374 3.1894 10.3131 0 14.2475 0C18.1818 0 21.3712 3.18941 21.3712 7.12374V12.3728C21.3712 16.3071 18.1818 19.4965 14.2475 19.4965C10.3131 19.4965 7.12374 16.3071 7.12374 12.3728V7.12373Z" fill="white"/>
<path d="M11.9979 28.12C11.9979 26.8776 13.0051 25.8704 14.2475 25.8704C15.4899 25.8704 16.4971 26.8776 16.4971 28.12V35.9936C16.4971 37.236 15.4899 38.2432 14.2475 38.2432C13.0051 38.2432 11.9979 37.236 11.9979 35.9936V28.12Z" fill="white"/>
<path d="M14.4349 21.0418C22.4071 21.0418 26.4328 9.93574 26.4328 9.93574L28.8699 14.7315C28.8699 20.6764 22.4071 25.4956 14.4349 25.4956C6.46274 25.4956 0 20.6764 0 14.7315L2.06213 9.93574C4.31173 13.6847 6.46274 21.0418 14.4349 21.0418Z" fill="white"/>
</svg>
