<svg width="41" height="36" viewBox="0 0 41 36" fill="none" xmlns="http://www.w3.org/2000/svg">
<g opacity="0.29">
<path d="M5.6333 25.416H13.1009C13.1009 26.0672 12.573 26.5951 11.9218 26.5951H6.8124C6.1612 26.5951 5.6333 26.0672 5.6333 25.416Z" fill="#D9D9D9"/>
<path d="M26.9226 25.416H34.3903C34.3903 26.0672 33.8624 26.5951 33.2112 26.5951H28.1017C27.4505 26.5951 26.9226 26.0672 26.9226 25.416Z" fill="#D9D9D9"/>
</g>
<path opacity="0.51" d="M0 1.31011C0 0.586557 0.586557 0 1.31011 0H38.7138C39.4374 0 40.0239 0.586557 40.0239 1.31011V24.1061C40.0239 24.8296 39.4374 25.4162 38.7138 25.4162H1.31011C0.586556 25.4162 0 24.8296 0 24.1061V1.31011Z" fill="black"/>
<path opacity="0.34" d="M1.57227 2.29278C1.57227 1.56922 2.15882 0.982666 2.88238 0.982666H37.1418C37.8654 0.982666 38.4519 1.56922 38.4519 2.29278V23.1236C38.4519 23.8471 37.8654 24.4337 37.1418 24.4337H2.88238C2.15882 24.4337 1.57227 23.8471 1.57227 23.1236V2.29278Z" fill="url(#paint0_linear_85_1361)"/>
<path opacity="0.34" d="M3.34082 8.90874C3.34082 8.18519 3.92738 7.59863 4.65093 7.59863H11.791C12.5146 7.59863 13.1012 8.18519 13.1012 8.90874V14.2802C13.1012 15.0038 12.5146 15.5903 11.791 15.5903H4.65093C3.92738 15.5903 3.34082 15.0038 3.34082 14.2802V8.90874Z" fill="url(#paint1_linear_85_1361)"/>
<path d="M13.1011 34.0954C13.1011 33.1729 13.8489 32.425 14.7715 32.425H25.2524C26.1749 32.425 26.9228 33.1729 26.9228 34.0954C26.9228 35.018 26.1749 35.7658 25.2524 35.7658H14.7715C13.8489 35.7658 13.1011 35.018 13.1011 34.0954Z" fill="url(#paint2_linear_85_1361)"/>
<path d="M29.5101 26.5625C26.5492 26.5625 22.49 30.4492 20.8306 32.3925C21.0271 32.3925 21.458 32.4371 21.4856 32.3925C23.0136 29.9254 28.6585 26.0712 33.6697 27.1193V26.5625H29.5101Z" fill="#D9D9D9"/>
<path d="M10.8405 26.5951C13.8014 26.5951 17.8605 30.4818 19.52 32.4251C19.3235 32.4251 18.8926 32.4696 18.865 32.4251C17.337 29.958 11.6921 26.1038 6.68092 27.1519V26.5951H10.8405Z" fill="#D9D9D9"/>
<path d="M5.50195 9.82581C6.30372 10.6341 6.80232 10.6639 7.79467 9.82581C6.89569 10.7797 6.92847 11.279 7.79467 12.1185C6.85518 11.3559 6.35254 11.3459 5.50195 12.1185C6.20371 11.2228 6.21712 10.7217 5.50195 9.82581Z" fill="#D9D9D9"/>
<path d="M7.07422 11.8564C7.87598 12.6648 8.37458 12.6945 9.36694 11.8564C8.46796 12.8103 8.50074 13.3096 9.36694 14.1492C8.42745 13.3865 7.92481 13.3765 7.07422 14.1492C7.77597 13.2535 7.78939 12.7523 7.07422 11.8564Z" fill="#D9D9D9"/>
<path d="M10.0225 8.51564C10.0225 8.33475 10.1691 8.18811 10.35 8.18811C10.5309 8.18811 10.6775 8.33475 10.6775 8.51564C10.6775 8.69653 10.5309 8.84317 10.35 8.84317C10.1691 8.84317 10.0225 8.69653 10.0225 8.51564Z" fill="#D9D9D9"/>
<path d="M10.874 8.51564C10.874 8.33475 11.0207 8.18811 11.2016 8.18811C11.3825 8.18811 11.5291 8.33475 11.5291 8.51564C11.5291 8.69653 11.3825 8.84317 11.2016 8.84317C11.0207 8.84317 10.874 8.69653 10.874 8.51564Z" fill="#D9D9D9"/>
<path d="M11.7256 8.51564C11.7256 8.33475 11.8723 8.18811 12.0532 8.18811C12.234 8.18811 12.3807 8.33475 12.3807 8.51564C12.3807 8.69653 12.234 8.84317 12.0532 8.84317C11.8723 8.84317 11.7256 8.69653 11.7256 8.51564Z" fill="#D9D9D9"/>
<path d="M32.3594 2.42371C32.3594 2.13428 32.594 1.89966 32.8834 1.89966C33.1728 1.89966 33.4075 2.13428 33.4075 2.42371C33.4075 2.71313 33.1728 2.94776 32.8834 2.94776C32.594 2.94776 32.3594 2.71313 32.3594 2.42371Z" fill="#D9D9D9"/>
<path d="M33.735 2.42371C33.735 2.13428 33.9696 1.89966 34.2591 1.89966C34.5485 1.89966 34.7831 2.13428 34.7831 2.42371C34.7831 2.71313 34.5485 2.94776 34.2591 2.94776C33.9696 2.94776 33.735 2.71313 33.735 2.42371Z" fill="#D9D9D9"/>
<path d="M35.1106 2.42371C35.1106 2.13428 35.3453 1.89966 35.6347 1.89966C35.9241 1.89966 36.1587 2.13428 36.1587 2.42371C36.1587 2.71313 35.9241 2.94776 35.6347 2.94776C35.3453 2.94776 35.1106 2.71313 35.1106 2.42371Z" fill="#D9D9D9"/>
<defs>
<linearGradient id="paint0_linear_85_1361" x1="38.4519" y1="2.03663" x2="1.57227" y2="23.3797" gradientUnits="userSpaceOnUse">
<stop stop-color="#B4A5A5"/>
<stop offset="1" stop-color="#A4C0C3"/>
</linearGradient>
<linearGradient id="paint1_linear_85_1361" x1="13.1012" y1="7.95781" x2="2.26147" y2="12.8296" gradientUnits="userSpaceOnUse">
<stop stop-color="#B4A5A5"/>
<stop offset="1" stop-color="#A4C0C3"/>
</linearGradient>
<linearGradient id="paint2_linear_85_1361" x1="26.9228" y1="32.5752" x2="21.362" y2="41.0416" gradientUnits="userSpaceOnUse">
<stop stop-color="#B4A5A5"/>
<stop offset="1" stop-color="#A4C0C3"/>
</linearGradient>
</defs>
</svg>
