<svg width="29" height="29" viewBox="0 0 29 29" fill="none" xmlns="http://www.w3.org/2000/svg">
<path fill-rule="evenodd" clip-rule="evenodd" d="M19.8181 17.3141L22.5134 20.0094C22.5134 20.0094 21.4926 20.5148 21.0037 21.0038C20.5147 21.4927 20.0094 22.5134 20.0094 22.5134L17.3141 19.8181C15.5158 21.1121 13.3479 21.902 10.9783 21.902C4.94502 21.902 0.0545788 17.0115 0.0545788 10.9783C0.0545891 4.94504 4.94503 0.0545948 10.9783 0.0545845C17.0115 0.0545845 21.902 4.94503 21.902 10.9783C21.902 13.348 21.1121 15.5158 19.8181 17.3141ZM10.9783 3.41574C6.79366 3.41572 3.41572 6.79366 3.41574 10.9783C3.41572 15.1629 6.79365 18.5408 10.9783 18.5408C15.1629 18.5408 18.5408 15.1629 18.5408 10.9783C18.5408 6.79369 15.1629 3.41575 10.9783 3.41574Z" fill="white"/>
<path d="M21.7065 26.0535L23.3625 27.7094C24.62 28.967 26.6588 28.967 27.9163 27.7094C29.1739 26.4519 29.0704 24.5166 27.8128 23.2591L26.1569 21.6031C24.8994 20.3456 22.8605 20.3456 21.603 21.6031C20.3455 22.8606 20.449 24.796 21.7065 26.0535Z" fill="white"/>
</svg>
