<svg width="40" height="40" viewBox="0 0 40 40" fill="none" xmlns="http://www.w3.org/2000/svg">
<path fill-rule="evenodd" clip-rule="evenodd" d="M22.5966 14.5024C22.387 14.4244 21.6928 14.1827 21.4838 14.1052C21.4215 14.2785 21.5797 14.6293 21.5175 14.8026L19.8682 19.377L20.497 19.6109C21.0609 18.0471 21.5839 16.596 22.1478 15.0322C22.2101 14.86 22.5349 14.6746 22.5971 14.5024H22.5966Z" fill="url(#paint0_linear_85_1347)" fill-opacity="0.64"/>
<path fill-rule="evenodd" clip-rule="evenodd" d="M14.0117 20.4652C14.0501 20.6885 14.1913 21.4196 14.2291 21.6424C14.4081 21.6108 14.6281 21.2958 14.8071 21.2642L19.534 20.4268L19.4189 19.7573C17.8027 20.0433 16.3039 20.3093 14.6878 20.5953C14.5098 20.6269 14.1892 20.4336 14.0112 20.4652H14.0117Z" fill="url(#paint1_linear_85_1347)" fill-opacity="0.64"/>
<path fill-rule="evenodd" clip-rule="evenodd" d="M23.391 25.0317C23.5622 24.8863 24.1152 24.397 24.2864 24.2516C24.1697 24.1099 23.791 24.0741 23.6748 23.9324L20.5971 20.1949L20.0835 20.6311C21.1357 21.9088 22.1116 23.0939 23.1637 24.3717C23.2794 24.5123 23.2753 24.891 23.391 25.0317Z" fill="url(#paint2_linear_85_1347)" fill-opacity="0.64"/>
<path fill-rule="evenodd" clip-rule="evenodd" d="M10.1495 28.7923C5.36238 23.2566 5.9004 14.8451 11.3371 9.99105C16.779 5.13642 25.0811 5.68788 29.8573 11.213V11.2183C34.6335 16.7376 34.1012 25.1601 28.6594 30.009C23.2227 34.8578 14.9263 34.3174 10.15 28.7928L10.1495 28.7923ZM39.9836 19.3537C39.9623 18.5753 39.8876 17.8021 39.7761 17.0452L35.8196 16.3805L34.4774 12.5803L37.113 9.50964C36.3145 8.15812 35.3609 6.9151 34.2854 5.79585L30.6962 7.62299L27.4054 5.35236L27.7623 1.28674C26.3994 0.702623 24.956 0.264932 23.4546 0L21.591 3.61688L17.6132 3.71432L15.5686 0.200674C14.0401 0.551986 12.5755 1.08185 11.2074 1.76814L11.7931 5.80112L8.63041 8.25503L4.94577 6.63858C3.93408 7.81155 3.05001 9.10934 2.32574 10.5041L5.13203 13.4125L4.00308 17.2833L0.0839338 18.1808C0.0149311 18.9808 -0.0172356 19.8025 0.00922412 20.6299C0.0356838 21.3868 0.105205 22.1326 0.206375 22.8679L4.16807 23.5437L5.49935 27.3496L2.84197 30.4092C3.64613 31.7608 4.59401 33.0201 5.66952 34.1394L9.26389 32.3233L12.5496 34.6044L12.1771 38.6701C13.5825 39.2753 15.0684 39.7298 16.6129 40L18.4662 36.3784L22.4439 36.2646L24.4938 39.773C26.0222 39.4106 27.4811 38.8755 28.855 38.1892L28.2588 34.1562L31.4112 31.6855L35.1015 33.2908C36.1132 32.1068 36.9921 30.8095 37.7112 29.4148L34.8888 26.5169L36.0069 22.6356L39.926 21.7323C39.9898 20.9433 40.0163 20.1485 39.9898 19.3427L39.9841 19.3537H39.9836Z" fill="url(#paint3_linear_85_1347)"/>
<path fill-rule="evenodd" clip-rule="evenodd" d="M15.6229 23.907C13.4957 21.4473 13.7344 17.7092 16.1505 15.5519C18.5687 13.3945 22.258 13.6399 24.3805 16.0949V16.0975C26.503 18.5504 26.2664 22.2926 23.8482 24.4479C21.4321 26.6026 17.7459 26.3624 15.6234 23.9075L15.6229 23.907ZM28.8802 19.7128C28.8709 19.3668 28.8377 19.0234 28.7879 18.6868L27.0296 18.3913L26.4329 16.7027L27.6044 15.338C27.2496 14.7376 26.8257 14.1851 26.3479 13.6878L24.753 14.5L23.2905 13.4909L23.4492 11.6843C22.8438 11.4246 22.202 11.2302 21.5353 11.1128L20.7073 12.7198L18.9397 12.763L18.0312 11.2013C17.3521 11.3572 16.7015 11.5926 16.0934 11.8976L16.3539 13.6894L14.9484 14.7797L13.311 14.0618C12.8612 14.5827 12.4684 15.1595 12.1468 15.7794L13.394 17.0719L12.8923 18.7921L11.1506 19.1909C11.12 19.5464 11.1055 19.9114 11.1174 20.279C11.1294 20.6156 11.16 20.9469 11.2051 21.2734L12.9655 21.5737L13.5569 23.2649L12.3761 24.6243C12.7336 25.2253 13.1548 25.7847 13.6327 26.2819L15.2296 25.4744L16.6895 26.4878L16.524 28.2944C17.1487 28.5635 17.8086 28.7653 18.495 28.8854L19.3184 27.2758L21.086 27.2252L21.997 28.7842C22.6762 28.6231 23.3247 28.3855 23.9348 28.08L23.6697 26.2882L25.0705 25.1905L26.7105 25.9042C27.1603 25.378 27.5505 24.8013 27.8701 24.1819L26.6161 22.8941L27.1126 21.1697L28.8543 20.7683C28.8828 20.4175 28.8947 20.0647 28.8828 19.7065L28.8802 19.7112V19.7128Z" fill="url(#paint4_linear_85_1347)"/>
<path fill-rule="evenodd" clip-rule="evenodd" d="M12.186 10.9718C7.28158 15.3503 6.79182 22.9401 11.1156 27.9295C15.4239 32.9137 22.9053 33.4004 27.8091 29.0266C32.7187 24.6482 33.2033 17.0531 28.8898 12.0742C24.5821 7.08996 17.0955 6.59275 12.1854 10.9712L12.186 10.9718ZM25.9066 26.8324C22.1955 30.1406 16.5295 29.7893 13.2547 25.9997C9.99603 22.2153 10.3582 16.4742 14.0802 13.166C17.7918 9.83619 23.4573 10.2091 26.7217 13.9824C30.0016 17.7668 29.6291 23.5184 25.9071 26.8324H25.9066Z" fill="url(#paint5_linear_85_1347)"/>
<path fill-rule="evenodd" clip-rule="evenodd" d="M20.1604 19.7016C20.2642 19.759 20.3342 19.8712 20.3342 19.9997C20.3342 20.1603 20.2248 20.2946 20.0774 20.3305C20.0525 20.3368 20.0266 20.3399 19.9996 20.3399C19.9731 20.3399 19.9472 20.3368 19.9223 20.331C19.7744 20.2957 19.6649 20.1609 19.6649 20.0002C19.6649 19.8717 19.7355 19.7595 19.8393 19.7021C19.887 19.6758 19.9415 19.6605 19.9996 19.6605C20.0577 19.6605 20.1127 19.6758 20.1604 19.7021V19.7016ZM19.6649 18.7898C19.1441 18.9378 18.7622 19.424 18.7622 19.9997C18.7622 20.1019 18.7741 20.2009 18.797 20.2962C18.8514 20.5243 18.9671 20.7281 19.1254 20.8888C19.349 21.1158 19.6587 21.2564 20.0001 21.2564C20.3415 21.2564 20.6507 21.1158 20.8748 20.8888C21.0331 20.7281 21.1488 20.5248 21.2027 20.2967C21.2256 20.2019 21.2375 20.1024 21.2375 20.0002C21.2375 19.424 20.8556 18.9384 20.3347 18.7904C20.2284 18.7603 20.1158 18.744 20.0001 18.744C19.8839 18.744 19.7718 18.7603 19.6655 18.7904L19.6649 18.7898Z" fill="url(#paint6_linear_85_1347)" fill-opacity="0.64"/>
<defs>
<linearGradient id="paint0_linear_85_1347" x1="21.2327" y1="14.1052" x2="21.2327" y2="19.6109" gradientUnits="userSpaceOnUse">
<stop stop-color="#515151"/>
<stop offset="1" stop-color="#B7B7B7"/>
</linearGradient>
<linearGradient id="paint1_linear_85_1347" x1="16.7726" y1="19.7573" x2="16.7726" y2="21.6424" gradientUnits="userSpaceOnUse">
<stop stop-color="#515151"/>
<stop offset="1" stop-color="#B7B7B7"/>
</linearGradient>
<linearGradient id="paint2_linear_85_1347" x1="22.185" y1="20.1949" x2="22.185" y2="25.0317" gradientUnits="userSpaceOnUse">
<stop stop-color="#515151"/>
<stop offset="1" stop-color="#B7B7B7"/>
</linearGradient>
<linearGradient id="paint3_linear_85_1347" x1="20" y1="0" x2="20" y2="40" gradientUnits="userSpaceOnUse">
<stop stop-color="#486083"/>
<stop offset="0.533722" stop-color="#9D93A8"/>
<stop offset="1" stop-color="#634A81"/>
</linearGradient>
<linearGradient id="paint4_linear_85_1347" x1="20.0003" y1="11.1128" x2="20.0003" y2="28.8854" gradientUnits="userSpaceOnUse">
<stop stop-color="#59577C"/>
<stop offset="0.543338" stop-color="#867474"/>
<stop offset="1" stop-color="#9C7BFF" stop-opacity="0.15"/>
</linearGradient>
<linearGradient id="paint5_linear_85_1347" x1="31.833" y1="19.9993" x2="8.16553" y2="19.9993" gradientUnits="userSpaceOnUse">
<stop stop-color="#9B8CC1"/>
<stop offset="1" stop-color="#6D7586"/>
</linearGradient>
<linearGradient id="paint6_linear_85_1347" x1="19.9998" y1="18.744" x2="19.9998" y2="21.2564" gradientUnits="userSpaceOnUse">
<stop stop-color="#515151"/>
<stop offset="1" stop-color="#B7B7B7"/>
</linearGradient>
</defs>
</svg>
