<svg width="40" height="40" viewBox="0 0 40 40" fill="none" xmlns="http://www.w3.org/2000/svg">
<path d="M0 20C0 8.95431 7.80632 0 17.4359 0H22.5641C32.1937 0 40 8.95431 40 20C40 31.0457 32.1937 40 22.5641 40H17.4359C7.80632 40 0 31.0457 0 20Z" fill="url(#paint0_linear_85_1357)"/>
<path d="M7.27169 18.8236C7.18131 18.8236 7.05993 18.7439 6.90756 18.5843C6.75519 18.4247 6.61962 18.2163 6.50114 17.9591C6.38266 17.7019 6.32327 17.4314 6.32327 17.1479C6.32327 17.0946 6.32588 17.0413 6.33196 16.9879C6.33747 16.9346 6.34587 16.8816 6.35717 16.8283C6.40236 16.6332 6.45305 16.4694 6.50954 16.3361C6.56574 16.2031 6.66481 16.0613 6.80559 15.9105C6.94696 15.7596 7.15843 15.5649 7.44087 15.3253C7.72302 15.086 8.10974 14.7709 8.60076 14.3808C9.09177 13.9907 9.72125 13.4939 10.4889 12.8908L6.22159 9.83169C6.1764 9.67206 6.15381 9.48577 6.15381 9.27282C6.15381 9.00686 6.21319 8.76726 6.33167 8.55462C6.45015 8.34167 6.65061 8.23535 6.93247 8.23535C7.09064 8.23535 7.28241 8.27958 7.50836 8.36833C7.73432 8.45708 7.98808 8.59884 8.27023 8.79392L11.8432 11.2151C12.3061 11.5343 12.6702 11.9333 12.9353 12.4122C13.2006 12.8911 13.3333 13.3345 13.3333 13.7423C13.3333 13.9195 13.2458 14.1236 13.0708 14.3541C12.8959 14.5847 12.7235 14.7709 12.5543 14.9127L7.47418 18.7433C7.44029 18.7612 7.40668 18.7791 7.37279 18.7966C7.3389 18.8145 7.30501 18.8233 7.27111 18.8233L7.27169 18.8236Z" fill="white"/>
<path d="M19.5514 18.8235H12.2438C11.7127 18.8235 11.2822 19.3502 11.2822 20C11.2822 20.6497 11.7127 21.1764 12.2438 21.1764H15.8976H19.5514C20.0825 21.1764 20.513 20.6497 20.513 20C20.513 19.3502 20.0825 18.8235 19.5514 18.8235Z" fill="white"/>
<defs>
<linearGradient id="paint0_linear_85_1357" x1="20" y1="0" x2="20" y2="40" gradientUnits="userSpaceOnUse">
<stop stop-color="#090909"/>
<stop offset="1" stop-color="#7071CD"/>
</linearGradient>
</defs>
</svg>
