<svg width="196" height="159" viewBox="0 0 196 159" fill="none" xmlns="http://www.w3.org/2000/svg">
<path d="M1.95898 20C1.95898 6 11.959 0 25.959 0H73.959C85.959 0 89.959 6 95.959 14H169.959C185.959 14 193.959 22 193.959 36V132C193.959 146 183.959 156 169.959 156H25.959C11.959 156 1.95898 146 1.95898 132V20Z" fill="black"/>
<path d="M1.95898 23C1.95898 9 11.959 3 25.959 3H73.959C85.959 3 89.959 9 95.959 17H169.959C185.959 17 193.959 25 193.959 39V135C193.959 149 183.959 159 169.959 159H25.959C11.959 159 1.95898 149 1.95898 135V23Z" fill="#F2D6C9"/>
<path d="M195.824 46.2416C195.824 33.5476 187.715 26.2939 171.495 26.2939L150.986 26.2937C131.918 26.2934 122.592 26.2933 86.3436 26.2939H34.8153C16.1853 26.2939 1.02491 41.2864 0.817381 59.9152L0 133.286C0 145.98 10.1371 155.047 24.329 155.047H170.303C184.495 155.047 194.632 145.98 194.632 133.286L195.824 46.2416Z" fill="black"/>
<path d="M193.959 49.1948C193.959 36.5009 185.959 29.2472 169.959 29.2472H35.6427C16.989 29.2472 1.81851 44.2765 1.64417 62.9294L0.958984 136.239C0.958984 148.933 10.959 158 24.959 158H168.959C182.959 158 192.959 148.933 192.959 136.239L193.959 49.1948Z" fill="#F2D6C9"/>
<path d="M71.3255 57.1827L67.5275 119.849C67.5275 122.381 68.477 123.963 70.376 124.596H125.446C127.345 123.963 128.295 122.381 128.295 119.849L124.497 57.1827H71.3255Z" fill="white" fill-opacity="0.67"/>
<path d="M97.9114 131.717C116.789 131.717 132.093 129.166 132.093 126.02C132.093 122.874 116.789 120.323 97.9114 120.323C79.0334 120.323 63.7298 122.874 63.7298 126.02C63.7298 129.166 79.0334 131.717 97.9114 131.717Z" fill="#D2D2D2"/>
<path d="M97.9119 129.818C115.741 129.818 130.194 127.693 130.194 125.071C130.194 122.449 115.741 120.323 97.9114 120.323C80.0822 120.323 65.6293 122.449 65.6293 125.071C65.6293 127.693 80.0827 129.818 97.9119 129.818Z" fill="#D2D2D2"/>
<path d="M97.9114 126.97C116.789 126.97 132.093 125.694 132.093 124.121C132.093 122.548 116.789 121.273 97.9114 121.273C79.0334 121.273 63.7298 122.548 63.7298 124.121C63.7298 125.694 79.0334 126.97 97.9114 126.97Z" fill="white" fill-opacity="0.67"/>
<path d="M69.4272 53.859L65.6293 120.323C65.6293 122.855 66.5788 124.438 68.4777 125.071H127.346C129.245 124.438 130.194 122.855 130.194 120.323L126.397 53.859H69.4272Z" fill="url(#paint0_linear_105_340)"/>
<path d="M70.9146 57.9236L72.3446 117.845L81.8033 117.017L78.4816 57.2615L70.9146 57.9236Z" fill="url(#paint1_linear_105_340)"/>
<path d="M123.171 60.862L121.989 117.946L112.53 117.118L117.496 60.3655L123.171 60.862Z" fill="url(#paint2_linear_105_340)"/>
<path d="M101.71 60.5055H94.1139C93.0651 60.5055 92.2149 61.3557 92.2149 62.4044V120.323C92.2149 121.372 93.0651 122.222 94.1139 122.222H101.71C102.759 122.222 103.609 121.372 103.609 120.323V62.4044C103.609 61.3557 102.759 60.5055 101.71 60.5055Z" fill="url(#paint3_linear_105_340)"/>
<path d="M97.9122 59.556C114.693 59.556 128.296 57.0054 128.296 53.859C128.296 50.7127 114.693 48.1621 97.9122 48.1621C81.1318 48.1621 67.5286 50.7127 67.5286 53.859C67.5286 57.0054 81.1318 59.556 97.9122 59.556Z" fill="#E8EEF5"/>
<path d="M97.9113 55.758C113.643 55.758 126.396 54.0576 126.396 51.9601C126.396 49.8625 113.644 48.1621 97.9122 48.1621C82.1806 48.1621 69.4267 49.8625 69.4267 51.9601C69.4267 54.0576 82.1797 55.758 97.9113 55.758Z" fill="white" fill-opacity="0.67"/>
<path d="M97.9113 52.9095C112.594 52.9095 124.497 52.0592 124.497 51.0105C124.497 49.9617 112.594 49.1115 97.9113 49.1115C83.2284 49.1115 71.3256 49.9617 71.3256 51.0105C71.3256 52.0592 83.2284 52.9095 97.9113 52.9095Z" fill="white" fill-opacity="0.67"/>
<path d="M97.9116 57.6571C111.546 57.6571 122.598 55.9567 122.598 53.8591C122.598 51.7616 111.546 50.0611 97.9116 50.0611C84.2775 50.0611 73.2249 51.7616 73.2249 53.8591C73.2249 55.9567 84.2775 57.6571 97.9116 57.6571Z" fill="#F2D6C9" fill-opacity="0.71"/>
<path d="M69.4272 53.859L65.6293 120.323Z" fill="black" fill-opacity="0.3"/>
<path d="M79.8709 71.4245C80.6574 71.4245 81.2951 70.7868 81.2951 70.0003C81.2951 69.2137 80.6574 68.576 79.8709 68.576C79.0843 68.576 78.4466 69.2137 78.4466 70.0003C78.4466 70.7868 79.0843 71.4245 79.8709 71.4245Z" fill="white" fill-opacity="0.67"/>
<path d="M113.104 80.4445C113.628 80.4445 114.053 80.0194 114.053 79.495C114.053 78.9707 113.628 78.5456 113.104 78.5456C112.58 78.5456 112.154 78.9707 112.154 79.495C112.154 80.0194 112.58 80.4445 113.104 80.4445Z" fill="white" fill-opacity="0.67"/>
<path d="M84.6191 104.372C85.2483 104.372 85.7585 103.862 85.7585 103.232C85.7585 102.603 85.2483 102.093 84.6191 102.093C83.9898 102.093 83.4797 102.603 83.4797 103.232C83.4797 103.862 83.9898 104.372 84.6191 104.372Z" fill="white" fill-opacity="0.67"/>
<path d="M108.357 108.739C108.776 108.739 109.116 108.399 109.116 107.98C109.116 107.56 108.776 107.22 108.357 107.22C107.937 107.22 107.597 107.56 107.597 107.98C107.597 108.399 107.937 108.739 108.357 108.739Z" fill="white" fill-opacity="0.67"/>
<path d="M68.4777 125.071H127.346Z" fill="black" fill-opacity="0.3"/>
<defs>
<linearGradient id="paint0_linear_105_340" x1="0" y1="0" x2="78.3251" y2="191.182" gradientUnits="userSpaceOnUse">
<stop stop-color="white" stop-opacity="0.2"/>
<stop offset="0.5" stop-color="white" stop-opacity="0.1"/>
<stop offset="1" stop-color="white" stop-opacity="0.15"/>
</linearGradient>
<linearGradient id="paint1_linear_105_340" x1="-7.6888" y1="83.1356" x2="107.497" y2="218.917" gradientUnits="userSpaceOnUse">
<stop stop-color="#D9D9D9"/>
<stop offset="0.387169" stop-color="#A2A2A2"/>
<stop offset="1" stop-color="white" stop-opacity="0.58"/>
</linearGradient>
<linearGradient id="paint2_linear_105_340" x1="101.827" y1="85.5559" x2="55.6133" y2="155.763" gradientUnits="userSpaceOnUse">
<stop stop-color="white"/>
<stop offset="0.356083" stop-color="#D5D5D5"/>
<stop offset="1" stop-color="#999999"/>
</linearGradient>
<linearGradient id="paint3_linear_105_340" x1="195.824" y1="79.6926" x2="1.45529" y2="62.6804" gradientUnits="userSpaceOnUse">
<stop stop-color="#D9D9D9"/>
<stop offset="0.504808" stop-color="#A6A6A6"/>
<stop offset="1" stop-color="#737373"/>
</linearGradient>
</defs>
</svg>
