<svg width="196" height="159" viewBox="0 0 196 159" fill="none" xmlns="http://www.w3.org/2000/svg">
<path d="M1.95898 20C1.95898 6 11.959 0 25.959 0H73.959C85.959 0 89.959 6 95.959 14H169.959C185.959 14 193.959 22 193.959 36V132C193.959 146 183.959 156 169.959 156H25.959C11.959 156 1.95898 146 1.95898 132V20Z" fill="black"/>
<path d="M1.95898 23C1.95898 9 11.959 3 25.959 3H73.959C85.959 3 89.959 9 95.959 17H169.959C185.959 17 193.959 25 193.959 39V135C193.959 149 183.959 159 169.959 159H25.959C11.959 159 1.95898 149 1.95898 135V23Z" fill="#F2D6C9"/>
<path d="M195.824 46.2416C195.824 33.5476 187.715 26.2939 171.495 26.2939L150.986 26.2937C131.918 26.2934 122.592 26.2933 86.3436 26.2939H34.8153C16.1853 26.2939 1.02491 41.2864 0.817381 59.9152L0 133.286C0 145.98 10.1371 155.047 24.329 155.047H170.303C184.495 155.047 194.632 145.98 194.632 133.286L195.824 46.2416Z" fill="black"/>
<path d="M193.959 49.1948C193.959 36.5009 185.959 29.2472 169.959 29.2472H35.6427C16.989 29.2472 1.81851 44.2765 1.64417 62.9294L0.958984 136.239C0.958984 148.933 10.959 158 24.959 158H168.959C182.959 158 192.959 148.933 192.959 136.239L193.959 49.1948Z" fill="#F2D6C9"/>
<path fill-rule="evenodd" clip-rule="evenodd" d="M91.4875 102.261C90.8385 101.406 90.5534 100.885 90.1343 99.917C89.5348 98.3337 89.3805 96.5771 89.8492 94.8279C91.0426 90.3743 95.6199 87.7316 100.073 88.9249C104.527 90.1183 107.17 94.6956 105.976 99.1492C104.783 103.603 100.206 106.246 95.7522 105.052C94.003 104.583 92.5589 103.572 91.4875 102.261ZM103.495 98.4844C104.323 95.3954 102.498 92.2337 99.4087 91.4061C96.3197 90.5784 93.158 92.4037 92.3303 95.4927C91.5026 98.5817 93.328 101.743 96.417 102.571C99.506 103.399 102.668 101.573 103.495 98.4844Z" fill="#DDAE98"/>
<path d="M80.0448 79.0423C89.9567 69.1304 106.025 69.1304 115.937 79.0423C119.83 82.9353 122.094 87.7946 122.923 92.8748C123.291 96.0612 123.332 97.8649 122.923 101.102C122.094 106.183 119.83 111.042 115.937 114.935C106.025 124.847 89.9566 124.847 80.0448 114.935C70.1329 105.023 70.1329 88.9542 80.0448 79.0423ZM97.9914 75.641C86.2014 75.641 76.6435 85.1986 76.6435 96.9886C76.6436 108.779 86.2014 118.336 97.9914 118.336C109.781 118.336 119.339 108.778 119.339 96.9886C119.339 85.1987 109.781 75.6411 97.9914 75.641ZM97.9914 77.2408C108.898 77.241 117.739 86.0823 117.739 96.9886C117.739 107.895 108.898 116.736 97.9914 116.736C87.0851 116.736 78.2437 107.895 78.2436 96.9886C78.2436 86.0822 87.085 77.2408 97.9914 77.2408ZM110.416 84.564C103.541 77.6893 92.4417 77.6894 85.5668 84.564C78.692 91.4389 78.692 102.538 85.5668 109.413C92.4417 116.288 103.541 116.288 110.416 109.413C117.29 102.538 117.29 91.4388 110.416 84.564Z" fill="#DDAE98"/>
<path d="M156.621 51.4119C161.824 51.4119 166.042 55.7668 166.042 61.1388V132.838C166.042 138.21 161.824 142.565 156.621 142.565H39.2041C34.0011 142.565 29.7832 138.21 29.7832 132.838V61.1388C29.7832 55.7668 34.0011 51.4119 39.2041 51.4119H156.621ZM42.7631 55.2681C37.8942 55.2681 33.9471 59.2546 33.9471 64.1721V129.805C33.9471 134.722 37.8942 138.709 42.7631 138.709H152.64C157.509 138.709 161.456 134.722 161.456 129.805V64.1721C161.456 59.2546 157.509 55.2681 152.64 55.2681H42.7631Z" fill="#DDAE98"/>
<path d="M148.268 63.8393C149.024 63.8393 149.636 64.4719 149.636 65.252V75.6648C149.636 76.445 149.024 77.0775 148.268 77.0775H131.212C130.456 77.0775 129.844 76.445 129.844 75.6648V65.252C129.844 64.4719 130.456 63.8393 131.212 63.8393H148.268ZM132.579 65.2933C131.954 65.2933 131.446 65.8055 131.446 66.4371V74.8688C131.446 75.5006 131.953 76.0127 132.579 76.0127H146.695C147.32 76.0127 147.827 75.5006 147.827 74.8688V66.4371C147.827 65.8055 147.32 65.2933 146.695 65.2933H132.579Z" fill="#DDAE98"/>
<path d="M44.3251 78.7753C45.9314 78.7753 47.2337 80.4244 47.2337 82.4588V109.611C47.2336 111.645 45.9314 113.294 44.3251 113.294H33.0165L33.1947 78.7753H44.3251ZM33.8578 80.8518L33.714 111.411H42.8241C44.1181 111.411 45.1671 109.951 45.1671 108.15V84.1127C45.1671 82.3118 44.1181 80.8519 42.8241 80.8518H33.8578Z" fill="#DDAE98"/>
<path d="M63.1208 51.2313C63.1208 52.0346 62.2935 52.686 61.273 52.686H47.6521C46.6316 52.686 45.8043 52.0346 45.8043 51.2313V49.0839C45.8043 47.1499 47.3774 45.5848 49.3115 45.5948L59.6496 45.6481C61.5696 45.658 63.1208 47.2172 63.1208 49.1372V51.2313ZM60.6433 50.2299C60.6433 48.1827 58.8266 46.6123 56.801 46.9084L54.8848 47.1885C54.5345 47.2397 54.1784 47.2373 53.8287 47.1813L52.1228 46.9083C50.0789 46.5811 48.2273 48.16 48.2273 50.2299C48.2274 50.7901 48.8205 51.2442 49.5521 51.2443H59.3185C60.0501 51.2442 60.6432 50.7901 60.6433 50.2299Z" fill="#DDAE98"/>
<path d="M81.9765 44.5733C81.9765 45.1374 82.4339 45.5947 82.998 45.5947H120.342C120.906 45.5947 121.363 45.1374 121.363 44.5733C121.363 44.0091 120.906 43.5518 120.342 43.5518H82.998C82.4339 43.5518 81.9765 44.0091 81.9765 44.5733Z" fill="#DDAE98"/>
</svg>
