<svg width="209" height="159" viewBox="0 0 209 159" fill="none" xmlns="http://www.w3.org/2000/svg">
<path d="M1.95898 20C1.95898 6 11.959 0 25.959 0H73.959C85.959 0 89.959 6 95.959 14H169.959C185.959 14 193.959 22 193.959 36V132C193.959 146 183.959 156 169.959 156H25.959C11.959 156 1.95898 146 1.95898 132V20Z" fill="black"/>
<path d="M1.95898 23C1.95898 9 11.959 3 25.959 3H73.959C85.959 3 89.959 9 95.959 17H169.959C185.959 17 193.959 25 193.959 39V135C193.959 149 183.959 159 169.959 159H25.959C11.959 159 1.95898 149 1.95898 135V23Z" fill="#F2D6C9"/>
<path d="M208.689 44.4866C207.568 33.5021 199.503 27.2915 184.495 27.2915C151.27 28.8205 132.573 28.8474 99.3436 27.2915H43.9798C26.9302 27.2915 12.5169 39.9191 10.275 56.8207L0 134.283C0 146.977 10.1371 156.044 24.329 156.044H170.303C183.448 156.044 193.114 148.266 194.469 137.033C194.689 135.213 194.78 133.375 195.075 131.566L208.381 49.9568C208.676 48.148 208.875 46.3099 208.689 44.4866Z" fill="black"/>
<path d="M206.829 46.4788C205.737 35.4715 197.78 29.2471 182.959 29.2471C151.948 30.5122 134.246 30.9992 98.959 29.2471H44.7999C27.7274 29.2471 13.3023 41.9076 11.0873 58.8357L0.958984 136.239C0.958984 148.933 10.959 158 24.959 158H168.959C181.94 158 191.482 150.205 192.802 138.952C193.013 137.156 193.103 135.342 193.39 133.557L206.528 51.877C206.815 50.0917 207.007 48.2782 206.829 46.4788Z" fill="#F2D6C9"/>
</svg>
