<svg width="196" height="159" viewBox="0 0 196 159" fill="none" xmlns="http://www.w3.org/2000/svg">
<path d="M1.95898 20C1.95898 6 11.959 0 25.959 0H73.959C85.959 0 89.959 6 95.959 14H169.959C185.959 14 193.959 22 193.959 36V132C193.959 146 183.959 156 169.959 156H25.959C11.959 156 1.95898 146 1.95898 132V20Z" fill="black"/>
<path d="M1.95898 23C1.95898 9 11.959 3 25.959 3H73.959C85.959 3 89.959 9 95.959 17H169.959C185.959 17 193.959 25 193.959 39V135C193.959 149 183.959 159 169.959 159H25.959C11.959 159 1.95898 149 1.95898 135V23Z" fill="#F2D6C9"/>
<path d="M195.824 46.2416C195.824 33.5476 187.715 26.2939 171.495 26.2939L150.986 26.2937C131.918 26.2934 122.592 26.2933 86.3436 26.2939H34.8153C16.1853 26.2939 1.02491 41.2864 0.817381 59.9152L0 133.286C0 145.98 10.1371 155.047 24.329 155.047H170.303C184.495 155.047 194.632 145.98 194.632 133.286L195.824 46.2416Z" fill="black"/>
<path d="M193.959 49.1948C193.959 36.5009 185.959 29.2472 169.959 29.2472H35.6427C16.989 29.2472 1.81851 44.2765 1.64417 62.9294L0.958984 136.239C0.958984 148.933 10.959 158 24.959 158H168.959C182.959 158 192.959 148.933 192.959 136.239L193.959 49.1948Z" fill="#F2D6C9"/>
<path d="M63.7099 54.0926C63.7099 47.8777 68.748 42.8395 74.963 42.8395H123.022C127.796 42.8395 132.376 44.7377 135.752 48.1133C135.998 48.3595 136.234 48.5951 136.461 48.822C139.836 52.1976 141.731 56.7745 141.731 61.5484V129.863C141.731 136.078 136.693 141.116 130.478 141.116H74.963C68.748 141.116 63.7099 136.078 63.7099 129.863V54.0926Z" fill="white" fill-opacity="0.79"/>
<path d="M70.1967 60.6554C70.1967 59.1016 71.4562 57.8421 73.0099 57.8421H97.0165C98.5703 57.8421 99.8298 59.1016 99.8298 60.6554C99.8298 62.2091 98.5703 63.4686 97.0165 63.4686H73.0099C71.4562 63.4686 70.1967 62.2091 70.1967 60.6554Z" fill="#F2D6C9"/>
<path d="M70.1967 73.4089C70.1967 71.8551 71.4562 70.5956 73.0099 70.5956H117.647C119.201 70.5956 120.46 71.8551 120.46 73.4089C120.46 74.9626 119.201 76.2221 117.647 76.2221H73.0099C71.4562 76.2221 70.1967 74.9626 70.1967 73.4089Z" fill="#F2D6C9"/>
<path d="M70.1967 98.9159C70.1967 97.3622 71.4562 96.1026 73.0099 96.1026H78.6365C80.1902 96.1026 81.4498 97.3622 81.4498 98.9159C81.4498 100.47 80.1902 101.729 78.6365 101.729H73.0099C71.4562 101.729 70.1967 100.47 70.1967 98.9159Z" fill="#F2D6C9"/>
<path d="M84.8257 99.1034C84.8257 97.8604 85.8333 96.8528 87.0763 96.8528H123.836C125.079 96.8528 126.087 97.8604 126.087 99.1034C126.087 100.346 125.079 101.354 123.836 101.354H87.0763C85.8333 101.354 84.8257 100.346 84.8257 99.1034Z" fill="#F2D6C9"/>
<path d="M70.1967 111.107C70.1967 109.864 71.2043 108.856 72.4473 108.856H115.209C116.452 108.856 117.46 109.864 117.46 111.107C117.46 112.35 116.452 113.357 115.209 113.357H72.4473C71.2043 113.357 70.1967 112.35 70.1967 111.107Z" fill="#F2D6C9"/>
<path d="M70.1967 122.735C70.1967 121.492 71.2043 120.484 72.4473 120.484H123.086C124.329 120.484 125.337 121.492 125.337 122.735C125.337 123.978 124.329 124.986 123.086 124.986H72.4473C71.2043 124.986 70.1967 123.978 70.1967 122.735Z" fill="#F2D6C9"/>
<path d="M70.1967 86.1624C70.1967 84.6086 71.4562 83.3491 73.0099 83.3491H118.397C119.951 83.3491 121.211 84.6086 121.211 86.1624C121.211 87.7161 119.951 88.9756 118.397 88.9756H73.0099C71.4562 88.9756 70.1967 87.7161 70.1967 86.1624Z" fill="#F2D6C9"/>
<path d="M132.72 57.4093C131.414 57.4237 130.35 56.2542 130.356 54.8114L130.384 48.5941C130.395 46.3005 132.976 45.0354 134.448 46.6532C136.769 48.9722 138.014 50.3752 139.771 53.2082C139.837 53.314 139.914 53.4136 139.992 53.5105C141.288 55.1195 140.365 57.3249 138.348 57.3471L132.72 57.4093Z" fill="#F2D6C9"/>
</svg>
