<svg width="196" height="159" viewBox="0 0 196 159" fill="none" xmlns="http://www.w3.org/2000/svg">
<path d="M1.95898 20C1.95898 6 11.959 0 25.959 0H73.959C85.959 0 89.959 6 95.959 14H169.959C185.959 14 193.959 22 193.959 36V132C193.959 146 183.959 156 169.959 156H25.959C11.959 156 1.95898 146 1.95898 132V20Z" fill="black"/>
<path d="M1.95898 23C1.95898 9 11.959 3 25.959 3H73.959C85.959 3 89.959 9 95.959 17H169.959C185.959 17 193.959 25 193.959 39V135C193.959 149 183.959 159 169.959 159H25.959C11.959 159 1.95898 149 1.95898 135V23Z" fill="#F2D6C9"/>
<path d="M195.824 46.2416C195.824 33.5476 187.715 26.2939 171.495 26.2939L150.986 26.2937C131.918 26.2934 122.592 26.2933 86.3436 26.2939H34.8153C16.1853 26.2939 1.02491 41.2864 0.817381 59.9152L0 133.286C0 145.98 10.1371 155.047 24.329 155.047H170.303C184.495 155.047 194.632 145.98 194.632 133.286L195.824 46.2416Z" fill="black"/>
<path d="M193.959 49.1948C193.959 36.5009 185.959 29.2472 169.959 29.2472H35.6427C16.989 29.2472 1.81851 44.2765 1.64417 62.9294L0.958984 136.239C0.958984 148.933 10.959 158 24.959 158H168.959C182.959 158 192.959 148.933 192.959 136.239L193.959 49.1948Z" fill="#F2D6C9"/>
<path d="M33.6377 108.221C33.6377 92.7581 46.1722 80.2229 61.6343 80.2229H134.189C149.651 80.2229 162.186 92.7581 162.186 108.221C162.186 123.684 149.651 136.219 134.189 136.219H61.6343C46.1722 136.219 33.6377 123.684 33.6377 108.221Z" fill="url(#paint0_linear_105_332)"/>
<path d="M134.189 80.2229C134.189 75.3606 133.606 74.4912 131.709 70.0141C129.813 65.5369 127.035 61.4868 123.542 58.1043C120.05 54.7217 115.912 52.0759 111.377 50.3239C106.841 48.572 102 47.7497 97.1404 47.9059C92.2807 48.0622 87.5021 49.1937 83.0885 51.2334C78.6748 53.273 74.7161 56.1791 71.4478 59.779C68.1794 63.3789 65.668 67.5991 64.0627 72.1888C62.4229 76.6739 63.2116 77.0682 62.8173 80.2229H134.189Z" fill="url(#paint1_linear_105_332)"/>
<path d="M99.2698 122.764C98.8259 123.47 97.716 123.47 97.2721 122.764L74.7305 86.9172C74.2114 86.0916 75.0517 85.1059 76.0493 85.3703L97.9514 91.1752C98.1604 91.2306 98.3821 91.2306 98.5911 91.1752L120.493 85.3703C121.49 85.1059 122.331 86.0916 121.811 86.9172L99.2698 122.764Z" fill="url(#paint2_linear_105_332)"/>
<path d="M109.979 91.5247C109.979 92.1096 109.462 92.5837 108.825 92.5837H87.4876C86.8506 92.5837 86.3342 92.1096 86.3342 91.5247V61.8739C86.3342 61.289 86.8506 60.8149 87.4876 60.8149H108.825C109.462 60.8149 109.979 61.289 109.979 61.8739V91.5247Z" fill="url(#paint3_linear_105_332)"/>
<path d="M99.0436 119.641C98.6493 120.275 97.6636 120.275 97.2693 119.641L77.2478 87.4396C76.7867 86.698 77.5331 85.8125 78.4192 86.05L97.8726 91.2646C98.0582 91.3143 98.2552 91.3143 98.4408 91.2646L117.894 86.05C118.78 85.8125 119.526 86.698 119.065 87.4396L99.0436 119.641Z" fill="white"/>
<path d="M109.402 91.5785C109.402 92.1039 107.378 92.5298 106.813 92.5298H87.8605C87.2947 92.5298 86.8361 92.1039 86.8361 91.5785V62.7886C86.8361 62.2632 87.2947 61.8373 87.8605 61.8373H106.813C107.378 61.8373 109.402 62.2632 109.402 62.7886V91.5785Z" fill="white"/>
<defs>
<linearGradient id="paint0_linear_105_332" x1="97.9121" y1="0" x2="97.9121" y2="159" gradientUnits="userSpaceOnUse">
<stop stop-color="#CBC9FF"/>
<stop offset="1" stop-color="#F7F7F7"/>
</linearGradient>
<linearGradient id="paint1_linear_105_332" x1="97.9121" y1="0" x2="97.9121" y2="159" gradientUnits="userSpaceOnUse">
<stop stop-color="#CBC9FF"/>
<stop offset="1" stop-color="#F7F7F7"/>
</linearGradient>
<linearGradient id="paint2_linear_105_332" x1="97.9121" y1="0" x2="97.9121" y2="159" gradientUnits="userSpaceOnUse">
<stop stop-color="#C1D0FF"/>
<stop offset="1" stop-color="white" stop-opacity="0.8"/>
</linearGradient>
<linearGradient id="paint3_linear_105_332" x1="97.9121" y1="0" x2="97.9121" y2="159" gradientUnits="userSpaceOnUse">
<stop stop-color="#C1D0FF"/>
<stop offset="1" stop-color="white" stop-opacity="0.8"/>
</linearGradient>
</defs>
</svg>
