<svg width="196" height="159" viewBox="0 0 196 159" fill="none" xmlns="http://www.w3.org/2000/svg">
<path d="M1.95898 20C1.95898 6 11.959 0 25.959 0H73.959C85.959 0 89.959 6 95.959 14H169.959C185.959 14 193.959 22 193.959 36V132C193.959 146 183.959 156 169.959 156H25.959C11.959 156 1.95898 146 1.95898 132V20Z" fill="black"/>
<path d="M1.95898 23C1.95898 9 11.959 3 25.959 3H73.959C85.959 3 89.959 9 95.959 17H169.959C185.959 17 193.959 25 193.959 39V135C193.959 149 183.959 159 169.959 159H25.959C11.959 159 1.95898 149 1.95898 135V23Z" fill="#F2D6C9"/>
<path d="M195.824 46.2416C195.824 33.5476 187.715 26.2939 171.495 26.2939L150.986 26.2937C131.918 26.2934 122.592 26.2933 86.3436 26.2939H34.8153C16.1853 26.2939 1.02491 41.2864 0.817381 59.9152L0 133.286C0 145.98 10.1371 155.047 24.329 155.047H170.303C184.495 155.047 194.632 145.98 194.632 133.286L195.824 46.2416Z" fill="black"/>
<path d="M193.959 49.1948C193.959 36.5009 185.959 29.2472 169.959 29.2472H35.6427C16.989 29.2472 1.81851 44.2765 1.64417 62.9294L0.958984 136.239C0.958984 148.933 10.959 158 24.959 158H168.959C182.959 158 192.959 148.933 192.959 136.239L193.959 49.1948Z" fill="#F2D6C9"/>
<path d="M160.001 53.177C160.001 46.7268 153.565 41.4719 145.522 41.2523C145.182 41.243 144.851 41.356 144.58 41.5608C143.388 42.4628 144.026 44.5633 145.474 44.9337C151.511 46.4776 155.88 50.9805 155.88 56.2949V120.145C155.88 126.735 149.163 132.077 140.877 132.077H54.9478C46.6617 132.077 39.9445 126.735 39.9444 120.145V56.2949C39.9444 50.9806 44.3129 46.4778 50.3498 44.9337C51.798 44.5633 52.436 42.4627 51.2439 41.5608C50.9731 41.356 50.6418 41.243 50.3024 41.2523C42.259 41.4719 35.8232 46.7268 35.8232 53.177V123.263C35.8232 129.853 42.5405 135.195 50.8266 135.195H144.998C153.284 135.195 160.001 129.853 160.001 123.263V53.177Z" fill="#DDAE98"/>
<path d="M149.328 122.049C149.328 125.511 146.521 128.318 143.059 128.318L104.48 133.112C101.017 133.112 98.2105 130.305 98.2105 126.843V66.6195C98.2105 64.733 99.0437 63.0411 100.362 61.8918C102.611 59.9315 105.943 59.9793 108.834 59.2462L136.491 52.2346C139.383 51.5014 142.494 50.4965 145.303 51.5002C146.423 51.9005 147.115 52.7307 147.115 54.4496L149.328 122.049ZM115.294 62.6836C112.041 63.6251 108.156 63.6066 105.831 66.0687C104.771 67.1915 104.121 68.706 104.121 70.3722V119.771C104.121 122.121 105.414 124.169 107.327 125.243C109.184 126.284 111.444 125.852 113.539 125.476L133.999 121.811C136.095 121.435 138.355 121.49 140.211 120.449C142.125 119.375 143.418 117.327 143.418 114.977V62.6277C143.418 60.9615 142.768 59.4471 141.708 58.3242C139.383 55.8622 135.498 56.8362 132.245 57.7776L115.294 62.6836Z" fill="#DDAE98"/>
<path d="M52.877 122.049C52.877 125.511 55.6839 128.318 59.1463 128.318L97.725 133.112C101.187 133.112 103.994 130.305 103.994 126.843V66.6195C103.994 64.733 103.161 63.0411 101.843 61.8918C99.5937 59.9315 96.2623 59.9793 93.3704 59.2462L65.7136 52.2346C62.8218 51.5014 59.7113 50.4965 56.9019 51.5002C55.7815 51.9005 55.0897 52.7307 55.0897 54.4496L52.877 122.049ZM86.9111 62.6836C90.1639 63.6251 94.0489 63.6066 96.3738 66.0687C97.4341 67.1915 98.0841 68.706 98.0841 70.3722V119.771C98.0841 122.121 96.791 124.169 94.8776 125.243C93.0209 126.284 90.7608 125.852 88.6654 125.476L68.2056 121.811C66.1102 121.435 63.8501 121.49 61.9934 120.449C60.08 119.375 58.7869 117.327 58.7869 114.977V62.6277C58.7869 60.9615 59.4369 59.4471 60.4972 58.3242C62.8221 55.8622 66.7071 56.8362 69.9598 57.7776L86.9111 62.6836Z" fill="#DDAE98"/>
<path d="M94.9927 139.006C85.7088 139.03 70.3894 139.057 64.988 139.029C63.9477 139.023 63.0402 139.921 63.0402 140.961C63.0402 141.917 63.8145 142.691 64.7697 142.691H92.8694C93.8387 142.691 94.7615 143.107 95.4037 143.833C96.046 144.559 96.9688 144.974 97.9381 144.974H103.368C104.238 144.974 105.052 144.548 105.548 143.833C106.043 143.118 106.857 142.691 107.727 142.691H113.715C114.734 142.691 115.56 141.865 115.56 140.847C115.56 139.828 114.734 139.002 113.715 139.002H105.479C104.589 139.002 103.758 139.447 103.264 140.188C102.77 140.929 101.939 141.373 101.049 141.373H99.4172C98.5284 141.373 97.6984 140.929 97.2054 140.19C96.711 139.448 95.8841 139.004 94.9927 139.006Z" fill="#DDAE98"/>
<path d="M121.408 140.87C121.408 139.839 122.244 139.002 123.276 139.002H129.936C130.968 139.002 131.804 139.839 131.804 140.87C131.804 141.902 130.968 142.739 129.936 142.739H123.276C122.244 142.739 121.408 141.902 121.408 140.87Z" fill="#DDAE98"/>
</svg>
