<svg width="196" height="159" viewBox="0 0 196 159" fill="none" xmlns="http://www.w3.org/2000/svg">
<path d="M1.95898 20C1.95898 6 11.959 0 25.959 0H73.959C85.959 0 89.959 6 95.959 14H169.959C185.959 14 193.959 22 193.959 36V132C193.959 146 183.959 156 169.959 156H25.959C11.959 156 1.95898 146 1.95898 132V20Z" fill="black"/>
<path d="M1.95898 23C1.95898 9 11.959 3 25.959 3H73.959C85.959 3 89.959 9 95.959 17H169.959C185.959 17 193.959 25 193.959 39V135C193.959 149 183.959 159 169.959 159H25.959C11.959 159 1.95898 149 1.95898 135V23Z" fill="#F2D6C9"/>
<path d="M195.824 46.2416C195.824 33.5476 187.715 26.2939 171.495 26.2939L150.986 26.2937C131.918 26.2934 122.592 26.2933 86.3436 26.2939H34.8153C16.1853 26.2939 1.02491 41.2864 0.817381 59.9152L0 133.286C0 145.98 10.1371 155.047 24.329 155.047H170.303C184.495 155.047 194.632 145.98 194.632 133.286L195.824 46.2416Z" fill="black"/>
<path d="M193.959 49.1948C193.959 36.5009 185.959 29.2472 169.959 29.2472H35.6427C16.989 29.2472 1.81851 44.2765 1.64417 62.9294L0.958984 136.239C0.958984 148.933 10.959 158 24.959 158H168.959C182.959 158 192.959 148.933 192.959 136.239L193.959 49.1948Z" fill="#F2D6C9"/>
<path d="M180.392 121.389C180.263 121.421 180.112 121.406 179.989 121.332C154.546 106.411 127.087 110.416 92.3045 115.481C89.678 115.863 86.96 116.258 84.2197 116.648C70.4394 118.615 58.2242 118.473 47.9328 116.226C39.6635 114.419 32.6124 111.259 26.9599 106.839C21.9201 102.894 18.9478 98.6444 17.3414 95.784C15.5869 92.6668 15.0528 90.5246 15.0281 90.4259C14.9568 90.1396 15.1401 89.8632 15.427 89.7917C15.7139 89.7202 16.0055 89.8781 16.0769 90.1644C16.0867 90.2039 16.6258 92.3239 18.3088 95.3226C19.8733 98.0991 22.769 102.211 27.6854 106.039C36.3865 112.824 53.2399 119.978 84.0701 115.584C86.8104 115.194 89.5284 114.8 92.1549 114.417C109.87 111.835 125.172 109.604 139.681 109.845C155.719 110.103 168.705 113.461 180.546 120.407C180.803 120.552 180.887 120.888 180.74 121.145C180.656 121.271 180.53 121.355 180.392 121.389Z" fill="#DDAE98"/>
<path d="M179.395 117.265C179.266 117.297 179.115 117.282 178.992 117.208C154.504 102.909 128.472 106.065 95.5352 110.062C93.0671 110.363 90.5074 110.676 87.9354 110.982C75.3079 112.473 64.0326 112.097 54.436 109.855C46.7355 108.053 40.0848 105.066 34.6668 100.954C29.8344 97.2932 26.9087 93.3986 25.2995 90.7799C23.5472 87.9244 22.951 85.9549 22.9214 85.8784C22.8402 85.5946 22.9963 85.2936 23.2808 85.2121C23.5652 85.1307 23.8667 85.2862 23.948 85.5701C23.9677 85.649 26.3697 93.3442 35.3799 100.147C43.7182 106.446 59.5803 113.249 87.8155 109.911C90.3875 109.605 92.9372 109.294 95.4054 108.993C111.431 107.053 126.569 105.218 140.396 105.714C155.709 106.268 168.148 109.626 179.537 116.275C179.794 116.421 179.878 116.757 179.731 117.013C179.65 117.149 179.533 117.231 179.395 117.265Z" fill="#DDAE98"/>
<path d="M177.894 112.722C177.766 112.754 177.615 112.739 177.491 112.665C153.994 99.0097 129.36 101.324 98.163 104.248C95.8433 104.47 93.4396 104.692 91.0358 104.913C79.4745 105.961 69.0823 105.375 60.1509 103.145C52.9919 101.365 46.7366 98.5315 41.5854 94.7304C32.7676 88.2364 30.2411 81.2643 30.1352 80.9657C30.0341 80.6868 30.1878 80.3758 30.4673 80.2747C30.7468 80.1735 31.0582 80.3266 31.1593 80.6055C31.1938 80.7017 33.7302 87.6294 42.296 93.9136C50.2317 99.7362 65.1126 106.186 90.9357 103.837C93.3394 103.616 95.7432 103.394 98.0629 103.172C113.178 101.752 127.452 100.416 140.611 101.182C155.219 102.028 167.112 105.386 178.024 111.725C178.281 111.87 178.365 112.206 178.218 112.462C178.156 112.593 178.033 112.687 177.894 112.722Z" fill="#DDAE98"/>
<path d="M177.058 109.197C176.929 109.229 176.778 109.215 176.655 109.14C153.97 96.0063 129.325 97.8101 100.787 99.8923C98.5883 100.052 96.3181 100.22 94.0454 100.378C83.3252 101.132 73.6329 100.403 65.2257 98.2102C58.4821 96.4523 52.5655 93.7543 47.6093 90.1876C39.1546 84.0959 36.5137 77.6766 36.4126 77.3978C36.3017 77.1213 36.4331 76.8055 36.7126 76.7043C36.9897 76.5933 37.3061 76.7241 37.4071 77.003C37.4416 77.0993 40.0801 83.4667 48.2976 89.3659C55.9123 94.8282 70.0171 100.99 93.9577 99.3091C96.2303 99.1514 98.5005 98.9839 100.699 98.8237C115.054 97.7715 128.616 96.7809 141.211 97.73C155.218 98.7779 166.653 102.113 177.19 108.21C177.447 108.356 177.53 108.691 177.384 108.948C177.32 109.069 177.196 109.163 177.058 109.197Z" fill="#DDAE98"/>
<path d="M176.327 105.972C176.198 106.004 176.057 105.986 175.924 105.915C153.99 93.2645 130.451 94.5304 103.19 96.0007C101.105 96.1115 98.9487 96.2298 96.7899 96.3381C86.797 96.8479 77.6983 96.0127 69.7633 93.8598C63.3955 92.1341 57.7606 89.5545 53.002 86.1902C44.8659 80.449 42.1626 74.4962 42.0591 74.2494C41.9382 73.9754 42.0598 73.662 42.3344 73.5411C42.609 73.4202 42.9229 73.5412 43.0437 73.8151C43.0857 73.899 45.7865 79.8001 53.6879 85.3586C61.0161 90.5149 74.4239 96.4097 96.7343 95.272C98.8931 95.1636 101.049 95.0454 103.134 94.9346C116.812 94.1982 129.72 93.4963 141.806 94.5933C155.266 95.809 166.283 99.1123 176.459 104.985C176.716 105.13 176.81 105.463 176.654 105.722C176.592 105.853 176.465 105.937 176.327 105.972Z" fill="#DDAE98"/>
<path d="M67.8106 84.5951C62.1523 80.868 59.214 72.9605 58.2408 69.8583L58.3278 69.4906C58.452 68.9773 58.1435 68.4565 57.6293 68.3331L57.5403 68.3133C57.0262 68.1898 56.5041 68.4983 56.3798 69.0116L49.2919 97.7371C47.5781 95.7108 44.3055 94.5974 40.7714 95.0906C35.8968 95.7712 32.3519 99.2555 32.862 102.861C33.3623 106.469 37.7264 108.841 42.601 108.161C47.2307 107.51 50.6566 104.349 50.5542 100.946C50.5741 100.899 50.5914 100.842 50.6088 100.785L55.4061 81.3756C56.7522 82.6862 60.2646 86.0676 62.8091 88.0965C66.0232 90.661 61.0886 96.2429 61.0886 96.2429C64.3565 94.9772 74.9415 89.2973 67.8106 84.5951Z" fill="#DDAE98"/>
<path d="M116.557 100.343L115.776 79.2525L115.867 79.2402L115.601 71.9352L87.4738 76.0855L87.656 81.0312L87.7374 83.3807L88.411 101.72C86.8467 100.883 84.6734 100.722 82.5262 101.467C79.0728 102.664 76.9897 105.731 77.8868 108.318C78.7839 110.904 82.3013 112.03 85.7645 110.831C89.1783 109.644 91.2762 106.636 90.4161 104.072L89.6392 83.0847L113.856 79.5213L114.535 97.9639C112.971 97.1271 110.81 96.9739 108.662 97.719C105.209 98.9155 103.126 101.983 104.035 104.577C104.933 107.163 108.44 108.291 111.903 107.092C115.329 105.913 117.417 102.907 116.557 100.343Z" fill="#DDAE98"/>
<path d="M149.14 109.468L148.296 82.3952C148.282 81.8745 147.805 81.4796 147.273 81.4968L146.887 81.5091C146.366 81.5239 145.977 81.9458 145.991 82.4666L146.745 106.689C144.859 105.702 142.372 105.504 139.853 106.363C135.794 107.742 133.344 111.32 134.375 114.355C135.405 117.391 139.552 118.727 143.602 117.35C147.624 115.991 150.027 112.477 149.14 109.468Z" fill="#DDAE98"/>
</svg>
