<svg width="196" height="159" viewBox="0 0 196 159" fill="none" xmlns="http://www.w3.org/2000/svg">
<mask id="path-1-inside-1_107_547" fill="white">
<path d="M1.95898 20C1.95898 6 11.959 0 25.959 0H73.959C85.959 0 89.959 6 95.959 14H169.959C185.959 14 193.959 22 193.959 36V132C193.959 146 183.959 156 169.959 156H25.959C11.959 156 1.95898 146 1.95898 132V20Z"/>
<path d="M1.95898 23C1.95898 9 11.959 3 25.959 3H73.959C85.959 3 89.959 9 95.959 17H169.959C185.959 17 193.959 25 193.959 39V135C193.959 149 183.959 159 169.959 159H25.959C11.959 159 1.95898 149 1.95898 135V23Z"/>
<path d="M195.824 46.2416C195.824 33.5476 187.715 26.2939 171.495 26.2939L150.986 26.2937C131.918 26.2934 122.592 26.2933 86.3436 26.2939H34.8153C16.1853 26.2939 1.02491 41.2864 0.817381 59.9152L0 133.286C0 145.98 10.1371 155.047 24.329 155.047H170.303C184.495 155.047 194.632 145.98 194.632 133.286L195.824 46.2416Z"/>
<path d="M193.959 49.1948C193.959 36.5009 185.959 29.2472 169.959 29.2472H35.6427C16.989 29.2472 1.81851 44.2765 1.64417 62.9294L0.958984 136.239C0.958984 148.933 10.959 158 24.959 158H168.959C182.959 158 192.959 148.933 192.959 136.239L193.959 49.1948Z"/>
<path fill-rule="evenodd" clip-rule="evenodd" d="M130.523 55.9781C129.385 64.6967 123.966 74.2472 109.754 82.2209C131.797 77.5129 135.773 51.4327 133.911 41.2435C131.835 40.8389 117.238 43.3019 104.372 54.7439C83.0742 77.2302 77.6618 105.52 77.5006 119.5C81.4525 77.3132 106.756 46.8922 131.808 43.9293C131.888 44.1585 131.409 49.1825 130.523 55.9781Z"/>
<path d="M119.288 84.9246C110.976 94.4943 109.344 95.9883 94.2827 100.765C99.8163 101.185 104.924 99.7838 109.33 97.3977C104.734 112.876 95.4397 115.658 88.7747 117.983C83.4819 119.83 81.2822 141.97 79.7678 148.103C79.7134 148.323 79.4262 148.826 79.0287 148.846C78.8109 148.856 78.2642 148.293 78.2647 148.204C78.2707 146.315 77.1805 142.054 80.8359 128.645C84.2208 116.228 96.4428 83.538 105.265 68.7672C104.809 69.2756 102.761 73.4131 95.8767 83.6946C87.8814 97.9533 75.7866 134.761 75.3918 141.189C74.7867 145.227 74.5472 148.495 79.1586 152.798C79.7961 152.848 80.9828 150.962 82.1058 148.559C83.5798 145.405 83.3215 139.793 84.2397 134.765C85.5855 127.392 88.0064 120.701 90.1675 120.152C107.126 114.421 112.231 101.219 112.664 95.3335C121.66 88.8962 127.608 78.1028 129.641 70.0658C129.655 70.0324 129.66 70.0111 129.657 70.0027C129.652 70.0239 129.646 70.0447 129.641 70.0658C129.293 70.9329 123.577 79.9878 119.288 84.9246Z"/>
</mask>
<path d="M95.959 14L95.159 14.6C95.3478 14.8518 95.6442 15 95.959 15V14ZM95.959 17L95.159 17.6C95.3478 17.8518 95.6442 18 95.959 18V17ZM171.495 26.2939L171.495 27.2939H171.495V26.2939ZM195.824 46.2416L196.824 46.2553V46.2416H195.824ZM194.632 133.286L193.632 133.272V133.286H194.632ZM0 133.286L-1 133.275V133.286H0ZM0.817381 59.9152L-0.182557 59.904L0.817381 59.9152ZM86.3436 26.2939L86.3436 27.2939L86.3436 27.2939L86.3436 26.2939ZM150.986 26.2937L150.986 27.2937L150.986 27.2937L150.986 26.2937ZM193.959 49.1948L194.959 49.2063V49.1948H193.959ZM192.959 136.239L191.959 136.228V136.239H192.959ZM0.958984 136.239L-0.0410156 136.23V136.239H0.958984ZM1.64417 62.9294L2.64413 62.9387L1.64417 62.9294ZM130.523 55.9781L131.514 56.1074L131.514 56.1074L130.523 55.9781ZM109.754 82.2209L109.265 81.3488L109.963 83.1989L109.754 82.2209ZM133.911 41.2435L134.895 41.0637L134.772 40.3926L134.102 40.262L133.911 41.2435ZM104.372 54.7439L103.707 53.9966L103.675 54.0251L103.646 54.0562L104.372 54.7439ZM77.5006 119.5L76.5007 119.488L78.4963 119.593L77.5006 119.5ZM131.808 43.9293L132.751 43.5979L132.486 42.8422L131.691 42.9363L131.808 43.9293ZM119.288 84.9246L118.533 84.2689L118.533 84.2689L119.288 84.9246ZM94.2827 100.765L93.9803 99.8121L94.2071 101.762L94.2827 100.765ZM109.33 97.3977L110.289 97.6823L110.976 95.3696L108.854 96.5183L109.33 97.3977ZM88.7747 117.983L88.4453 117.039L88.4453 117.039L88.7747 117.983ZM79.7678 148.103L80.7387 148.343L80.7387 148.342L79.7678 148.103ZM79.0287 148.846L79.0755 149.845L79.0788 149.844L79.0287 148.846ZM78.2647 148.204L79.2647 148.209L79.2647 148.207L78.2647 148.204ZM80.8359 128.645L79.8711 128.382L79.8711 128.382L80.8359 128.645ZM105.265 68.7672L106.123 69.28L104.52 68.0996L105.265 68.7672ZM95.8767 83.6946L95.0458 83.1382L95.0238 83.171L95.0045 83.2055L95.8767 83.6946ZM75.3918 141.189L76.3808 141.337L76.3873 141.294L76.3899 141.25L75.3918 141.189ZM79.1586 152.798L78.4765 153.529L78.7322 153.768L79.0809 153.795L79.1586 152.798ZM82.1058 148.559L83.0118 148.982L83.0118 148.982L82.1058 148.559ZM84.2397 134.765L85.2235 134.944L85.2235 134.944L84.2397 134.765ZM90.1675 120.152L90.4141 121.121L90.4512 121.111L90.4876 121.099L90.1675 120.152ZM112.664 95.3335L112.082 94.5203L111.701 94.7929L111.667 95.2602L112.664 95.3335ZM129.657 70.0027L130.61 69.6994L129.564 66.4122L128.69 69.7493L129.657 70.0027ZM1.95898 20H2.95898C2.95898 13.2647 5.34876 8.57846 9.31643 5.54436C13.3274 2.47712 19.0803 1 25.959 1V0V-1C18.8376 -1 12.5905 0.522877 8.10153 3.95564C3.56921 7.42154 0.958984 12.7353 0.958984 20H1.95898ZM25.959 0V1H73.959V0V-1H25.959V0ZM73.959 0V1C79.7662 1 83.5449 2.44311 86.5993 4.79262C89.7152 7.1895 92.1241 10.5535 95.159 14.6L95.959 14L96.759 13.4C93.7939 9.44655 91.2028 5.8105 87.8187 3.20738C84.3731 0.55689 80.1517 -1 73.959 -1V0ZM95.959 14V15H169.959V14V13H95.959V14ZM169.959 14V15C177.804 15 183.522 16.9611 187.275 20.4795C191.018 23.9881 192.959 29.1892 192.959 36H193.959H194.959C194.959 28.8108 192.9 23.0119 188.643 19.0205C184.396 15.0389 178.114 13 169.959 13V14ZM193.959 36H192.959V132H193.959H194.959V36H193.959ZM193.959 132H192.959C192.959 145.448 183.407 155 169.959 155V156V157C184.511 157 194.959 146.552 194.959 132H193.959ZM169.959 156V155H25.959V156V157H169.959V156ZM25.959 156V155C12.5113 155 2.95898 145.448 2.95898 132H1.95898H0.958984C0.958984 146.552 11.4067 157 25.959 157V156ZM1.95898 132H2.95898V20H1.95898H0.958984V132H1.95898ZM1.95898 23H2.95898C2.95898 16.2647 5.34876 11.5785 9.31643 8.54436C13.3274 5.47712 19.0803 4 25.959 4V3V2C18.8376 2 12.5905 3.52288 8.10153 6.95564C3.56921 10.4215 0.958984 15.7353 0.958984 23H1.95898ZM25.959 3V4H73.959V3V2H25.959V3ZM73.959 3V4C79.7662 4 83.5449 5.44311 86.5993 7.79262C89.7152 10.1895 92.1241 13.5535 95.159 17.6L95.959 17L96.759 16.4C93.7939 12.4465 91.2028 8.8105 87.8187 6.20738C84.3731 3.55689 80.1517 2 73.959 2V3ZM95.959 17V18H169.959V17V16H95.959V17ZM169.959 17V18C177.804 18 183.522 19.9611 187.275 23.4795C191.018 26.9881 192.959 32.1892 192.959 39H193.959H194.959C194.959 31.8108 192.9 26.0119 188.643 22.0205C184.396 18.0389 178.114 16 169.959 16V17ZM193.959 39H192.959V135H193.959H194.959V39H193.959ZM193.959 135H192.959C192.959 148.448 183.407 158 169.959 158V159V160C184.511 160 194.959 149.552 194.959 135H193.959ZM169.959 159V158H25.959V159V160H169.959V159ZM25.959 159V158C12.5113 158 2.95898 148.448 2.95898 135H1.95898H0.958984C0.958984 149.552 11.4067 160 25.959 160V159ZM1.95898 135H2.95898V23H1.95898H0.958984V135H1.95898ZM171.495 26.2939V27.2939C179.475 27.2939 185.291 29.0805 189.099 32.2738C192.878 35.4423 194.824 40.1187 194.824 46.2416H195.824H196.824C196.824 39.6704 194.716 34.3731 190.384 30.7413C186.083 27.1342 179.735 25.2939 171.495 25.2939V26.2939ZM195.824 46.2416L194.824 46.2279L193.632 133.272L194.632 133.286L195.632 133.299L196.824 46.2553L195.824 46.2416ZM194.632 133.286H193.632C193.632 145.325 184.051 154.047 170.303 154.047V155.047V156.047C184.94 156.047 195.632 146.634 195.632 133.286H194.632ZM170.303 155.047V154.047H24.329V155.047V156.047H170.303V155.047ZM24.329 155.047V154.047C10.5816 154.047 1 145.325 1 133.286H0H-1C-1 146.634 9.69263 156.047 24.329 156.047V155.047ZM0 133.286L0.999938 133.297L1.81732 59.9263L0.817381 59.9152L-0.182557 59.904L-0.999938 133.275L0 133.286ZM34.8153 26.2939V27.2939H86.3436V26.2939V25.2939H34.8153V26.2939ZM86.3436 26.2939L86.3436 27.2939C122.592 27.2933 131.918 27.2934 150.986 27.2937L150.986 26.2937L150.986 25.2937C131.918 25.2934 122.592 25.2933 86.3435 25.2939L86.3436 26.2939ZM150.986 26.2937L150.986 27.2937L171.495 27.2939L171.495 26.2939L171.495 25.2939L150.986 25.2937L150.986 26.2937ZM0.817381 59.9152L1.81732 59.9263C2.01875 41.8454 16.7333 27.2939 34.8153 27.2939V26.2939V25.2939C15.6374 25.2939 0.0310799 40.7273 -0.182557 59.904L0.817381 59.9152ZM169.959 29.2472V30.2472C177.826 30.2472 183.558 32.0325 187.311 35.2227C191.037 38.3898 192.959 43.0674 192.959 49.1948H193.959H194.959C194.959 42.6282 192.881 37.3321 188.607 33.6988C184.36 30.0887 178.092 28.2472 169.959 28.2472V29.2472ZM193.959 49.1948L192.959 49.1833L191.959 136.228L192.959 136.239L193.959 136.251L194.959 49.2063L193.959 49.1948ZM192.959 136.239H191.959C191.959 148.291 182.501 157 168.959 157V158V159C183.417 159 193.959 149.575 193.959 136.239H192.959ZM168.959 158V157H24.959V158V159H168.959V158ZM24.959 158V157C11.4169 157 1.95898 148.291 1.95898 136.239H0.958984H-0.0410156C-0.0410156 149.575 10.5011 159 24.959 159V158ZM0.958984 136.239L1.95894 136.248L2.64413 62.9387L1.64417 62.9294L0.644217 62.92L-0.0409719 136.23L0.958984 136.239ZM1.64417 62.9294L2.64413 62.9387C2.81334 44.8345 17.5376 30.2472 35.6427 30.2472V29.2472V28.2472C16.4403 28.2472 0.823684 43.7185 0.644217 62.92L1.64417 62.9294ZM35.6427 29.2472V30.2472H169.959V29.2472V28.2472H35.6427V29.2472ZM130.523 55.9781L129.531 55.8487C128.441 64.2017 123.252 73.5015 109.265 81.3488L109.754 82.2209L110.244 83.093C124.681 74.9929 130.329 65.1918 131.514 56.1074L130.523 55.9781ZM109.754 82.2209L109.963 83.1989C121.397 80.7568 128.117 72.7598 131.719 64.1745C135.307 55.6218 135.862 46.358 134.895 41.0637L133.911 41.2435L132.927 41.4233C133.822 46.3183 133.32 55.1891 129.875 63.4008C126.443 71.5799 120.154 78.977 109.545 81.243L109.754 82.2209ZM133.911 41.2435L134.102 40.262C133.7 40.1835 133.128 40.1894 132.492 40.2415C131.827 40.2959 131 40.4093 130.043 40.5907C128.127 40.9538 125.654 41.5957 122.848 42.6108C117.235 44.6407 110.252 48.1757 103.707 53.9966L104.372 54.7439L105.036 55.4911C111.357 49.87 118.106 46.4525 123.528 44.4916C126.238 43.5113 128.608 42.8982 130.415 42.5557C131.319 42.3844 132.075 42.2823 132.655 42.2348C133.264 42.185 133.603 42.2024 133.72 42.2251L133.911 41.2435ZM104.372 54.7439L103.646 54.0562C82.1281 76.7749 76.6639 105.335 76.5007 119.488L77.5006 119.5L78.5006 119.511C78.6597 105.706 84.0203 77.6855 105.098 55.4315L104.372 54.7439ZM77.5006 119.5L78.4963 119.593C80.4562 98.6707 87.7086 80.6973 97.5414 67.6062C107.385 54.5004 119.752 46.3621 131.925 44.9224L131.808 43.9293L131.691 42.9363C118.812 44.4594 106.001 53.013 95.9422 66.4051C85.8723 79.8118 78.4969 98.1422 76.505 119.406L77.5006 119.5ZM131.808 43.9293L130.865 44.2607C130.839 44.1881 130.829 44.1301 130.825 44.1079C130.82 44.0804 130.818 44.0601 130.818 44.0512C130.816 44.034 130.816 44.0284 130.817 44.0413C130.817 44.0658 130.816 44.114 130.813 44.1928C130.807 44.3475 130.792 44.5752 130.769 44.8753C130.722 45.473 130.643 46.3256 130.533 47.3885C130.314 49.5127 129.973 52.4587 129.531 55.8487L130.523 55.9781L131.514 56.1074C131.958 52.7019 132.301 49.7381 132.523 47.5941C132.633 46.5229 132.714 45.6519 132.763 45.0307C132.787 44.7214 132.803 44.4659 132.811 44.2755C132.815 44.1816 132.818 44.0918 132.816 44.0142C132.816 43.9761 132.815 43.9284 132.81 43.8783C132.808 43.8531 132.799 43.7327 132.751 43.5979L131.808 43.9293ZM119.288 84.9246L118.533 84.2689C114.361 89.0726 111.963 91.7266 108.771 93.8041C105.57 95.8871 101.521 97.4204 93.9803 99.8121L94.2827 100.765L94.585 101.718C102.105 99.3333 106.403 97.7311 109.862 95.4804C113.329 93.2242 115.904 90.3464 120.043 85.5804L119.288 84.9246ZM94.2827 100.765L94.2071 101.762C99.9615 102.198 105.259 100.739 109.806 98.277L109.33 97.3977L108.854 96.5183C104.588 98.8281 99.6712 100.171 94.3582 99.7681L94.2827 100.765ZM109.33 97.3977L108.372 97.113C106.126 104.677 102.761 109.057 99.212 111.835C95.634 114.636 91.8092 115.866 88.4453 117.039L88.7747 117.983L89.1041 118.928C92.4052 117.776 96.5603 116.451 100.445 113.41C104.358 110.347 107.939 105.597 110.289 97.6823L109.33 97.3977ZM88.7747 117.983L88.4453 117.039C87.5073 117.366 86.7441 118.1 86.1176 118.973C85.4831 119.858 84.922 120.979 84.4192 122.234C83.4129 124.745 82.5804 127.944 81.8766 131.226C81.171 134.516 80.5854 137.937 80.0837 140.902C79.5779 143.892 79.1641 146.376 78.797 147.863L79.7678 148.103L80.7387 148.342C81.1287 146.763 81.5577 144.18 82.0557 141.236C82.5578 138.268 83.1369 134.888 83.8321 131.645C84.5291 128.395 85.3336 125.329 86.2757 122.978C86.747 121.802 87.238 120.843 87.7427 120.139C88.2555 119.424 88.7189 119.062 89.1041 118.928L88.7747 117.983ZM79.7678 148.103L78.797 147.863C78.8033 147.837 78.8083 147.826 78.8072 147.828C78.8067 147.83 78.8038 147.837 78.7981 147.848C78.7856 147.872 78.7697 147.896 78.7552 147.914C78.7392 147.933 78.7403 147.926 78.7666 147.909C78.7957 147.89 78.869 147.852 78.9787 147.847L79.0287 148.846L79.0788 149.844C79.6894 149.814 80.0967 149.43 80.2987 149.185C80.5097 148.929 80.6711 148.616 80.7387 148.343L79.7678 148.103ZM79.0287 148.846L78.982 147.847C79.078 147.842 79.1545 147.854 79.2032 147.865C79.2529 147.877 79.2895 147.89 79.3107 147.899C79.3505 147.915 79.3677 147.927 79.3587 147.921C79.3411 147.91 79.2985 147.878 79.2415 147.826C79.1866 147.775 79.1425 147.728 79.1198 147.701C79.1069 147.686 79.114 147.692 79.1304 147.718C79.138 147.73 79.1602 147.765 79.1838 147.818C79.196 147.845 79.2138 147.889 79.2294 147.945C79.2441 147.997 79.2652 148.09 79.2647 148.209L78.2647 148.204L77.2647 148.199C77.2636 148.421 77.3369 148.587 77.3577 148.634C77.3894 148.705 77.4236 148.761 77.4465 148.797C77.4935 148.87 77.545 148.936 77.5867 148.985C77.6732 149.089 77.7793 149.198 77.8881 149.298C77.995 149.397 78.1299 149.509 78.276 149.603C78.3489 149.65 78.4446 149.705 78.556 149.751C78.6549 149.791 78.8422 149.856 79.0755 149.845L79.0287 148.846ZM78.2647 148.204L79.2647 148.207C79.2663 147.707 79.1933 146.97 79.1537 146.186C79.111 145.343 79.09 144.252 79.1799 142.807C79.3598 139.912 79.9864 135.563 81.8007 128.908L80.8359 128.645L79.8711 128.382C78.03 135.136 77.374 139.622 77.1837 142.683C77.0885 144.215 77.1104 145.382 77.1562 146.287C77.2051 147.252 77.2661 147.757 77.2647 148.201L78.2647 148.204ZM80.8359 128.645L81.8007 128.908C83.4791 122.751 87.3656 111.514 91.9412 99.957C96.5196 88.3937 101.756 76.5919 106.123 69.28L105.265 68.7672L104.406 68.2544C99.9514 75.7133 94.6661 87.6421 90.0817 99.2207C85.4946 110.806 81.5776 122.122 79.8711 128.382L80.8359 128.645ZM105.265 68.7672L104.52 68.0996C104.396 68.2382 104.271 68.4322 104.164 68.6048C104.043 68.7991 103.893 69.0531 103.711 69.3623C103.345 69.9861 102.835 70.8656 102.124 72.0516C100.703 74.4208 98.4783 78.0115 95.0458 83.1382L95.8767 83.6946L96.7076 84.2509C100.159 79.0961 102.401 75.4774 103.839 73.0804C104.557 71.8833 105.075 70.9904 105.436 70.3742C105.619 70.0634 105.757 69.8304 105.862 69.6609C105.981 69.4698 106.02 69.4233 106.009 69.4349L105.265 68.7672ZM95.8767 83.6946L95.0045 83.2055C90.9593 90.4195 85.9126 103.26 81.8389 115.052C79.7982 120.959 77.9938 126.625 76.6736 131.223C75.3665 135.775 74.5004 139.391 74.3937 141.128L75.3918 141.189L76.3899 141.25C76.4807 139.773 77.2744 136.377 78.596 131.775C79.9044 127.218 81.6975 121.586 83.7292 115.705C87.8005 103.921 92.7987 91.2284 96.7489 84.1836L95.8767 83.6946ZM75.3918 141.189L74.4029 141.041C74.1007 143.057 73.8559 145.058 74.346 147.125C74.8437 149.224 76.0673 151.281 78.4765 153.529L79.1586 152.798L79.8408 152.067C77.6385 150.012 76.6761 148.283 76.2921 146.663C75.9004 145.011 76.0778 143.359 76.3808 141.337L75.3918 141.189ZM79.1586 152.798L79.0809 153.795C79.4166 153.821 79.6998 153.715 79.8962 153.609C80.0962 153.501 80.2711 153.36 80.4185 153.22C80.7128 152.94 81.0029 152.567 81.279 152.158C81.8368 151.331 82.4394 150.207 83.0118 148.982L82.1058 148.559L81.1999 148.136C80.6492 149.314 80.097 150.334 79.6213 151.039C79.3806 151.395 79.1843 151.634 79.0418 151.769C78.9707 151.836 78.9395 151.853 78.9482 151.848C78.9534 151.845 79.06 151.787 79.2364 151.801L79.1586 152.798ZM82.1058 148.559L83.0118 148.982C83.8323 147.227 84.1441 144.866 84.3765 142.461C84.6156 139.987 84.7744 137.404 85.2235 134.944L84.2397 134.765L83.256 134.585C82.7868 137.155 82.6156 139.891 82.3858 142.269C82.1494 144.715 81.8533 146.737 81.1999 148.136L82.1058 148.559ZM84.2397 134.765L85.2235 134.944C85.8885 131.301 86.8153 127.851 87.8289 125.264C88.3371 123.968 88.8533 122.924 89.3484 122.188C89.8764 121.404 90.2542 121.161 90.4141 121.121L90.1675 120.152L89.9208 119.182C89.0002 119.417 88.265 120.216 87.6893 121.072C87.0805 121.976 86.5022 123.168 85.9668 124.535C84.8933 127.274 83.9367 130.856 83.256 134.585L84.2397 134.765ZM90.1675 120.152L90.4876 121.099C107.873 115.224 113.203 101.642 113.662 95.4069L112.664 95.3335L111.667 95.2602C111.26 100.795 106.379 113.618 89.8473 119.204L90.1675 120.152ZM112.664 95.3335L113.246 96.1468C122.47 89.5462 128.532 78.5306 130.611 70.311L129.641 70.0658L128.672 69.8206C126.685 77.675 120.85 88.2462 112.082 94.5203L112.664 95.3335ZM129.641 70.0658L130.568 70.4418C130.583 70.4046 130.606 70.3439 130.624 70.2711C130.634 70.235 130.647 70.1749 130.654 70.1003C130.659 70.0417 130.669 69.8856 130.61 69.6994L129.657 70.0027L128.704 70.306C128.646 70.124 128.657 69.9737 128.662 69.9225C128.668 69.8553 128.68 69.8042 128.686 69.7786C128.699 69.727 128.713 69.6936 128.714 69.6898L129.641 70.0658ZM129.657 70.0027L128.69 69.7493C128.684 69.7712 128.677 69.798 128.67 69.8266L129.641 70.0658L130.612 70.3051C130.615 70.2915 130.619 70.2766 130.625 70.2561L129.657 70.0027ZM129.641 70.0658L128.713 69.6936C128.714 69.691 128.695 69.7342 128.634 69.8472C128.579 69.9492 128.504 70.0831 128.408 70.2478C128.217 70.5767 127.954 71.0119 127.631 71.5309C126.986 72.5681 126.111 73.9256 125.112 75.4113C123.11 78.3914 120.636 81.8481 118.533 84.2689L119.288 84.9246L120.043 85.5804C122.229 83.0643 124.758 79.5252 126.772 76.5268C127.783 75.0233 128.67 73.646 129.329 72.5872C129.658 72.0583 129.932 71.6052 130.137 71.2537C130.325 70.9301 130.493 70.6274 130.569 70.438L129.641 70.0658Z" fill="#DDAE98" mask="url(#path-1-inside-1_107_547)"/>
</svg>
