<svg width="196" height="159" viewBox="0 0 196 159" fill="none" xmlns="http://www.w3.org/2000/svg">
<path d="M1.95898 20C1.95898 6 11.959 0 25.959 0H73.959C85.959 0 89.959 6 95.959 14H169.959C185.959 14 193.959 22 193.959 36V132C193.959 146 183.959 156 169.959 156H25.959C11.959 156 1.95898 146 1.95898 132V20Z" fill="black"/>
<path d="M1.95898 23C1.95898 9 11.959 3 25.959 3H73.959C85.959 3 89.959 9 95.959 17H169.959C185.959 17 193.959 25 193.959 39V135C193.959 149 183.959 159 169.959 159H25.959C11.959 159 1.95898 149 1.95898 135V23Z" fill="#F2D6C9"/>
<path d="M195.824 46.2416C195.824 33.5476 187.715 26.2939 171.495 26.2939L150.986 26.2937C131.918 26.2934 122.592 26.2933 86.3436 26.2939H34.8153C16.1853 26.2939 1.02491 41.2864 0.817381 59.9152L0 133.286C0 145.98 10.1371 155.047 24.329 155.047H170.303C184.495 155.047 194.632 145.98 194.632 133.286L195.824 46.2416Z" fill="black"/>
<path d="M193.959 49.1948C193.959 36.5009 185.959 29.2472 169.959 29.2472H35.6427C16.989 29.2472 1.81851 44.2765 1.64417 62.9294L0.958984 136.239C0.958984 148.933 10.959 158 24.959 158H168.959C182.959 158 192.959 148.933 192.959 136.239L193.959 49.1948Z" fill="#F2D6C9"/>
<path d="M83.254 47.1276C82.6374 46.694 82.4865 45.8419 82.9169 45.2245C83.3474 44.607 84.1961 44.458 84.8127 44.8917L167.799 103.255C168.416 103.689 168.566 104.541 168.136 105.158C167.351 106.285 165.673 105.092 164.55 104.302L83.254 47.1276Z" fill="#DDAE98"/>
<path d="M103.211 101.08C102.471 100.948 101.975 100.239 102.105 99.4958C102.234 98.753 102.94 98.2578 103.68 98.3899L167.67 102.993C168.41 103.125 168.906 103.834 168.776 104.577C168.647 105.32 167.941 105.815 167.2 105.683L103.211 101.08Z" fill="#DDAE98"/>
<path d="M82.1376 46.3424C81.8794 45.6331 82.2426 44.8497 82.9489 44.5926C83.6551 44.3356 84.4369 44.7022 84.6951 45.4116L104.329 99.3563C104.588 100.066 104.224 100.849 103.518 101.106C102.812 101.363 102.03 100.997 101.772 100.287L82.1376 46.3424Z" fill="#DDAE98"/>
<path d="M102.023 99.1569C102.506 98.5796 103.364 98.5054 103.941 98.9912C104.518 99.477 104.594 100.339 104.112 100.916L58.1337 145.475C57.6512 146.053 56.7925 146.127 56.2158 145.641C55.639 145.155 55.5627 144.293 56.0452 143.716L102.023 99.1569Z" fill="#DDAE98"/>
<path d="M81.7458 46.222C81.9394 45.4935 82.6854 45.062 83.412 45.2583C84.1386 45.4546 84.5707 46.2044 84.3771 46.9329L58.3211 144.984C58.1275 145.713 57.3815 146.144 56.6549 145.948C55.9283 145.752 55.4962 145.002 55.6898 144.273L81.7458 46.222Z" fill="#DDAE98"/>
<path d="M83.254 47.1276C82.6374 46.694 82.4865 45.8419 82.9169 45.2245C83.3474 44.607 84.1961 44.458 84.8127 44.8917L167.799 103.255C168.416 103.689 168.566 104.541 168.136 105.158C167.351 106.285 165.673 105.092 164.55 104.302L83.254 47.1276Z" fill="#DDAE98"/>
<path d="M103.211 101.08C102.471 100.948 101.975 100.239 102.105 99.4958C102.234 98.753 102.94 98.2578 103.68 98.3899L167.67 102.993C168.41 103.125 168.906 103.834 168.776 104.577C168.647 105.32 167.941 105.815 167.2 105.683L103.211 101.08Z" fill="#DDAE98"/>
<path d="M82.1376 46.3424C81.8794 45.6331 82.2426 44.8497 82.9489 44.5926C83.6551 44.3356 84.4369 44.7022 84.6951 45.4116L104.329 99.3563C104.588 100.066 104.224 100.849 103.518 101.106C102.812 101.363 102.03 100.997 101.772 100.287L82.1376 46.3424Z" fill="#DDAE98"/>
<path d="M102.023 99.1569C102.506 98.5796 103.364 98.5054 103.941 98.9912C104.518 99.477 104.594 100.339 104.112 100.916L58.1337 145.475C57.6512 146.053 56.7925 146.127 56.2158 145.641C55.639 145.155 55.5627 144.293 56.0452 143.716L102.023 99.1569Z" fill="#DDAE98"/>
<path d="M81.7458 46.222C81.9394 45.4935 82.6854 45.062 83.412 45.2583C84.1386 45.4546 84.5707 46.2044 84.3771 46.9329L58.3211 144.984C58.1275 145.713 57.3815 146.144 56.6549 145.948C55.9283 145.752 55.4962 145.002 55.6898 144.273L81.7458 46.222Z" fill="#DDAE98"/>
</svg>
