<svg width="196" height="159" viewBox="0 0 196 159" fill="none" xmlns="http://www.w3.org/2000/svg">
<path d="M1.95898 20C1.95898 6 11.959 0 25.959 0H73.959C85.959 0 89.959 6 95.959 14H169.959C185.959 14 193.959 22 193.959 36V132C193.959 146 183.959 156 169.959 156H25.959C11.959 156 1.95898 146 1.95898 132V20Z" fill="black"/>
<path d="M1.95898 23C1.95898 9 11.959 3 25.959 3H73.959C85.959 3 89.959 9 95.959 17H169.959C185.959 17 193.959 25 193.959 39V135C193.959 149 183.959 159 169.959 159H25.959C11.959 159 1.95898 149 1.95898 135V23Z" fill="#F2D6C9"/>
<path d="M195.824 46.2416C195.824 33.5476 187.715 26.2939 171.495 26.2939L150.986 26.2937C131.918 26.2934 122.592 26.2933 86.3436 26.2939H34.8153C16.1853 26.2939 1.02491 41.2864 0.817381 59.9152L0 133.286C0 145.98 10.1371 155.047 24.329 155.047H170.303C184.495 155.047 194.632 145.98 194.632 133.286L195.824 46.2416Z" fill="black"/>
<path d="M193.959 49.1948C193.959 36.5009 185.959 29.2472 169.959 29.2472H35.6427C16.989 29.2472 1.81851 44.2765 1.64417 62.9294L0.958984 136.239C0.958984 148.933 10.959 158 24.959 158H168.959C182.959 158 192.959 148.933 192.959 136.239L193.959 49.1948Z" fill="#F2D6C9"/>
<path fill-rule="evenodd" clip-rule="evenodd" d="M89.2033 85.3823C101.01 96.4406 124.859 103.351 127.589 105.927C131.628 127.074 116.891 129.218 107.496 126.804L76.5172 103.143L76.6654 75.4717L89.2033 85.3823Z" fill="white" fill-opacity="0.4"/>
<path d="M68.1698 96.3853L60.1567 89.9557L59.6152 133.156C63.5507 137.568 73.6224 143.092 83.4304 134.54C85.3552 129.655 85.6945 123.99 82.1256 118.248C82.0949 114.796 82.0569 111.213 82.0175 107.418C78.4195 104.437 76.7924 103.357 76.7924 103.357L68.1698 96.3853Z" fill="white" fill-opacity="0.4"/>
<path fill-rule="evenodd" clip-rule="evenodd" d="M105.038 95.6914C113.646 100.136 118.641 101.223 127.595 105.943C127.365 90.0181 126.87 81.7952 126.639 65.8692C130.104 60.064 129.663 54.407 127.651 49.5564C117.691 41.1824 107.72 46.887 103.864 51.3684L105.038 95.6914Z" fill="white" fill-opacity="0.4"/>
<path d="M76.6702 75.4745C76.5801 75.4396 76.9664 103.498 76.7937 103.345L60.1465 89.9583C59.4577 89.3491 59.8038 87.4902 60.5014 86.8979L73.3711 75.9688C74.036 75.4037 75.8843 75.0066 76.6702 75.4745Z" fill="#B4AEFE" fill-opacity="0.24"/>
<path fill-rule="evenodd" clip-rule="evenodd" d="M80.866 120.55C82.8486 124.907 83.653 132.493 82.3468 134.621C79.1362 139.86 66.1979 138.504 62.4093 132.919C54.8758 121.813 76.8653 111.759 80.866 120.55Z" fill="#B4AEFE" fill-opacity="0.24"/>
<path fill-rule="evenodd" clip-rule="evenodd" d="M125.338 63.5916C127.242 59.2 127.91 51.6011 126.566 49.496C123.262 44.3157 110.35 45.9047 106.662 51.5562C99.3298 62.7961 121.497 72.4538 125.338 63.5916Z" fill="#B4AEFE" fill-opacity="0.24"/>
</svg>
