<svg width="196" height="159" viewBox="0 0 196 159" fill="none" xmlns="http://www.w3.org/2000/svg">
<path d="M1.95898 20C1.95898 6 11.959 0 25.959 0H73.959C85.959 0 89.959 6 95.959 14H169.959C185.959 14 193.959 22 193.959 36V132C193.959 146 183.959 156 169.959 156H25.959C11.959 156 1.95898 146 1.95898 132V20Z" fill="black"/>
<path d="M1.95898 23C1.95898 9 11.959 3 25.959 3H73.959C85.959 3 89.959 9 95.959 17H169.959C185.959 17 193.959 25 193.959 39V135C193.959 149 183.959 159 169.959 159H25.959C11.959 159 1.95898 149 1.95898 135V23Z" fill="#F2D6C9"/>
<path d="M195.824 46.2416C195.824 33.5476 187.715 26.2939 171.495 26.2939L150.986 26.2937C131.918 26.2934 122.592 26.2933 86.3436 26.2939H34.8153C16.1853 26.2939 1.02491 41.2864 0.817381 59.9152L0 133.286C0 145.98 10.1371 155.047 24.329 155.047H170.303C184.495 155.047 194.632 145.98 194.632 133.286L195.824 46.2416Z" fill="black"/>
<path d="M193.959 49.1948C193.959 36.5009 185.959 29.2472 169.959 29.2472H35.6427C16.989 29.2472 1.81851 44.2765 1.64417 62.9294L0.958984 136.239C0.958984 148.933 10.959 158 24.959 158H168.959C182.959 158 192.959 148.933 192.959 136.239L193.959 49.1948Z" fill="#F2D6C9"/>
<path d="M56.4191 64.4458H46.3358C45.508 64.4458 44.8369 69.4726 44.8369 75.6734V118.542C44.8369 124.743 45.508 129.77 46.3358 129.77H56.4191C57.2469 129.77 57.918 124.743 57.918 118.542V75.6734C57.918 69.4726 57.2469 64.4458 56.4191 64.4458Z" fill="white" fill-opacity="0.53"/>
<path d="M155.429 65.0142H145.346C144.518 65.0142 143.847 70.0409 143.847 76.2418V119.111C143.847 125.312 144.518 130.338 145.346 130.338H155.429C156.257 130.338 156.928 125.312 156.928 119.111V76.2418C156.928 70.0409 156.257 65.0142 155.429 65.0142Z" fill="white" fill-opacity="0.53"/>
<path d="M151.733 66.9824H149.042C147.555 66.9824 146.351 68.1872 146.351 69.6734V75.0554C146.351 76.5416 147.555 77.7464 149.042 77.7464H151.733C153.219 77.7464 154.424 76.5416 154.424 75.0554V69.6734C154.424 68.1872 153.219 66.9824 151.733 66.9824Z" fill="#DDAE98"/>
<path d="M151.733 83.7466H149.042C147.555 83.7466 146.351 84.9514 146.351 86.4376V91.8196C146.351 93.3058 147.555 94.5106 149.042 94.5106H151.733C153.219 94.5106 154.424 93.3058 154.424 91.8196V86.4376C154.424 84.9514 153.219 83.7466 151.733 83.7466Z" fill="#DDAE98"/>
<path d="M151.733 100.511H149.042C147.555 100.511 146.351 101.716 146.351 103.202V108.584C146.351 110.07 147.555 111.275 149.042 111.275H151.733C153.219 111.275 154.424 110.07 154.424 108.584V103.202C154.424 101.716 153.219 100.511 151.733 100.511Z" fill="#DDAE98"/>
<path d="M151.733 117.275H149.042C147.555 117.275 146.351 118.48 146.351 119.966V125.348C146.351 126.834 147.555 128.039 149.042 128.039H151.733C153.219 128.039 154.424 126.834 154.424 125.348V119.966C154.424 118.48 153.219 117.275 151.733 117.275Z" fill="#DDAE98"/>
<path d="M52.6769 66.9824H49.9859C48.4997 66.9824 47.2949 68.1872 47.2949 69.6734V75.0554C47.2949 76.5416 48.4997 77.7464 49.9859 77.7464H52.6769C54.1631 77.7464 55.3679 76.5416 55.3679 75.0554V69.6734C55.3679 68.1872 54.1631 66.9824 52.6769 66.9824Z" fill="#DDAE98"/>
<path d="M52.6769 83.7466H49.9859C48.4997 83.7466 47.2949 84.9514 47.2949 86.4376V91.8196C47.2949 93.3058 48.4997 94.5106 49.9859 94.5106H52.6769C54.1631 94.5106 55.3679 93.3058 55.3679 91.8196V86.4376C55.3679 84.9514 54.1631 83.7466 52.6769 83.7466Z" fill="#DDAE98"/>
<path d="M52.6769 100.511H49.9859C48.4997 100.511 47.2949 101.716 47.2949 103.202V108.584C47.2949 110.07 48.4997 111.275 49.9859 111.275H52.6769C54.1631 111.275 55.3679 110.07 55.3679 108.584V103.202C55.3679 101.716 54.1631 100.511 52.6769 100.511Z" fill="#DDAE98"/>
<path d="M52.6769 117.275H49.9859C48.4997 117.275 47.2949 118.48 47.2949 119.966V125.348C47.2949 126.834 48.4997 128.039 49.9859 128.039H52.6769C54.1631 128.039 55.3679 126.834 55.3679 125.348V119.966C55.3679 118.48 54.1631 117.275 52.6769 117.275Z" fill="#DDAE98"/>
<path d="M114.459 66.9824H85.8314C70.021 66.9824 57.2041 67.0951 57.2041 67.2341V67.7374C57.2041 67.8764 70.021 67.9891 85.8314 67.9891H114.459C130.269 67.9891 143.086 67.8764 143.086 67.7374V67.2341C143.086 67.0951 130.269 66.9824 114.459 66.9824Z" fill="#DDAE98"/>
<path d="M115.173 95.6436H86.5452C70.7348 95.6436 57.918 95.7562 57.918 95.8952V96.3986C57.918 96.5376 70.7348 96.6502 86.5452 96.6502H115.173C130.983 96.6502 143.8 96.5376 143.8 96.3986V95.8952C143.8 95.7562 130.983 95.6436 115.173 95.6436Z" fill="#DDAE98"/>
<path d="M115.173 122.657H86.5452C70.7348 122.657 57.918 122.769 57.918 122.908V123.412C57.918 123.551 70.7348 123.663 86.5452 123.663H115.173C130.983 123.663 143.8 123.551 143.8 123.412V122.908C143.8 122.769 130.983 122.657 115.173 122.657Z" fill="#DDAE98"/>
</svg>
