<svg width="1024" height="1024" viewBox="0 0 1024 1024" fill="none" xmlns="http://www.w3.org/2000/svg">
<path d="M0 0H1024V1024H0V0Z" fill="#8A889E"/>
<path d="M1024 0V1024H0V0H1024ZM1 1023H1023V1H1V1023Z" fill="#6A00FF"/>
<path d="M1024 0V1024H0V0H1024ZM1 1023H1023V1H1V1023Z" fill="#6A00FF"/>
<path d="M0 200C0 89.5431 89.5431 0 200 0H824C934.457 0 1024 89.5431 1024 200V824C1024 934.457 934.457 1024 824 1024H200C89.5431 1024 0 934.457 0 824V200Z" fill="white"/>
<path d="M824 1023V1024H200V1023H824ZM1023 824V200C1023 90.0953 933.905 1 824 1H200C90.0953 1 1 90.0953 1 200V824C1 933.905 90.0953 1023 200 1023V1024L198.707 1024C88.8451 1023.3 0 934.026 0 824V200C0 89.5431 89.5431 0 200 0H824C934.457 0 1024 89.5431 1024 200V824C1024 934.457 934.457 1024 824 1024V1023C933.905 1023 1023 933.905 1023 824Z" fill="#9855F5"/>
<path d="M964.47 58.4153L965.178 59.1224L59.5303 964.852L58.8232 964.145L964.47 58.4153Z" fill="#9855F5"/>
<path d="M965.177 964.145L964.469 964.852L58.8223 59.1224L59.5293 58.4153L965.177 964.145Z" fill="#9855F5"/>
<path d="M512.499 1023.21L511.499 1023.21L511.499 0.0625L512.499 0.0625L512.499 1023.21Z" fill="#9855F5"/>
<path d="M1023.57 511.134L1023.57 512.134L0.429687 512.134L0.429688 511.134L1023.57 511.134Z" fill="#9855F5"/>
<path d="M1023.55 389.75L1023.55 390.75L0.380859 390.75L0.380859 389.75L1023.55 389.75Z" fill="#9855F5"/>
<path d="M633.982 1023.83L632.982 1023.83L632.982 0.231079L633.982 0.231079L633.982 1023.83Z" fill="#9855F5"/>
<path d="M1023.54 249.586L1023.54 250.586L0.40332 250.586L0.40332 249.586L1023.54 249.586Z" fill="#9855F5"/>
<path d="M774.146 1023.52L773.146 1023.52L773.088 0.366268L774.088 0.366211L774.146 1023.52Z" fill="#9855F5"/>
<path d="M1000.56 105.988L1000.56 106.988L23.4492 106.988L23.4492 105.988L1000.56 105.988Z" fill="#9855F5"/>
<path d="M917.744 1000.19L916.744 1000.19L916.744 23.4288L917.744 23.4288L917.744 1000.19Z" fill="#9855F5"/>
<path d="M1023.56 772.835L1023.56 773.835L0.365234 773.835L0.365234 772.835L1023.56 772.835Z" fill="#9855F5"/>
<path d="M250.777 1023.27L249.777 1023.27L249.777 0.235596L250.777 0.235596L250.777 1023.27Z" fill="#9855F5"/>
<path d="M1000.42 916.356L1000.42 917.356L23.8252 917.356L23.8252 916.356L1000.42 916.356Z" fill="#9855F5"/>
<path d="M107.317 999.613H106.317L106.317 23.0171H107.317L107.317 999.613Z" fill="#9855F5"/>
<path d="M1023.63 632.594L1023.63 633.594L0.501953 633.594L0.501953 632.594L1023.63 632.594Z" fill="#9855F5"/>
<path d="M391.139 1023.15L390.139 1023.15L390.139 0.166382L391.139 0.166382L391.139 1023.15Z" fill="#9855F5"/>
<path d="M916.185 512C916.185 288.776 735.225 107.816 512.001 107.816C288.776 107.816 107.816 288.776 107.816 512C107.817 735.225 288.776 916.184 512.001 916.184V917.184L509.38 917.176C287.682 915.772 108.228 736.319 106.824 514.621L106.816 512C106.816 288.223 288.224 106.816 512.001 106.816L514.621 106.824C737.192 108.233 917.185 289.098 917.185 512L917.177 514.621C915.767 737.191 734.904 917.184 512.001 917.184V916.184C735.225 916.184 916.184 735.225 916.185 512Z" fill="#9855F5"/>
<path d="M773.159 511.634C773.159 367.695 656.473 251.009 512.534 251.009C368.595 251.009 251.909 367.695 251.909 511.634C251.909 655.573 368.595 772.259 512.534 772.259V773.259L510.842 773.253C367.693 772.346 251.82 656.475 250.914 513.325L250.909 511.634C250.909 367.143 368.043 250.009 512.534 250.009L514.226 250.014C657.938 250.924 774.159 367.707 774.159 511.634L774.153 513.325C773.243 657.038 656.461 773.259 512.534 773.259V772.259C656.473 772.259 773.159 655.573 773.159 511.634Z" fill="#9855F5"/>
<path d="M632.956 511.633C632.956 445.126 579.04 391.212 512.533 391.212C446.026 391.212 392.112 445.126 392.111 511.633C392.111 578.141 446.026 632.056 512.533 632.056V633.056L510.964 633.046C444.628 632.205 391.111 578.169 391.111 511.633C391.112 444.574 445.474 390.212 512.533 390.212C579.593 390.212 633.956 444.574 633.956 511.633L633.945 513.203C633.105 579.539 579.069 633.056 512.533 633.056V632.056C579.041 632.056 632.956 578.141 632.956 511.633Z" fill="#9855F5"/>
</svg>
