<svg width="900" height="900" viewBox="0 0 900 900" fill="none" xmlns="http://www.w3.org/2000/svg">
<path d="M450 899.998C586.691 899.998 697.5 698.527 697.5 449.999C697.5 201.471 586.691 0 450 0C313.31 0 202.5 201.471 202.5 449.999C202.5 698.527 313.31 899.998 450 899.998Z" fill="#6762FF"/>
<path d="M131.803 768.197C228.458 864.851 449.274 800.744 625.01 625.008C800.746 449.272 864.854 228.457 768.2 131.802C671.545 35.1475 450.728 99.2553 274.992 274.991C99.2562 450.726 35.1482 671.542 131.803 768.197Z" fill="#9C8EEA"/>
<path d="M0 449.998C0 586.689 201.472 697.498 450 697.498C698.528 697.498 900 586.689 900 449.998C900 313.308 698.528 202.499 450 202.499C201.472 202.499 0 313.308 0 449.998Z" fill="#E0E0E0"/>
<path d="M131.799 131.801C35.1443 228.455 99.2523 449.271 274.988 625.007C450.725 800.742 671.541 864.85 768.196 768.195C864.851 671.541 800.743 450.725 625.007 274.99C449.27 99.2541 228.454 35.1464 131.799 131.801Z" fill="#BA6262"/>
<foreignObject x="0" y="0" width="0" height="0"><div xmlns="http://www.w3.org/1999/xhtml" style="backdrop-filter:blur(0px);clip-path:url(#bgblur_0_202_276_clip_path);height:100%;width:100%"></div></foreignObject><path data-figma-bg-blur-radius="0" d="M449.998 652.498C561.836 652.498 652.498 561.836 652.498 449.998C652.498 338.161 561.836 247.499 449.998 247.499C338.16 247.499 247.498 338.161 247.498 449.998C247.498 561.836 338.16 652.498 449.998 652.498Z" fill="#6762FF"/>
<path d="M449.998 544.498C502.189 544.498 544.498 502.189 544.498 449.998C544.498 397.807 502.189 355.498 449.998 355.498C397.807 355.498 355.498 397.807 355.498 449.998C355.498 502.189 397.807 544.498 449.998 544.498Z" fill="white"/>
<defs>
<clipPath id="bgblur_0_202_276_clip_path" transform="translate(0 0)"><path d="M449.998 652.498C561.836 652.498 652.498 561.836 652.498 449.998C652.498 338.161 561.836 247.499 449.998 247.499C338.16 247.499 247.498 338.161 247.498 449.998C247.498 561.836 338.16 652.498 449.998 652.498Z"/>
</clipPath></defs>
</svg>
